<?xml version="1.0" encoding="utf-8"?>
<!-- Generator: Adobe Illustrator 21.0.0, SVG Export Plug-In . SVG Version: 6.00 Build 0)  -->
<svg version="1.1" xmlns="http://www.w3.org/2000/svg" xmlns:xlink="http://www.w3.org/1999/xlink" x="0px" y="0px"
	 viewBox="0 0 498.7 161.7" style="enable-background:new 0 0 498.7 161.7;" xml:space="preserve">
<style type="text/css">
	.st0{display:none;}
	.st1{display:inline;fill:none;}
	.st2{display:inline;fill:#A8A6A3;}
	.st3{display:inline;fill:#4174A0;}
	.st4{display:inline;fill:#77BB4E;}
	.st5{display:inline;fill:#745A91;}
	.st6{display:inline;fill:#B5526A;}
	.st7{display:inline;fill:#3A9383;}
	.st8{display:inline;fill:#D1682C;}
	.st9{display:inline;fill:#444342;}
	.st10{fill:#4174A0;}
	.st11{fill:#77BB4E;}
	.st12{fill:#745A91;}
	.st13{fill:#B5526A;}
	.st14{fill:#3A9383;}
	.st15{fill:#D1682C;}
	.st16{fill:#A8A6A3;}
	.st17{fill:#FFFFFF;}
</style>
<g id="Layer_1" class="st0">
	<polygon class="st1" points="105.1,121.6 105.1,86.1 66.7,86.1 66.7,-0.9 65.9,-0.9 65.9,84.1 -0.9,84.1 -0.9,162.1 105.1,162.1 
		105.1,125.6 	"/>
	<rect x="128.1" y="-0.9" class="st1" width="2.7" height="81.2"/>
	<path class="st2" d="M234.9,80.3v3.8v37.4v4h73.5V38.9H232v0h2.9V80.3z M237,43.9h13.6l42.2,63h0.2v-63h10.4v76.6h-13.2l-42.6-63
		h-0.2v63H237V43.9z"/>
	<path class="st2" d="M389.8,100.7c-6.3,13-19.4,21.7-35.8,21.7c-23.4,0-39.9-17.5-39.9-40.3S330.6,42,354,42
		c16.4,0,29.5,8.7,35.8,21.7V38.9h9.1V37h-89.9v90.5h89.9v-1.9h-9.1V100.7z"/>
	<path class="st2" d="M354,51.7c-17.5,0-28.9,13.7-28.9,30.5c0,16.8,11.4,30.5,28.9,30.5c17.5,0,28.9-13.7,28.9-30.5
		C382.9,65.4,371.5,51.7,354,51.7z"/>
	<path class="st3" d="M232,80.3V38.9h-39.4v41.4H232z M229.9,43.9v35.2h-35.2V43.9H229.9z"/>
	<rect x="232" y="38.9" class="st3" width="2.9" height="41.4"/>
	<path class="st4" d="M192.6,84.2v37.4H232V84.2H192.6z M194.7,120.6V85.3h35.2v35.2H194.7z"/>
	<rect x="232" y="84.2" class="st4" width="2.9" height="37.4"/>
	<polygon class="st4" points="192.6,84.2 232,84.2 232,80.3 192.6,80.3 192.6,84.1 	"/>
	<rect x="232" y="80.3" class="st4" width="2.9" height="3.8"/>
	<path class="st5" d="M189.7,84.1h-39.4v37.5h39.4V84.1L189.7,84.1z M187.6,120.6h-35.2V85.3h35.2V120.6z"/>
	<rect x="189.7" y="84.2" class="st5" width="2.9" height="37.4"/>
	<rect x="189.7" y="84.1" class="st5" width="2.9" height="0.1"/>
	<path class="st6" d="M150.3,125.6v36.6h39.4v-36.6H150.3z M152.4,161.7v-35.2h35.2v35.2H152.4z"/>
	<rect x="150.3" y="121.6" class="st6" width="39.4" height="4"/>
	<path class="st7" d="M105.1,125.6v36.6h42.3v-36.6H105.1z M110.1,161.7v-35.2h35.2v35.2H110.1z"/>
	<rect x="147.4" y="125.6" class="st7" width="2.9" height="36.6"/>
	<polygon class="st2" points="147.4,84.1 130.9,84.1 130.9,80.3 128.1,80.3 128.1,85.3 145.3,85.3 145.3,120.6 110.1,120.6 
		110.1,86.1 105.1,86.1 105.1,121.6 147.4,121.6 	"/>
	<rect x="147.4" y="84.1" class="st2" width="2.9" height="37.5"/>
	<rect x="105.1" y="121.6" class="st2" width="42.3" height="4"/>
	<rect x="147.4" y="121.6" class="st2" width="2.9" height="4"/>
	<path class="st8" d="M192.6,125.6v36.6h42.3v-36.6H192.6z M194.7,161.7v-35.2h35.2v35.2H194.7z"/>
	<polygon class="st8" points="232,121.6 192.6,121.6 192.6,125.6 234.9,125.6 234.9,125.5 232,125.5 	"/>
	<rect x="232" y="121.6" class="st8" width="2.9" height="4"/>
	<rect x="189.7" y="125.6" class="st8" width="2.9" height="36.6"/>
	<rect x="189.7" y="121.6" class="st8" width="2.9" height="4"/>
	<path class="st9" d="M65.9-0.9H-0.9v85h66.8V-0.9z M60.9,79.1H50.4V43.8h-40v35.3H0V2h10.5v32h40V2h10.5V79.1z"/>
	<path class="st9" d="M105.1,86.1v-5.7h23.1V-0.9H66.7v86.9H105.1z M100.1,0c8.4,0,16.5,1.7,22.2,8.8l-8.5,7.7
		c-2.6-4-7.7-6.8-13.7-6.8c-11.5,0-15,7-15,11.8c0,19.5,38,7.8,38,35.6c0,14.9-12,23.9-26.8,23.9c-9.9,0-19.4-3.4-24.6-10.7l8.6-7.4
		c3.7,5.7,10.1,8.3,16.3,8.3c6.9,0,15.4-4.4,15.4-12.9c0-17.8-38-6.8-38-36.8C74,12.5,81.6,0,100.1,0z"/>
	<polygon class="st9" points="110.1,85.3 128.1,85.3 128.1,80.3 105.1,80.3 105.1,86.1 110.1,86.1 	"/>
	<rect x="110.1" y="85.3" class="st9" width="18.1" height="0.7"/>
	<path class="st9" d="M147.4,80.3h2.9h39.4V38.9h2.9V-0.9h-61.8v81.2H147.4z M185.7,2v9.8h-39.3v23h36.6v9.8h-36.6v24.7h41.3v9.8
		h-51.8V2H185.7z"/>
	<rect x="189.7" y="38.9" class="st9" width="2.9" height="41.4"/>
	<rect x="150.3" y="80.3" class="st9" width="39.4" height="3.8"/>
	<rect x="189.7" y="80.3" class="st9" width="2.9" height="3.8"/>
	<rect x="130.9" y="80.3" class="st9" width="16.5" height="3.8"/>
	<rect x="147.4" y="80.3" class="st9" width="2.9" height="3.8"/>
	<path class="st2" d="M493.3,110.3c0-1.3,1.2-1.8,2.4-1.8c1,0,2,0.4,2.5,1.1l0.1-0.1v-2.9c-0.7-0.3-1.6-0.4-2.4-0.4
		c-2.7,0-5.4,1.4-5.4,4.3c0,5.1,6.9,3.3,6.9,6.4c0,1.3-1.4,2-2.5,2c-1.2,0-2.2-0.5-2.9-1.5l-1.9,1.9c1.2,1.4,3,1.9,4.8,1.9
		c1.3,0,2.5-0.3,3.4-0.9v-6.9C496.3,112.2,493.3,112.2,493.3,110.3z"/>
	<path class="st2" d="M500.1,107.7c-0.5-0.5-1.1-0.8-1.8-1.1v2.9L500.1,107.7z"/>
	<path class="st2" d="M500.2,116.6c0-1.7-0.8-2.7-1.9-3.3v6.9C499.5,119.5,500.2,118.3,500.2,116.6z"/>
	<polygon class="st2" points="505.8,120.5 505.8,108.6 505.8,108.6 510.3,120.5 512.1,120.5 516.5,108.6 516.5,108.6 516.5,120.5 
		519,120.5 519,106.2 515.1,106.2 511.2,116.2 507.3,106.2 505.2,106.2 505.2,120.5 	"/>
	<rect x="503.7" y="106.2" class="st2" width="1.5" height="14.3"/>
	<rect x="503.3" y="106.2" class="st2" width="0.3" height="14.3"/>
</g>
<g id="Layer_2">
	<rect x="194.7" y="43.9" class="st10" width="35.2" height="35.2"/>
	<rect x="194.7" y="85.3" class="st11" width="35.2" height="35.2"/>
	<rect x="152.4" y="85.3" class="st12" width="35.2" height="35.2"/>
	<rect x="152.4" y="126.6" class="st13" width="35.2" height="35.2"/>
	<rect x="110.1" y="126.6" class="st14" width="35.2" height="35.2"/>
	<rect x="194.7" y="126.6" class="st15" width="35.2" height="35.2"/>
	<rect x="110" y="85.3" class="st16" width="35.2" height="35.2"/>
</g>
<g id="Layer_3">
	<polygon class="st17" points="50.4,34 10.5,34 10.5,2 0,2 0,79.1 10.5,79.1 10.5,43.8 50.4,43.8 50.4,79.1 60.9,79.1 60.9,2 
		50.4,2 	"/>
	<path class="st17" d="M112,58.4c0,8.5-8.5,12.9-15.4,12.9c-6.2,0-12.6-2.6-16.3-8.3l-8.6,7.4c5.2,7.3,14.7,10.7,24.6,10.7
		c14.8,0,26.8-8.9,26.8-23.9c0-27.8-38-16.1-38-35.6c0-4.8,3.5-11.8,15-11.8c6,0,11.1,2.7,13.7,6.8l8.5-7.7
		C116.6,1.7,108.5,0,100.1,0C81.6,0,74,12.5,74,21.6C74,51.6,112,40.6,112,58.4z"/>
	<polygon class="st17" points="187.6,79.1 187.6,69.3 146.3,69.3 146.3,44.6 182.9,44.6 182.9,34.8 146.3,34.8 146.3,11.8 
		185.7,11.8 185.7,2 135.9,2 135.9,79.1 	"/>
</g>
<g id="Layer_4">
	<polygon class="st16" points="247.4,57.5 247.6,57.5 290.3,120.5 303.5,120.5 303.5,43.9 293.1,43.9 293.1,106.9 292.9,106.9 
		250.7,43.9 237,43.9 237,120.5 247.4,120.5 	"/>
	<path class="st16" d="M389.8,63.7C383.5,50.6,370.4,42,354,42c-23.4,0-39.9,17.5-39.9,40.3s16.6,40.3,39.9,40.3
		c16.4,0,29.5-8.7,35.8-21.7c2.7-5.5,4.1-11.8,4.1-18.5S392.5,69.2,389.8,63.7z M354,112.7c-17.5,0-28.9-13.7-28.9-30.5
		c0-16.8,11.4-30.5,28.9-30.5c17.5,0,28.9,13.7,28.9,30.5C382.9,99,371.5,112.7,354,112.7z"/>
	<polygon class="st16" points="487.9,43.9 471,105.1 470.8,105.1 452.7,43.9 440.8,43.9 422.7,105.1 422.5,105.1 405.6,43.9 
		398.9,43.9 394.8,43.9 398.9,58 417.2,120.5 428.1,120.5 446.6,58 446.9,58 465.5,120.5 476.4,120.5 498.7,43.9 	"/>
</g>
</svg>
