<?xml version="1.0" encoding="utf-8"?>
<!-- Generator: Adobe Illustrator 19.2.0, SVG Export Plug-In . SVG Version: 6.00 Build 0)  -->
<svg version="1.1" id="Layer_1" xmlns="http://www.w3.org/2000/svg" xmlns:xlink="http://www.w3.org/1999/xlink" x="0px" y="0px"
	 viewBox="0 0 440 100" style="enable-background:new 0 0 440 100;" xml:space="preserve">
<style type="text/css">
	.st0{fill:#E31837;}
</style>
<g>
	<g>
		<path class="st0" d="M215,88.1c-1.2,1.2-2.6,1.8-4.2,1.8s-3.1-0.6-4.2-1.8c-1.2-1.2-1.7-2.6-1.7-4.2c0-1.6,0.6-3,1.7-4.2
			c1.2-1.2,2.6-1.7,4.2-1.7c1.7,0,3.1,0.6,4.2,1.7c1.2,1.2,1.7,2.6,1.7,4.2C216.7,85.5,216.1,86.9,215,88.1z M207.1,80.3
			c-1,1-1.5,2.2-1.5,3.6c0,1.4,0.5,2.7,1.5,3.7c1,1,2.2,1.5,3.6,1.5s2.6-0.5,3.6-1.5c1-1,1.5-2.2,1.5-3.7c0-1.4-0.5-2.6-1.5-3.6
			c-1-1-2.2-1.5-3.6-1.5C209.3,78.7,208.1,79.2,207.1,80.3z M210.6,80.6c0.8,0,1.4,0.1,1.8,0.2c0.7,0.3,1,0.8,1,1.7
			c0,0.6-0.2,1-0.6,1.3c-0.2,0.1-0.5,0.3-0.9,0.3c0.5,0.1,0.9,0.3,1.1,0.6s0.4,0.7,0.4,1v0.5c0,0.2,0,0.3,0,0.5c0,0.2,0,0.3,0.1,0.3
			l0,0.1h-1.1c0,0,0,0,0-0.1c0,0,0,0,0-0.1l0-0.2v-0.5c0-0.8-0.2-1.3-0.6-1.5c-0.2-0.1-0.7-0.2-1.3-0.2h-0.9v2.6h-1.2v-6.6H210.6z
			 M211.9,81.6c-0.3-0.2-0.8-0.2-1.4-0.2h-1v2.4h1c0.5,0,0.9,0,1.1-0.1c0.5-0.2,0.7-0.5,0.7-1C212.3,82.1,212.2,81.8,211.9,81.6z"/>
	</g>
</g>
<polygon class="st0" points="222.9,1.1 153,1.1 153,19.9 178,19.9 178,90.2 197.6,90.2 197.6,19.9 222.9,19.9 "/>
<path class="st0" d="M129.3,1.1c0,0,20.7,2,21.3,25.3c0.6,21.6-15.2,29.1-20,29l-23.4,0h-7.5l0.1,34.8H80.7l0.1-89.1H129.3z
	 M121.5,20l-21.7,0l-0.1,15.7H121c0,0,8.9,1.3,8.8-8.4C129.8,19.8,121.5,20,121.5,20z"/>
<path class="st0" d="M70.6,49.4c0,0,1.6,41.5-32.7,41.5C3.6,91,0.7,91,0.7,91V71.3l31.8-0.1C50,69.5,50.6,43,50.6,43l0-41.5h20.1
	L70.6,49.4z"/>
<g>
	<g>
		<path class="st0" d="M234.7,34.5h10.2c4.6,0,7.1,3.1,7.1,6.8c0,3.7-2.5,6.7-7.1,6.7h-4.9v6.8h-5.2V34.5z M244.2,39.1h-4.2v4.4h4.2
			c1.4,0,2.4-0.8,2.4-2.2C246.6,39.9,245.6,39.1,244.2,39.1z"/>
		<path class="st0" d="M254.3,34.5h14.9v4.6h-9.7v3.2h9.5v4.6h-9.5v3.4h9.7v4.6h-14.9V34.5z"/>
		<path class="st0" d="M276.8,39.1h-5.7v-4.6h16.6v4.6h-5.7v15.8h-5.2V39.1z"/>
		<path class="st0" d="M298.2,48h-2.7v6.8h-5.2V34.5h10.2c4.5,0,7.1,3,7.1,6.8c0,3.5-2.2,5.4-4.1,6.1l4.1,7.5h-6L298.2,48z
			 M299.6,39.1h-4.1v4.4h4.1c1.4,0,2.5-0.8,2.5-2.2C302.2,39.9,301,39.1,299.6,39.1z"/>
		<path class="st0" d="M320.3,34.2c6.2,0,10.9,4.3,10.9,10.5s-4.6,10.5-10.9,10.5c-6.2,0-10.9-4.3-10.9-10.5S314.1,34.2,320.3,34.2z
			 M320.3,38.8c-3.4,0-5.6,2.6-5.6,5.9c0,3.3,2.2,5.9,5.6,5.9c3.4,0,5.5-2.6,5.5-5.9C325.8,41.4,323.6,38.8,320.3,38.8z"/>
		<path class="st0" d="M333.8,34.5h5.2v15.8h8.2v4.6h-13.4V34.5z"/>
		<path class="st0" d="M349.9,34.5h14.9v4.6h-9.7v3.2h9.5v4.6h-9.5v3.4h9.7v4.6h-14.9V34.5z"/>
		<path class="st0" d="M367.9,34.5h5.3v11.9c0,2.4,1.4,4.2,4.3,4.2c2.8,0,4.3-1.7,4.3-4.2V34.5h5.3v12.1c0,5.1-3.1,8.6-9.6,8.6
			c-6.6,0-9.6-3.6-9.6-8.6V34.5z"/>
		<path class="st0" d="M408.7,41.6l-5.2,13.2h-2.3l-5.1-13.2v13.2h-5.2V34.5h7.3l4.2,11l4.3-11h7.3v20.4h-5.2V41.6z"/>
	</g>
	<g>
		<path class="st0" d="M240.4,73.7h-5.7v-4.6h16.6v4.6h-5.7v15.8h-5.2V73.7z"/>
		<path class="st0" d="M253.8,69.2h14.9v4.6h-9.7v3.2h9.5v4.6h-9.5v3.4h9.7v4.6h-14.9V69.2z"/>
		<path class="st0" d="M270.7,79.3c0-6.3,4.8-10.5,11-10.5c4.9,0,7.5,2.8,8.9,5.5l-4.5,2.1c-0.7-1.6-2.4-3-4.4-3
			c-3.3,0-5.7,2.6-5.7,5.9s2.3,5.9,5.7,5.9c2,0,3.7-1.3,4.4-3l4.5,2.1c-1.3,2.6-4,5.5-8.9,5.5C275.5,89.9,270.7,85.6,270.7,79.3z"/>
		<path class="st0" d="M306.6,81.3h-8.5v8.2h-5.2V69.2h5.2v7.6h8.5v-7.6h5.2v20.4h-5.2V81.3z"/>
		<path class="st0" d="M320.8,77.7v11.8h-5.2V69.2h5.4l8.2,11.2V69.2h5.3v20.4h-5.1L320.8,77.7z"/>
		<path class="st0" d="M348,68.8c6.2,0,10.9,4.3,10.9,10.5s-4.6,10.5-10.9,10.5s-10.9-4.3-10.9-10.5S341.7,68.8,348,68.8z M348,73.5
			c-3.4,0-5.6,2.6-5.6,5.9c0,3.3,2.2,5.9,5.6,5.9c3.4,0,5.5-2.6,5.5-5.9C353.5,76,351.3,73.5,348,73.5z"/>
		<path class="st0" d="M361.5,69.2h5.2v15.8h8.2v4.6h-13.4V69.2z"/>
		<path class="st0" d="M386.7,68.8c6.2,0,10.9,4.3,10.9,10.5s-4.6,10.5-10.9,10.5c-6.2,0-10.9-4.3-10.9-10.5S380.5,68.8,386.7,68.8z
			 M386.7,73.5c-3.4,0-5.6,2.6-5.6,5.9c0,3.3,2.2,5.9,5.6,5.9c3.4,0,5.5-2.6,5.5-5.9C392.3,76,390.1,73.5,386.7,73.5z"/>
		<path class="st0" d="M410.2,68.8c4.5,0,7.3,2.4,8.7,4.9l-4.4,2.3c-0.8-1.3-2.3-2.6-4.3-2.6c-3.3,0-5.7,2.6-5.7,5.9
			s2.3,5.9,5.7,5.9c1.5,0,3-0.6,3.8-1.2v-1.6h-4.6v-4.6h9.8v8.1c-2.2,2.4-5.2,4-9,4c-6.1,0-11-4.1-11-10.5S404.2,68.8,410.2,68.8z"
			/>
		<path class="st0" d="M427.1,81.3l-7.7-12.1h5.9l4.4,7.5l4.4-7.5h6l-7.7,12.1v8.2h-5.2V81.3z"/>
	</g>
	<g>
		<path class="st0" d="M265.5,1.1c6.2,0,10.9,4.3,10.9,10.5s-4.6,10.5-10.9,10.5c-6.2,0-10.9-4.3-10.9-10.5S259.3,1.1,265.5,1.1z
			 M265.5,5.7c-3.4,0-5.6,2.6-5.6,5.9c0,3.3,2.2,5.9,5.6,5.9c3.4,0,5.5-2.6,5.5-5.9C271,8.3,268.8,5.7,265.5,5.7z"/>
		<path class="st0" d="M279,1.4h5.3v11.9c0,2.4,1.4,4.2,4.3,4.2c2.8,0,4.3-1.7,4.3-4.2V1.4h5.3v12.1c0,5.1-3.1,8.6-9.6,8.6
			c-6.6,0-9.6-3.6-9.6-8.6V1.4z"/>
		<path class="st0" d="M309.8,14.9h-2.7v6.8h-5.2V1.4h10.2c4.5,0,7.1,3,7.1,6.8c0,3.5-2.2,5.4-4.1,6.1l4.1,7.5h-6L309.8,14.9z
			 M311.3,6h-4.1v4.4h4.1c1.4,0,2.5-0.8,2.5-2.2C313.8,6.8,312.7,6,311.3,6z"/>
		<path class="st0" d="M327.3,10v11.8h-5.2V1.4h5.4l8.2,11.2V1.4h5.3v20.4h-5.1L327.3,10z"/>
		<path class="st0" d="M357.5,18.8h-8l-1,2.9h-6l7.7-20.4h6.6l7.7,20.4h-6L357.5,18.8z M350.8,14.2h5.2l-2.6-7.7L350.8,14.2z"/>
		<path class="st0" d="M365.9,1.4h5.2v15.8h8.2v4.6h-13.4V1.4z"/>
		<path class="st0" d="M399.7,1.1c6.2,0,10.9,4.3,10.9,10.5s-4.6,10.5-10.9,10.5c-6.2,0-10.9-4.3-10.9-10.5S393.5,1.1,399.7,1.1z
			 M399.7,5.7c-3.4,0-5.6,2.6-5.6,5.9c0,3.3,2.2,5.9,5.6,5.9c3.4,0,5.5-2.6,5.5-5.9C405.3,8.3,403.1,5.7,399.7,5.7z"/>
		<path class="st0" d="M413.3,1.4h14.9V6h-9.7v3.2h9.5v4.6h-9.5v8h-5.2V1.4z"/>
		<path class="st0" d="M250.8,12.1c0,0,0.4,9.6-7.6,9.6c-7.9,0-8.6,0-8.6,0v-4.6l7.4,0c4.1-0.4,4.2-6.5,4.2-6.5l0-9.6h4.6
			L250.8,12.1z"/>
	</g>
</g>
</svg>
