<?xml version="1.0" encoding="utf-8"?>
<!-- Generator: Adobe Illustrator 19.2.0, SVG Export Plug-In . SVG Version: 6.00 Build 0)  -->
<svg version="1.1" id="Layer_1" xmlns="http://www.w3.org/2000/svg" xmlns:xlink="http://www.w3.org/1999/xlink" x="0px" y="0px"
	 viewBox="0 0 225 110" style="enable-background:new 0 0 225 110;" xml:space="preserve">
<style type="text/css">
	.st0{fill:#E21937;}
</style>
<g>
	<g>
		<path class="st0" d="M216,87.7c-1.2,1.2-2.6,1.8-4.2,1.8s-3.1-0.6-4.2-1.8c-1.2-1.2-1.7-2.6-1.7-4.2c0-1.6,0.6-3,1.7-4.2
			c1.2-1.2,2.6-1.7,4.2-1.7c1.7,0,3.1,0.6,4.2,1.7c1.2,1.2,1.7,2.6,1.7,4.2C217.7,85.1,217.1,86.5,216,87.7z M208.1,79.8
			c-1,1-1.5,2.2-1.5,3.6c0,1.4,0.5,2.7,1.5,3.7c1,1,2.2,1.5,3.6,1.5s2.6-0.5,3.6-1.5c1-1,1.5-2.2,1.5-3.7c0-1.4-0.5-2.6-1.5-3.6
			c-1-1-2.2-1.5-3.6-1.5C210.3,78.3,209.1,78.8,208.1,79.8z M211.6,80.2c0.8,0,1.4,0.1,1.8,0.2c0.7,0.3,1,0.8,1,1.7
			c0,0.6-0.2,1-0.6,1.3c-0.2,0.1-0.5,0.3-0.9,0.3c0.5,0.1,0.9,0.3,1.1,0.6s0.4,0.7,0.4,1v0.5c0,0.2,0,0.3,0,0.5c0,0.2,0,0.3,0.1,0.3
			l0,0.1h-1.1c0,0,0,0,0-0.1c0,0,0,0,0-0.1l0-0.2v-0.5c0-0.8-0.2-1.3-0.6-1.5c-0.2-0.1-0.7-0.2-1.3-0.2h-0.9v2.6h-1.2v-6.6H211.6z
			 M212.9,81.2c-0.3-0.2-0.8-0.2-1.4-0.2h-1v2.4h1c0.5,0,0.9,0,1.1-0.1c0.5-0.2,0.7-0.5,0.7-1C213.3,81.7,213.2,81.4,212.9,81.2z"/>
	</g>
</g>
<polygon class="st0" points="223.9,0.6 154,0.6 154,19.5 179,19.5 179,89.7 198.6,89.7 198.6,19.5 223.9,19.5 "/>
<path class="st0" d="M130.3,0.6c0,0,20.7,2,21.3,25.3c0.6,21.6-15.2,29.1-20,29l-23.4,0h-7.5l0.1,34.8H81.7l0.1-89.1H130.3z
	 M122.5,19.6l-21.7,0l-0.1,15.7H122c0,0,8.9,1.3,8.8-8.4C130.8,19.4,122.5,19.6,122.5,19.6z"/>
<path class="st0" d="M71.6,48.4c0,0,1.6,41.5-32.7,41.5c-34.3,0-37.3,0-37.3,0V70.2l31.8-0.1C51,68.5,51.6,42,51.6,42l0-41.5h20.1
	L71.6,48.4z"/>
<g>
	<path class="st0" d="M12.4,102.1c2.3,0,4,1.6,4,3.9c0,2.3-1.7,3.9-4,3.9s-4.1-1.6-4.1-3.9C8.4,103.7,10.1,102.1,12.4,102.1z
		 M12.4,103.8c-1.3,0-2.1,1-2.1,2.2c0,1.2,0.8,2.2,2.1,2.2c1.2,0,2.1-1,2.1-2.2C14.5,104.8,13.7,103.8,12.4,103.8z"/>
	<path class="st0" d="M17.4,102.2h2v4.4c0,0.9,0.5,1.5,1.6,1.5c1,0,1.6-0.6,1.6-1.5v-4.4h2v4.5c0,1.9-1.1,3.2-3.6,3.2
		c-2.4,0-3.6-1.3-3.6-3.2V102.2z"/>
	<path class="st0" d="M28.9,107.3h-1v2.5h-2v-7.6h3.8c1.7,0,2.6,1.1,2.6,2.5c0,1.3-0.8,2-1.5,2.3l1.5,2.8h-2.2L28.9,107.3z
		 M29.5,103.9h-1.5v1.6h1.5c0.5,0,0.9-0.3,0.9-0.8C30.4,104.2,30,103.9,29.5,103.9z"/>
	<path class="st0" d="M35.4,105.4v4.4h-2v-7.6h2l3.1,4.2v-4.2h2v7.6h-1.9L35.4,105.4z"/>
	<path class="st0" d="M46.6,108.7h-3l-0.4,1.1h-2.2l2.9-7.6h2.5l2.9,7.6H47L46.6,108.7z M44.2,107h1.9l-1-2.9L44.2,107z"/>
	<path class="st0" d="M49.8,102.2h2v5.9h3v1.7h-5V102.2z"/>
	<path class="st0" d="M62.4,102.1c2.3,0,4,1.6,4,3.9c0,2.3-1.7,3.9-4,3.9c-2.3,0-4.1-1.6-4.1-3.9C58.3,103.7,60.1,102.1,62.4,102.1z
		 M62.4,103.8c-1.3,0-2.1,1-2.1,2.2c0,1.2,0.8,2.2,2.1,2.2c1.2,0,2.1-1,2.1-2.2C64.4,104.8,63.6,103.8,62.4,103.8z"/>
	<path class="st0" d="M67.4,102.2H73v1.7h-3.6v1.2h3.5v1.7h-3.5v3h-2V102.2z"/>
	<path class="st0" d="M76.9,102.2h3.8c1.7,0,2.6,1.1,2.6,2.5c0,1.4-0.9,2.5-2.6,2.5h-1.8v2.5h-2V102.2z M80.5,103.9h-1.6v1.6h1.6
		c0.5,0,0.9-0.3,0.9-0.8C81.4,104.2,81,103.9,80.5,103.9z"/>
	<path class="st0" d="M84.2,102.2h5.6v1.7h-3.6v1.2h3.5v1.7h-3.5v1.3h3.6v1.7h-5.6V102.2z"/>
	<path class="st0" d="M92.6,103.9h-2.1v-1.7h6.2v1.7h-2.1v5.9h-2V103.9z"/>
	<path class="st0" d="M100.6,107.3h-1v2.5h-2v-7.6h3.8c1.7,0,2.6,1.1,2.6,2.5c0,1.3-0.8,2-1.5,2.3l1.5,2.8h-2.2L100.6,107.3z
		 M101.1,103.9h-1.5v1.6h1.5c0.5,0,0.9-0.3,0.9-0.8C102.1,104.2,101.6,103.9,101.1,103.9z"/>
	<path class="st0" d="M108.8,102.1c2.3,0,4,1.6,4,3.9c0,2.3-1.7,3.9-4,3.9c-2.3,0-4.1-1.6-4.1-3.9
		C104.7,103.7,106.5,102.1,108.8,102.1z M108.8,103.8c-1.3,0-2.1,1-2.1,2.2c0,1.2,0.8,2.2,2.1,2.2c1.2,0,2.1-1,2.1-2.2
		C110.9,104.8,110.1,103.8,108.8,103.8z"/>
	<path class="st0" d="M113.8,102.2h2v5.9h3v1.7h-5V102.2z"/>
	<path class="st0" d="M119.8,102.2h5.6v1.7h-3.6v1.2h3.5v1.7h-3.5v1.3h3.6v1.7h-5.6V102.2z"/>
	<path class="st0" d="M126.5,102.2h2v4.4c0,0.9,0.5,1.5,1.6,1.5c1,0,1.6-0.6,1.6-1.5v-4.4h2v4.5c0,1.9-1.1,3.2-3.6,3.2
		c-2.4,0-3.6-1.3-3.6-3.2V102.2z"/>
	<path class="st0" d="M141.7,104.9l-1.9,4.9h-0.9l-1.9-4.9v4.9h-2v-7.6h2.7l1.6,4.1l1.6-4.1h2.7v7.6h-2V104.9z"/>
	<path class="st0" d="M149.6,103.9h-2.1v-1.7h6.2v1.7h-2.1v5.9h-2V103.9z"/>
	<path class="st0" d="M154.6,102.2h5.6v1.7h-3.6v1.2h3.5v1.7h-3.5v1.3h3.6v1.7h-5.6V102.2z"/>
	<path class="st0" d="M160.9,106c0-2.3,1.8-3.9,4.1-3.9c1.8,0,2.8,1,3.3,2l-1.7,0.8c-0.3-0.6-0.9-1.1-1.6-1.1c-1.2,0-2.1,1-2.1,2.2
		c0,1.2,0.9,2.2,2.1,2.2c0.7,0,1.4-0.5,1.6-1.1l1.7,0.8c-0.5,1-1.5,2-3.3,2C162.7,109.9,160.9,108.3,160.9,106z"/>
	<path class="st0" d="M174.3,106.8h-3.1v3h-2v-7.6h2v2.8h3.1v-2.8h2v7.6h-2V106.8z"/>
	<path class="st0" d="M179.5,105.4v4.4h-2v-7.6h2l3.1,4.2v-4.2h2v7.6h-1.9L179.5,105.4z"/>
	<path class="st0" d="M189.7,102.1c2.3,0,4,1.6,4,3.9c0,2.3-1.7,3.9-4,3.9s-4.1-1.6-4.1-3.9C185.6,103.7,187.3,102.1,189.7,102.1z
		 M189.7,103.8c-1.3,0-2.1,1-2.1,2.2c0,1.2,0.8,2.2,2.1,2.2c1.2,0,2.1-1,2.1-2.2C191.7,104.8,190.9,103.8,189.7,103.8z"/>
	<path class="st0" d="M194.7,102.2h2v5.9h3v1.7h-5V102.2z"/>
	<path class="st0" d="M204.1,102.1c2.3,0,4,1.6,4,3.9c0,2.3-1.7,3.9-4,3.9s-4.1-1.6-4.1-3.9C200,103.7,201.8,102.1,204.1,102.1z
		 M204.1,103.8c-1.3,0-2.1,1-2.1,2.2c0,1.2,0.8,2.2,2.1,2.2c1.2,0,2.1-1,2.1-2.2C206.2,104.8,205.4,103.8,204.1,103.8z"/>
	<path class="st0" d="M212.9,102.1c1.7,0,2.7,0.9,3.2,1.8l-1.6,0.9c-0.3-0.5-0.9-1-1.6-1c-1.2,0-2.1,1-2.1,2.2
		c0,1.2,0.9,2.2,2.1,2.2c0.6,0,1.1-0.2,1.4-0.5v-0.6h-1.7v-1.7h3.7v3c-0.8,0.9-1.9,1.5-3.4,1.5c-2.3,0-4.1-1.5-4.1-3.9
		S210.6,102.1,212.9,102.1z"/>
	<path class="st0" d="M219.1,106.7l-2.9-4.5h2.2l1.6,2.8l1.6-2.8h2.2l-2.9,4.5v3.1h-2V106.7z"/>
	<path class="st0" d="M7,106.2c0,0,0.1,3.6-2.8,3.6c-3,0-3.2,0-3.2,0v-1.7l2.7,0c1.5-0.1,1.6-2.4,1.6-2.4l0-3.6H7L7,106.2z"/>
</g>
</svg>
