<?xml version="1.0" encoding="utf-8"?>
<!-- Generator: Adobe Illustrator 19.2.0, SVG Export Plug-In . SVG Version: 6.00 Build 0)  -->
<svg version="1.1" xmlns="http://www.w3.org/2000/svg" xmlns:xlink="http://www.w3.org/1999/xlink" x="0px" y="0px"
	 viewBox="0 0 42 27" style="enable-background:new 0 0 42 27;" xml:space="preserve">
<style type="text/css">
	.st0{fill:#FFFFFF;}
</style>
<g id="Layer_2">
</g>
<g id="Layer_1">
	<g>
		<path class="st0" d="M38.9,22.5c0-0.6,0.5-1,1-1c0.5,0,1,0.4,1,1c0,0.6-0.5,1-1,1C39.4,23.5,38.9,23.1,38.9,22.5 M39.9,23.3
			c0.4,0,0.8-0.3,0.8-0.8c0-0.5-0.3-0.8-0.8-0.8c-0.4,0-0.8,0.3-0.8,0.8C39.1,23,39.4,23.3,39.9,23.3 M39.7,23.1h-0.2V22h0.4
			c0.3,0,0.4,0.1,0.4,0.3c0,0.2-0.1,0.3-0.3,0.3l0.3,0.5h-0.2l-0.3-0.5h-0.2V23.1z M39.9,22.5c0.1,0,0.3,0,0.3-0.2
			c0-0.1-0.1-0.2-0.2-0.2h-0.2v0.3H39.9z"/>
		<path class="st0" d="M27.4,15.8c0,0.1,0.1,0.2,0.2,0.2c0.2,0,0.4-0.1,0.4-0.3v-0.2c0,0-0.1,0.1-0.3,0.1
			C27.6,15.6,27.4,15.6,27.4,15.8z"/>
		<path class="st0" d="M24.6,15c-0.3,0-0.4,0.3-0.4,0.5c0,0.2,0.1,0.5,0.4,0.5c0.3,0,0.4-0.3,0.4-0.5C24.9,15.3,24.9,15,24.6,15z"/>
		<polygon class="st0" points="3.9,12.5 4.8,12.8 4.8,12.5 5.8,12.5 6,11.9 5.2,11.9 5.2,11.4 6.5,11.4 6.1,10.8 5.4,10.8 4.9,11.6 
			4.4,10.7 4.1,10.7 4.5,11.5 4.1,11.9 4.1,11.5 3.9,10.8 3.2,11.1 2.9,11.7 2.4,12.2 3.8,12.2 		"/>
		<path class="st0" d="M21.3,11h-0.7v0.8h0.6c0.3,0,0.8,0,0.8-0.4C22,11,21.6,11,21.3,11z"/>
		<path class="st0" d="M17.1,15c-0.2,0-0.3,0.1-0.3,0.3h0.6C17.4,15.1,17.3,15,17.1,15z"/>
		<path class="st0" d="M21,15.8c0,0.1,0.1,0.2,0.2,0.2c0.2,0,0.4-0.1,0.4-0.3v-0.2c0,0-0.1,0.1-0.3,0.1C21.1,15.6,21,15.6,21,15.8z"
			/>
		<path class="st0" d="M31,2.8c-4.5,0-8.4,2.9-9.9,6.9c-1.5-4-5.3-6.9-9.9-6.9C5.5,2.8,0.8,7.5,0.8,13.3c0,5.8,4.7,10.5,10.5,10.5
			c4.5,0,8.4-2.9,9.9-6.9c1.5,4,5.3,6.9,9.9,6.9c5.8,0,10.5-4.7,10.5-10.5C41.5,7.5,36.8,2.8,31,2.8z M16.2,16
			C16.3,16,16.3,15.9,16.2,16l0.1,0.3c-0.1,0-0.1,0-0.2,0h-0.1c-0.3,0-0.4-0.1-0.4-0.3V15h-0.2v-0.3h0.2v-0.4h0.4v0.4h0.3V15h-0.3
			v0.8C16.1,15.9,16.1,16,16.2,16z M13.5,17.8l-0.4-0.1l0,0.1h-0.3l0-0.5l0.3,0.1l0.6-0.1l-0.5,0.3L13.5,17.8z M13.2,16.2v-2.1h0.4
			v2.1H13.2z M13.3,12l-0.1-0.2h0.3l0.3-0.5v-0.8l0.2-0.4l0.2,0.4h-0.3l0.3,0.8L13.8,12H13.3z M13.9,14.7h0.4v0.2h0
			c0.1-0.1,0.2-0.3,0.5-0.3c0.3,0,0.5,0.2,0.5,0.5v1.1h-0.4v-0.9c0-0.1,0-0.3-0.3-0.3c-0.2,0-0.3,0.1-0.3,0.4v0.9h-0.4V14.7z
			 M14.9,17.4l0.2,0.3l0.5,0.3h-0.9l-0.2-0.3L14,17.4H14.9z M15.4,13.5c-0.3-0.2-0.5-0.5-0.5-0.8h1.3c0,0.1,0.1,0.2,0.2,0.3
			c0.1,0.1,0.3,0.1,0.5,0.1c0.2,0,0.3,0,0.4-0.1c0.1,0,0.2-0.1,0.2-0.2c0-0.2-0.2-0.3-0.6-0.3c-0.1,0-0.1-0.1-0.2,0
			c-0.3,0-0.6-0.1-0.8-0.2c-0.2-0.1-0.3-0.1-0.4-0.2c-0.2-0.1-0.3-0.3-0.4-0.3c-0.1-0.1-0.1-0.3-0.1-0.5c0-0.3,0.1-0.6,0.5-0.8
			c0.3-0.2,0.8-0.3,1.3-0.3c0.6,0,1,0.1,1.3,0.3c0.3,0.2,0.5,0.5,0.5,0.8h-1.3c0-0.1-0.1-0.2-0.2-0.2c-0.1-0.1-0.3-0.1-0.4-0.1
			c-0.2,0-0.3,0-0.3,0.1c-0.1,0-0.1,0.1-0.1,0.2c0,0.1,0.2,0.3,0.6,0.3c0,0,0.1,0,0.1,0c0,0,0.1,0,0.1,0c0,0,0.1,0,0.1,0
			c0.5,0.1,0.8,0.2,1,0.3c0.2,0.1,0.3,0.2,0.4,0.3c0.1,0.1,0.1,0.3,0.1,0.5c0,0.4-0.2,0.7-0.5,0.9c-0.4,0.2-0.9,0.3-1.5,0.3
			C16.2,13.8,15.7,13.7,15.4,13.5z M2.5,9.7V9.5l0.2-0.1L2.6,8.9h0.3l0,0.3l0.2,0.5v0.3H2.5l0.1-0.1L2.5,9.7z M2.1,9.1h0.3L2.3,9.5
			H2L2.1,9.1z M6.8,18.8l-0.4-0.7l0.7-1.2l0.5,0.7L6.8,18.8z M9.6,15.8l-0.1-0.3l0.2-0.3l0.1,0.3L9.6,15.8z M10.1,13.9l-0.8,1.4
			l-0.6-1.2l-0.3-0.9H7.9l-0.4-0.9H7l0.6,1.3h0.3L8,13.8l-0.9,0.5l-0.8-1.5l-0.5-0.1L6.2,14l0.6,0.7h0.9l-0.5,0.9l-0.8,0.7l0.1,0.6
			L6,17.7l-0.1,0.6l-0.5,1H4.6L3.7,18L4,16.9l-0.5-1.1l0.2-0.3l-0.3-0.3l-1.4,0.1l-0.6-0.7v-1.5l0.9-0.9l-0.5-0.3L2,11.4l-0.1-0.2
			h0.7v-0.4l-0.3-0.5h0.9l0.3-0.6h0.2L3.5,9.3l0.1-0.2l0.3,0.4h0.7L5.4,9V8.6L4.8,8.7L4.6,8.3l0.3-0.7L4.7,7.3l-0.5,1l0.2,0.3
			L4.1,9.2L3.9,8.7L3.7,8.9L3.5,8.6l0-0.5l1.1-1.5h0.9l0.3,0.6H5.4L6,7.7l0.4-1h0.9L8,5.5h3.2l0.4,0.6h2.9l0.1,0.3l2.3,0.1l0.3,0.2
			l0.9,0l0.3,0.1h-2.4l0.2,0.3l-0.9,1.1l-0.1-0.5l0.4-0.6L14.5,8l-0.7,1.3l0.3,0l-0.7,1.1h-0.4l-0.3,0.9l0.3,0.3L12.9,12l-0.3-0.6
			h-0.4L12,11.9l0.6,0.5l-0.1,0.7l-0.3,0.3l-0.8,0.4l0.4,0.7V15l-0.6,0.4l-0.3-0.8v1.1l0.3,0.4v0.5l-0.3-0.3l-0.2-0.4v-1.5l-0.1-0.4
			H10.1z M12.7,17l-0.1,0.8h-0.6l-0.1-0.3l0.2-0.1l0.5-0.5L12.7,17z M10.6,16.6v-0.4l0.9,1.2v0.3L10.6,16.6z M14.7,21.2h-0.5
			l-0.4-0.5l-0.6-0.1l-1.3,0.4l-0.3-0.3l-0.1-1.1l0.8-0.5l0.3-0.6l0.3,0.1l0.2-0.1l0.4-0.1v0.3l0.7,0.3l0.4-0.9l0.3,0.9l0.6,0.9
			l-0.3,0.7L14.7,21.2z M15.9,21.8h-0.6l0.4-0.8h0.3l-0.1,0.3h0.2L15.9,21.8z M16.3,20.7h-0.4l0.3-0.5h0.4L16.3,20.7z M17.9,15.6
			h-1.1c0,0.1,0,0.4,0.4,0.4c0.1,0,0.2-0.1,0.3-0.2h0.4c-0.1,0.4-0.4,0.5-0.7,0.5c-0.4,0-0.8-0.2-0.8-0.8c0-0.2,0.1-0.8,0.7-0.8
			C17.4,14.7,17.9,14.8,17.9,15.6L17.9,15.6z M18.9,15.1c0,0-0.1,0-0.1,0c-0.3,0-0.4,0.2-0.4,0.4v0.8h-0.4v-1.5h0.4V15h0
			c0.1-0.2,0.2-0.3,0.4-0.3c0,0,0.1,0,0.1,0V15.1z M20.5,16.2h-0.4v-0.9c0-0.1,0-0.3-0.3-0.3c-0.2,0-0.3,0.1-0.3,0.4v0.9h-0.4v-1.5
			h0.4v0.2h0c0.1-0.1,0.2-0.3,0.5-0.3c0.3,0,0.5,0.2,0.5,0.5V16.2z M22,16.2h-0.4c0-0.1,0-0.1,0-0.2c-0.1,0.1-0.2,0.2-0.5,0.2
			c-0.2,0-0.5-0.1-0.5-0.4c0-0.3,0.2-0.5,0.4-0.5l0.4-0.1c0.1,0,0.1,0,0.1-0.1c0-0.2-0.2-0.2-0.3-0.2c-0.2,0-0.2,0.1-0.2,0.2h-0.4
			c0-0.5,0.4-0.5,0.7-0.5c0.2,0,0.6,0.1,0.6,0.4v0.8C22,16.1,22,16.2,22,16.2L22,16.2z M22.9,15h-0.3v0.8c0,0.1,0,0.1,0.2,0.1
			c0,0,0.1,0,0.1,0v0.3c-0.1,0-0.1,0-0.2,0h-0.1c-0.3,0-0.4-0.1-0.4-0.3V15H22v-0.3h0.2v-0.4h0.4v0.4h0.3V15z M21.5,12.7h-0.9v1.1
			h-1.3v-3.6h2.3c1.3,0,1.6,0.8,1.6,1.2C23.3,12.2,22.6,12.7,21.5,12.7z M23.6,16.2h-0.4v-1.5h0.4V16.2z M23.6,14.5h-0.4v-0.4h0.4
			V14.5z M34.5,4.6V4.1l0.7,0.5l1,1.2l-0.7,0.7l-0.3,1.1H35L34.1,6h-0.3l-0.5-0.8h-0.5l-0.3-0.6H34.5z M32.2,5.5l0.1,0.2H33l0.5,1
			h0.3l0.4,0.8h-0.9l-0.2-0.5h-0.4l-0.2-0.4H33L32.7,6h-0.9l-0.3-0.5H32.2z M23.9,10.2h3.5v0.8h-2.1v0.6H27v0.7h-1.8v0.6h2.2v0.8
			h-3.5V10.2z M24.6,16.3c-0.4,0-0.8-0.3-0.8-0.8s0.4-0.8,0.8-0.8c0.4,0,0.8,0.3,0.8,0.8S25,16.3,24.6,16.3z M26.9,16.2h-0.4v-0.9
			c0-0.1,0-0.3-0.3-0.3c-0.2,0-0.3,0.1-0.3,0.4v0.9h-0.4v-1.5h0.4v0.2h0c0.1-0.1,0.2-0.3,0.5-0.3c0.3,0,0.5,0.2,0.5,0.5V16.2z
			 M28.5,16.2H28c0-0.1,0-0.1,0-0.2c-0.1,0.1-0.2,0.2-0.5,0.2c-0.2,0-0.5-0.1-0.5-0.4c0-0.3,0.2-0.5,0.4-0.5l0.4-0.1
			c0.1,0,0.1,0,0.1-0.1c0-0.2-0.2-0.2-0.3-0.2c-0.2,0-0.2,0.1-0.2,0.2h-0.4c0-0.5,0.4-0.5,0.7-0.5c0.2,0,0.6,0.1,0.6,0.4v0.8
			C28.4,16.1,28.4,16.2,28.5,16.2L28.5,16.2z M29,16.2h-0.4v-2.1H29V16.2z M36,16.2v0.6l-0.9,0.7l-0.4,0.5h-0.5v0.5l-0.7,0.6l0.2,1
			L33.1,20l-0.3-0.6l0.7-3.1l-0.8-0.6l-0.3-0.9l0.3-0.8h-0.3l-1.9-1.4l-0.8-1.5h-0.5l0.5,1.1h-0.2l-0.6-1.1l-0.3-0.8l0-0.7l-0.4-0.5
			l-0.2-0.9l-0.6-0.4l-0.8,0.1l-0.5,0.4l-1.1,0.5h-0.3l0.9-0.6h-0.6L25,7.9l0.2-0.3h-0.3l-0.1-0.2h0.3l-0.2-0.7l0.6-0.5L28,6.5
			l0.7-0.3L30,6.4L30.9,6h0.3l0.4,0.7l0.2-0.3H32l0.3,0.6h-0.9l-0.3,0.8l0.3,0.6h0.5l0.2,0.4l0.4-0.6l-0.3-0.7h0.7l0.3,0.7H34
			l-0.1-0.3h0.4L34.9,9h-1.6l0.2,0.4h0.6l0.2,0.2h-0.7l-0.4,0.8h-0.3v0.3l0.1,0.4l-0.4,0.5l0.3,0.7l-0.2,0l-0.3-0.6l-1.2,0l0.3,1
			l0.3,0.3v-0.3H32l-0.1,0.5l0.4,0.5l0.6,0l0.1-0.3h1.4l1,0.8v0.4H36l0.5,0.3l0,0.9L36,16.2z M34,12.8V13l-0.7-0.1H33v-0.2h0.4
			L34,12.8z M37.2,6.9h-0.5l-0.3-0.8h1l0.1,0.3L37.2,6.9z"/>
	</g>
</g>
</svg>
