<?xml version="1.0" encoding="utf-8"?>
<!-- Generator: Adobe Illustrator 21.1.0, SVG Export Plug-In . SVG Version: 6.00 Build 0)  -->
<svg version="1.1" id="Layer_1" xmlns="http://www.w3.org/2000/svg" xmlns:xlink="http://www.w3.org/1999/xlink" x="0px" y="0px"
	 viewBox="0 0 180 96.5" style="enable-background:new 0 0 180 96.5;" xml:space="preserve">
<style type="text/css">
	.st0{fill-rule:evenodd;clip-rule:evenodd;}
	.st1{fill:#FFFFFF;}
</style>
<path class="st0" d="M173.1,89.7c0,0.3,0.1,0.6,0.3,0.8c0.2,0.2,0.4,0.3,0.8,0.3c0.3,0,0.5-0.1,0.7-0.2c0.2-0.2,0.3-0.4,0.3-0.7
	c0-0.2-0.1-0.4-0.2-0.6c-0.1-0.1-0.3-0.2-0.5-0.3l-1.4-0.5c-0.5-0.2-0.9-0.5-1.2-0.8c-0.3-0.3-0.4-0.8-0.4-1.3
	c0-0.3,0.1-0.6,0.2-0.9c0.1-0.3,0.3-0.5,0.5-0.7c0.2-0.2,0.5-0.4,0.9-0.5c0.3-0.1,0.8-0.2,1.3-0.2c0.9,0,1.5,0.2,2,0.6
	c0.4,0.4,0.6,0.9,0.6,1.6v0.3h-1.7c0-0.4-0.1-0.7-0.2-0.9c-0.1-0.2-0.4-0.3-0.7-0.3c-0.2,0-0.5,0.1-0.6,0.2
	c-0.2,0.1-0.3,0.3-0.3,0.6c0,0.2,0.1,0.4,0.2,0.5c0.1,0.1,0.3,0.3,0.7,0.4l1.2,0.4c0.6,0.2,1,0.5,1.3,0.8c0.3,0.3,0.4,0.8,0.4,1.4
	c0,0.4-0.1,0.8-0.2,1c-0.1,0.3-0.3,0.5-0.6,0.7c-0.2,0.2-0.5,0.3-0.9,0.4c-0.3,0.1-0.7,0.1-1.1,0.1c-0.5,0-1-0.1-1.4-0.2
	c-0.4-0.1-0.7-0.3-0.9-0.5c-0.2-0.2-0.4-0.5-0.4-0.8c-0.1-0.3-0.1-0.6-0.1-1v-0.3h1.7V89.7"/>
<path d="M170.8,84.2c-0.1,0-0.1,0-0.2,0c-0.4,0-0.7,0.1-1,0.3c-0.3,0.2-0.5,0.5-0.7,0.9h0v-1H167v7.6h1.9v-4.5c0-0.3,0-0.5,0.1-0.6
	c0.1-0.2,0.2-0.3,0.3-0.4c0.1-0.1,0.3-0.2,0.5-0.2c0.2,0,0.3-0.1,0.5-0.1c0.1,0,0.2,0,0.3,0c0.1,0,0.2,0,0.3,0v-1.9
	C170.9,84.2,170.9,84.2,170.8,84.2z"/>
<path d="M166,88.4V88c0-0.6,0-1.1-0.1-1.6c-0.1-0.5-0.2-0.9-0.4-1.2c-0.2-0.3-0.5-0.6-0.8-0.8c-0.4-0.2-0.8-0.3-1.4-0.3
	c-0.7,0-1.2,0.1-1.6,0.3c-0.4,0.2-0.7,0.5-0.9,0.9c-0.2,0.4-0.3,0.8-0.4,1.3c-0.1,0.5-0.1,1-0.1,1.5c0,0.5,0,1,0.1,1.4
	c0,0.5,0.2,0.9,0.3,1.3c0.2,0.4,0.5,0.7,0.9,0.9c0.4,0.2,0.9,0.4,1.6,0.4c0.9,0,1.6-0.2,2-0.7c0.4-0.5,0.7-1.1,0.7-2h-1.7
	c-0.1,0.5-0.2,0.8-0.3,1.1c-0.1,0.2-0.4,0.4-0.7,0.4c-0.2,0-0.3,0-0.4-0.1c-0.1-0.1-0.2-0.2-0.3-0.4c-0.1-0.2-0.1-0.4-0.2-0.6
	c0-0.2-0.1-0.4-0.1-0.7v-0.6H166z M162.2,87c0-0.2,0-0.4,0.1-0.5c0-0.2,0.1-0.3,0.2-0.5c0.1-0.1,0.2-0.3,0.3-0.3
	c0.1-0.1,0.3-0.1,0.5-0.1c0.2,0,0.4,0,0.5,0.1c0.1,0.1,0.2,0.2,0.3,0.4c0.1,0.2,0.1,0.3,0.1,0.6c0,0.2,0,0.5,0.1,0.8h-2V87z"/>
<path d="M159.5,88.4V88c0-0.6,0-1.1-0.1-1.6c-0.1-0.5-0.2-0.9-0.4-1.2c-0.2-0.3-0.5-0.6-0.9-0.8c-0.4-0.2-0.8-0.3-1.4-0.3
	c-0.7,0-1.2,0.1-1.6,0.3c-0.4,0.2-0.7,0.5-0.9,0.9c-0.2,0.4-0.4,0.8-0.4,1.3c-0.1,0.5-0.1,1-0.1,1.5c0,0.5,0,1,0.1,1.4
	c0,0.5,0.2,0.9,0.3,1.3c0.2,0.4,0.5,0.7,0.9,0.9c0.4,0.2,0.9,0.4,1.6,0.4c0.9,0,1.6-0.2,2-0.7c0.4-0.5,0.7-1.1,0.7-2h-1.7
	c-0.1,0.5-0.2,0.8-0.3,1.1c-0.1,0.2-0.4,0.4-0.7,0.4c-0.2,0-0.3,0-0.5-0.1c-0.1-0.1-0.2-0.2-0.3-0.4c-0.1-0.2-0.1-0.4-0.2-0.6
	c0-0.2,0-0.4,0-0.7v-0.6H159.5z M155.7,87c0-0.2,0-0.4,0-0.5c0-0.2,0.1-0.3,0.2-0.5c0.1-0.1,0.2-0.3,0.3-0.3
	c0.1-0.1,0.3-0.1,0.5-0.1c0.2,0,0.4,0,0.5,0.1c0.1,0.1,0.2,0.2,0.3,0.4c0.1,0.2,0.1,0.3,0.1,0.6c0,0.2,0,0.5,0.1,0.8h-2V87z"/>
<polygon points="124.9,90.3 124.9,87.6 128.3,87.6 128.3,85.9 124.9,85.9 124.9,83.5 128.5,83.5 128.5,81.9 122.9,81.9 122.9,91.9 
	128.6,91.9 128.6,90.3 "/>
<path d="M134.8,84.7c-0.3-0.3-0.8-0.5-1.4-0.5c-0.4,0-0.8,0.1-1.1,0.3c-0.3,0.2-0.6,0.4-0.8,0.8h0v-0.9h-1.9v7.6h1.9v-5
	c0-0.8,0.3-1.3,1-1.3c0.3,0,0.5,0.1,0.6,0.2c0.1,0.2,0.2,0.4,0.2,0.8v5.2h1.9v-5.6C135.3,85.5,135.1,85,134.8,84.7z"/>
<path d="M142.3,91.5v-7.2h-1.9v0.8h0c-0.2-0.4-0.4-0.7-0.7-0.8c-0.3-0.1-0.6-0.2-0.8-0.2c-0.5,0-0.9,0.1-1.3,0.4
	c-0.3,0.2-0.6,0.5-0.7,0.9c-0.2,0.4-0.3,0.8-0.3,1.2c-0.1,0.5-0.1,0.9-0.1,1.4c0,1.4,0.2,2.4,0.6,2.9c0.4,0.6,1,0.9,1.7,0.9
	c0.3,0,0.6-0.1,0.9-0.3c0.3-0.2,0.5-0.4,0.7-0.7h0v1c0,0.4-0.1,0.7-0.2,0.9c-0.2,0.3-0.4,0.4-0.8,0.4c-0.1,0-0.2,0-0.3-0.1
	c-0.1,0-0.2-0.1-0.3-0.2c-0.2-0.1-0.3-0.3-0.3-0.6h-1.9c0,0.6,0.2,1.1,0.7,1.5c0.4,0.4,1.1,0.5,1.9,0.5c1.1,0,1.9-0.2,2.4-0.7
	C142,93.2,142.3,92.5,142.3,91.5z M140.4,89.1c0,0.3-0.1,0.5-0.2,0.7c-0.1,0.2-0.2,0.3-0.3,0.4c-0.1,0.1-0.3,0.2-0.5,0.2
	c-0.2,0-0.4-0.1-0.5-0.2c-0.1-0.1-0.2-0.3-0.3-0.4c-0.1-0.2-0.1-0.4-0.1-0.6c0-0.2,0-0.5,0-0.7c0-0.5,0-0.9,0-1.3
	c0-0.4,0.1-0.6,0.1-0.8c0.1-0.2,0.2-0.4,0.3-0.5c0.1-0.1,0.3-0.1,0.5-0.1c0.4,0,0.7,0.2,0.8,0.6c0.1,0.4,0.2,1,0.2,2
	C140.4,88.5,140.4,88.8,140.4,89.1z"/>
<rect x="143.7" y="84.4" width="1.9" height="7.6"/>
<rect x="143.7" y="81.8" width="1.9" height="1.7"/>
<path d="M152.2,84.7c-0.3-0.3-0.8-0.5-1.4-0.5c-0.4,0-0.8,0.1-1.1,0.3c-0.3,0.2-0.6,0.4-0.8,0.8h0v-0.9H147v7.6h1.9v-5
	c0-0.8,0.3-1.3,1-1.3c0.3,0,0.5,0.1,0.6,0.2c0.1,0.2,0.2,0.4,0.2,0.8v5.2h1.9v-5.6C152.7,85.5,152.6,85,152.2,84.7z"/>
<path d="M75.3,88.4V88c0-0.6,0-1.1-0.1-1.6c-0.1-0.5-0.2-0.9-0.4-1.2c-0.2-0.3-0.5-0.6-0.8-0.8c-0.4-0.2-0.8-0.3-1.4-0.3
	c-0.7,0-1.2,0.1-1.6,0.3c-0.4,0.2-0.7,0.5-0.9,0.9c-0.2,0.4-0.3,0.8-0.4,1.3c-0.1,0.5-0.1,1-0.1,1.5c0,0.5,0,1,0.1,1.4
	c0,0.5,0.2,0.9,0.3,1.3c0.2,0.4,0.5,0.7,0.9,0.9c0.4,0.2,0.9,0.4,1.6,0.4c0.9,0,1.6-0.2,2-0.7c0.4-0.5,0.7-1.1,0.7-2h-1.7
	c-0.1,0.5-0.2,0.8-0.3,1.1c-0.1,0.2-0.4,0.4-0.7,0.4c-0.2,0-0.3,0-0.5-0.1c-0.1-0.1-0.2-0.2-0.3-0.4c-0.1-0.2-0.1-0.4-0.2-0.6
	c0-0.2,0-0.4,0-0.7v-0.6H75.3z M71.5,87c0-0.2,0-0.4,0-0.5c0-0.2,0.1-0.3,0.2-0.5c0.1-0.1,0.2-0.3,0.3-0.3c0.1-0.1,0.3-0.1,0.5-0.1
	c0.2,0,0.4,0,0.5,0.1c0.1,0.1,0.2,0.2,0.3,0.4c0.1,0.2,0.1,0.3,0.1,0.6c0,0.2,0,0.5,0.1,0.8h-2V87z"/>
<path d="M79.8,85.7v-1.3h-1.1v-2.2h-1.9v2.2h-1v1.3h1V90c0,0.4,0,0.7,0.1,1c0,0.3,0.1,0.5,0.3,0.6c0.1,0.2,0.3,0.3,0.5,0.3
	c0.2,0,0.5,0.1,0.9,0.1c0.2,0,0.4,0,0.6,0c0.2,0,0.4,0,0.6,0v-1.3c-0.1,0-0.1,0-0.2,0c-0.1,0-0.2,0-0.2,0c-0.3,0-0.5-0.1-0.6-0.2
	c-0.1-0.1-0.1-0.3-0.1-0.6v-4.1H79.8z"/>
<path d="M90.7,86.4c-0.1-0.5-0.3-0.9-0.5-1.3c-0.2-0.3-0.5-0.6-0.9-0.8c-0.4-0.2-0.9-0.2-1.4-0.2c-0.6,0-1,0.1-1.4,0.3
	c-0.4,0.2-0.7,0.4-0.9,0.8c-0.2,0.3-0.4,0.7-0.5,1.2c-0.1,0.5-0.2,1.1-0.2,1.7c0,0.7,0,1.2,0.1,1.7c0.1,0.5,0.3,0.9,0.5,1.2
	c0.2,0.3,0.5,0.6,0.9,0.7c0.4,0.2,0.9,0.2,1.4,0.2c0.6,0,1-0.1,1.4-0.2c0.4-0.2,0.7-0.4,0.9-0.7c0.2-0.3,0.4-0.7,0.5-1.2
	c0.1-0.5,0.2-1.1,0.2-1.7C90.9,87.5,90.8,86.9,90.7,86.4z M88.7,90.2c-0.1,0.4-0.4,0.6-0.8,0.6c-0.2,0-0.4-0.1-0.6-0.2
	c-0.1-0.1-0.2-0.3-0.3-0.5c-0.1-0.2-0.1-0.5-0.1-0.8c0-0.3,0-0.7,0-1.1c0-0.4,0-0.7,0-1.1c0-0.3,0.1-0.6,0.1-0.8
	c0.1-0.2,0.2-0.4,0.3-0.5c0.1-0.1,0.3-0.2,0.6-0.2c0.4,0,0.7,0.2,0.8,0.6c0.2,0.4,0.2,1.1,0.2,2C88.9,89.1,88.9,89.8,88.7,90.2z"/>
<path d="M69,83.8c-0.1-0.4-0.3-0.7-0.5-1c-0.2-0.3-0.5-0.5-0.8-0.7c-0.3-0.2-0.8-0.3-1.3-0.3h-3.5v10h2v-4H66c0.5,0,0.9-0.1,1.3-0.2
	c0.4-0.1,0.7-0.3,1-0.5c0.3-0.2,0.5-0.6,0.6-0.9c0.2-0.4,0.2-0.8,0.2-1.4C69.1,84.5,69.1,84.1,69,83.8z M66.7,86.1
	c-0.2,0.2-0.6,0.4-1,0.4h-0.9v-3.1h0.8c0.5,0,0.9,0.1,1.1,0.4c0.2,0.3,0.3,0.6,0.3,1.2C67.1,85.4,67,85.8,66.7,86.1z"/>
<path d="M84.3,84.2c-0.1,0-0.1,0-0.2,0c-0.4,0-0.7,0.1-1,0.3c-0.3,0.2-0.5,0.5-0.7,0.9h0v-1h-1.9v7.6h1.9v-4.5c0-0.3,0-0.5,0.1-0.6
	c0.1-0.2,0.2-0.3,0.3-0.4c0.1-0.1,0.3-0.2,0.5-0.2c0.2,0,0.3-0.1,0.5-0.1c0.1,0,0.2,0,0.3,0c0.1,0,0.2,0,0.3,0v-1.9
	C84.4,84.2,84.3,84.2,84.3,84.2z"/>
<rect x="92" y="81.9" width="1.9" height="10"/>
<path d="M105.6,84.4v5c0,0.8-0.3,1.3-1,1.3c-0.3,0-0.5-0.1-0.6-0.2c-0.1-0.2-0.2-0.4-0.2-0.8v-5.2h-1.9V90c0,0.8,0.2,1.3,0.5,1.6
	c0.3,0.3,0.8,0.5,1.4,0.5c0.4,0,0.8-0.1,1.1-0.2c0.3-0.2,0.6-0.4,0.8-0.8h0v0.9h1.9v-7.6H105.6z"/>
<path d="M100.8,88.4V88c0-0.6,0-1.1-0.1-1.6c-0.1-0.5-0.2-0.9-0.4-1.2s-0.5-0.6-0.8-0.8c-0.4-0.2-0.8-0.3-1.4-0.3
	c-0.7,0-1.2,0.1-1.6,0.3c-0.4,0.2-0.7,0.5-0.9,0.9c-0.2,0.4-0.4,0.8-0.4,1.3c-0.1,0.5-0.1,1-0.1,1.5c0,0.5,0,1,0.1,1.4
	c0,0.5,0.2,0.9,0.3,1.3c0.2,0.4,0.5,0.7,0.9,0.9c0.4,0.2,0.9,0.4,1.6,0.4c0.9,0,1.6-0.2,2-0.7c0.4-0.5,0.7-1.1,0.7-2h-1.7
	c-0.1,0.5-0.2,0.8-0.3,1.1c-0.2,0.2-0.4,0.4-0.7,0.4c-0.2,0-0.3,0-0.5-0.1c-0.1-0.1-0.2-0.2-0.3-0.4c-0.1-0.2-0.1-0.4-0.2-0.6
	c0-0.2,0-0.4,0-0.7v-0.6H100.8z M96.9,87c0-0.2,0-0.4,0-0.5c0-0.2,0.1-0.3,0.2-0.5c0.1-0.1,0.2-0.3,0.3-0.3c0.1-0.1,0.3-0.1,0.5-0.1
	c0.2,0,0.4,0,0.5,0.1c0.1,0.1,0.2,0.2,0.3,0.4c0.1,0.2,0.1,0.3,0.1,0.6c0,0.2,0,0.5,0.1,0.8h-2V87z"/>
<path d="M117.7,84.7c-0.3-0.4-0.8-0.6-1.4-0.6c-0.5,0-0.9,0.1-1.2,0.3c-0.3,0.2-0.6,0.5-0.7,0.9h0c-0.1-0.4-0.3-0.7-0.6-0.9
	c-0.3-0.2-0.7-0.3-1.1-0.3c-0.4,0-0.8,0.1-1.1,0.2c-0.3,0.2-0.6,0.4-0.8,0.7h0v-0.8h-1.9v7.6h1.9v-5c0-0.5,0.1-0.8,0.3-1
	c0.2-0.2,0.4-0.3,0.7-0.3c0.3,0,0.5,0.1,0.6,0.3c0.1,0.2,0.2,0.4,0.2,0.7v5.3h1.9v-5c0-0.5,0.1-0.8,0.3-1c0.2-0.2,0.4-0.3,0.7-0.3
	c0.3,0,0.5,0.1,0.6,0.3c0.1,0.2,0.2,0.4,0.2,0.7v5.3h1.9v-5.5C118.2,85.7,118,85.1,117.7,84.7z"/>
<path d="M17.2,86.4c-0.1-0.5-0.3-0.9-0.5-1.3c-0.2-0.3-0.5-0.6-0.9-0.8c-0.4-0.2-0.9-0.2-1.4-0.2c-0.6,0-1,0.1-1.4,0.3
	c-0.4,0.2-0.7,0.4-0.9,0.8c-0.2,0.3-0.4,0.7-0.5,1.2c-0.1,0.5-0.2,1.1-0.2,1.7c0,0.7,0,1.2,0.1,1.7c0.1,0.5,0.3,0.9,0.5,1.2
	c0.2,0.3,0.5,0.6,0.9,0.7c0.4,0.2,0.9,0.2,1.4,0.2c0.5,0,1-0.1,1.4-0.2c0.4-0.2,0.7-0.4,0.9-0.7c0.2-0.3,0.4-0.7,0.5-1.2
	c0.1-0.5,0.2-1.1,0.2-1.7C17.3,87.5,17.3,86.9,17.2,86.4z M15.2,90.2c-0.1,0.4-0.4,0.6-0.8,0.6c-0.2,0-0.4-0.1-0.6-0.2
	c-0.1-0.1-0.2-0.3-0.3-0.5c-0.1-0.2-0.1-0.5-0.1-0.8c0-0.3,0-0.7,0-1.1c0-0.4,0-0.7,0-1.1c0-0.3,0.1-0.6,0.1-0.8
	c0.1-0.2,0.2-0.4,0.3-0.5c0.1-0.1,0.3-0.2,0.6-0.2c0.4,0,0.7,0.2,0.8,0.6c0.2,0.4,0.2,1.1,0.2,2C15.4,89.1,15.3,89.8,15.2,90.2z"/>
<rect x="25" y="84.4" width="1.9" height="7.6"/>
<rect x="25" y="81.8" width="1.9" height="1.7"/>
<path d="M42.5,84.4l-1,5.2h0l-1.1-5.2h-2l2.1,7.6c0,0.3-0.1,0.6-0.3,0.7c-0.2,0.2-0.4,0.3-0.8,0.3c-0.2,0-0.3,0-0.5,0v1.4h0.8
	c0.4,0,0.8,0,1.1-0.1c0.3-0.1,0.5-0.2,0.8-0.4c0.2-0.2,0.4-0.5,0.5-0.9c0.2-0.4,0.3-0.9,0.5-1.5l1.8-7.1H42.5z"/>
<path d="M57.8,83.2c0.1-0.1,0.3-0.1,0.6-0.1h0.2c0.1,0,0.1,0,0.2,0v-1.4c-0.3,0-0.7,0-1,0c-0.3,0-0.6,0-0.8,0.1
	c-0.3,0.1-0.5,0.2-0.6,0.3c-0.2,0.1-0.3,0.3-0.4,0.6c-0.1,0.2-0.1,0.5-0.1,0.9v0.9h-1v1.3h1v6.2h1.9v-6.2h1.1v-1.3h-1.1v-0.7
	C57.6,83.5,57.7,83.3,57.8,83.2z"/>
<path d="M7.2,92.1c1.1,0,1.9-0.2,2.6-0.7c0.6-0.5,0.9-1.3,0.9-2.3c0-0.3,0-0.6-0.1-0.8c-0.1-0.3-0.2-0.5-0.3-0.7
	c-0.1-0.2-0.3-0.4-0.6-0.6c-0.2-0.2-0.6-0.4-0.9-0.5l-1.6-0.7c-0.4-0.2-0.7-0.4-0.8-0.6c-0.1-0.2-0.2-0.5-0.2-0.8c0-0.2,0-0.3,0-0.4
	c0-0.1,0.1-0.3,0.2-0.4c0.1-0.1,0.2-0.2,0.4-0.3c0.1-0.1,0.3-0.1,0.6-0.1c0.4,0,0.7,0.1,0.8,0.4c0.2,0.3,0.3,0.6,0.3,1.1h1.9v-0.3
	c0-0.5-0.1-0.9-0.2-1.2c-0.2-0.3-0.4-0.6-0.6-0.8c-0.3-0.2-0.6-0.4-1-0.5c-0.4-0.1-0.8-0.1-1.2-0.1c-1,0-1.7,0.2-2.3,0.7
	c-0.6,0.5-0.8,1.2-0.8,2.2c0,0.4,0.1,0.8,0.2,1.1c0.1,0.3,0.3,0.6,0.5,0.8C5,86.8,5.3,87,5.6,87.2c0.3,0.2,0.7,0.3,1.2,0.5
	c0.3,0.1,0.6,0.2,0.8,0.3c0.2,0.1,0.4,0.2,0.6,0.4c0.1,0.1,0.2,0.3,0.3,0.4c0.1,0.2,0.1,0.4,0.1,0.6c0,0.4-0.1,0.7-0.4,0.9
	c-0.2,0.2-0.5,0.3-0.8,0.3c-0.3,0-0.5,0-0.7-0.1c-0.2-0.1-0.3-0.2-0.4-0.3c-0.1-0.1-0.2-0.3-0.2-0.5C6,89.5,6,89.3,6,89.1v-0.3H4
	v0.4c0,0.9,0.2,1.6,0.7,2.1C5.2,91.8,6,92.1,7.2,92.1z"/>
<path d="M21.8,90.4c-0.1,0.3-0.4,0.4-0.7,0.4c-0.2,0-0.4,0-0.5-0.1c-0.1-0.1-0.2-0.3-0.3-0.5c-0.1-0.2-0.1-0.5-0.2-0.8
	c0-0.3,0-0.7,0-1.2c0-0.4,0-0.8,0-1.1c0-0.3,0.1-0.6,0.2-0.8c0.1-0.2,0.2-0.4,0.3-0.5c0.2-0.1,0.3-0.2,0.6-0.2c0.2,0,0.3,0,0.4,0.1
	c0.1,0.1,0.2,0.2,0.3,0.3c0.1,0.1,0.1,0.3,0.1,0.5c0,0.2,0,0.4,0,0.5h1.9c0-0.9-0.2-1.6-0.7-2.1c-0.5-0.5-1.1-0.8-2-0.8
	c-0.5,0-0.9,0.1-1.2,0.2c-0.4,0.1-0.7,0.3-1,0.6c-0.3,0.3-0.5,0.7-0.6,1.2c-0.1,0.5-0.2,1.2-0.2,1.9c0,0.8,0.1,1.4,0.2,1.9
	c0.1,0.5,0.3,0.9,0.5,1.2c0.2,0.3,0.5,0.5,0.9,0.6c0.4,0.1,0.8,0.2,1.3,0.2c1,0,1.8-0.3,2.2-0.8c0.4-0.5,0.7-1.3,0.7-2.3H22
	C22,89.6,21.9,90.1,21.8,90.4z"/>
<path d="M38.2,85.7v-1.3h-1.1v-2.2h-1.9v2.2h-1v1.3h1V90c0,0.4,0,0.7,0.1,1c0,0.3,0.1,0.5,0.3,0.6c0.1,0.2,0.3,0.3,0.5,0.3
	c0.2,0,0.5,0.1,0.9,0.1c0.2,0,0.4,0,0.6,0c0.2,0,0.4,0,0.6,0v-1.3c-0.1,0-0.1,0-0.2,0c-0.1,0-0.1,0-0.2,0c-0.3,0-0.5-0.1-0.6-0.2
	c-0.1-0.1-0.1-0.3-0.1-0.6v-4.1H38.2z"/>
<path d="M54.1,86.4c-0.1-0.5-0.3-0.9-0.5-1.3c-0.2-0.3-0.5-0.6-0.9-0.8c-0.4-0.2-0.9-0.2-1.4-0.2c-0.5,0-1,0.1-1.4,0.3
	c-0.4,0.2-0.7,0.4-0.9,0.8c-0.2,0.3-0.4,0.7-0.5,1.2c-0.1,0.5-0.2,1.1-0.2,1.7c0,0.7,0,1.2,0.1,1.7c0.1,0.5,0.3,0.9,0.5,1.2
	c0.2,0.3,0.5,0.6,0.9,0.7c0.4,0.2,0.9,0.2,1.4,0.2c0.6,0,1-0.1,1.4-0.2c0.4-0.2,0.7-0.4,0.9-0.7c0.2-0.3,0.4-0.7,0.5-1.2
	c0.1-0.5,0.2-1.1,0.2-1.7C54.2,87.5,54.2,86.9,54.1,86.4z M52.1,90.2c-0.1,0.4-0.4,0.6-0.8,0.6c-0.2,0-0.4-0.1-0.6-0.2
	c-0.1-0.1-0.2-0.3-0.3-0.5c-0.1-0.2-0.1-0.5-0.1-0.8c0-0.3,0-0.7,0-1.1c0-0.4,0-0.7,0-1.1c0-0.3,0.1-0.6,0.1-0.8
	c0.1-0.2,0.2-0.4,0.3-0.5c0.1-0.1,0.3-0.2,0.6-0.2c0.4,0,0.7,0.2,0.8,0.6c0.2,0.4,0.2,1.1,0.2,2C52.3,89.1,52.2,89.8,52.1,90.2z"/>
<path d="M33.8,88.4V88c0-0.6,0-1.1-0.1-1.6c-0.1-0.5-0.2-0.9-0.4-1.2c-0.2-0.3-0.5-0.6-0.9-0.8c-0.4-0.2-0.8-0.3-1.4-0.3
	c-0.7,0-1.2,0.1-1.6,0.3c-0.4,0.2-0.7,0.5-0.9,0.9c-0.2,0.4-0.4,0.8-0.4,1.3c-0.1,0.5-0.1,1-0.1,1.5c0,0.5,0,1,0.1,1.4
	c0,0.5,0.2,0.9,0.3,1.3c0.2,0.4,0.5,0.7,0.9,0.9c0.4,0.2,0.9,0.4,1.6,0.4c0.9,0,1.6-0.2,2-0.7c0.4-0.5,0.7-1.1,0.7-2h-1.7
	c-0.1,0.5-0.2,0.8-0.3,1.1c-0.1,0.2-0.4,0.4-0.7,0.4c-0.2,0-0.3,0-0.4-0.1c-0.1-0.1-0.2-0.2-0.3-0.4C30,90.1,30,89.9,30,89.7
	c0-0.2,0-0.4,0-0.7v-0.6H33.8z M29.9,87c0-0.2,0-0.4,0-0.5c0-0.2,0.1-0.3,0.2-0.5c0.1-0.1,0.2-0.3,0.3-0.3c0.1-0.1,0.3-0.1,0.5-0.1
	c0.2,0,0.4,0,0.5,0.1c0.1,0.1,0.2,0.2,0.3,0.4c0.1,0.2,0.1,0.3,0.1,0.6c0,0.2,0,0.5,0.1,0.8h-2V87z"/>
<path class="st0" d="M123.4,2c-15.2,0-28.1,9.6-33.1,23.1C85.4,11.6,72.5,2,57.3,2C37.9,2,22.1,17.7,22.1,37.2
	c0,19.4,15.8,35.2,35.2,35.2c15.2,0,28.1-9.6,33.1-23.1c4.9,13.5,17.9,23.1,33.1,23.1c19.4,0,35.2-15.7,35.2-35.2
	C158.6,17.7,142.8,2,123.4,2"/>
<path d="M152.6,68.2h0.7l1,1.6h0.6l-1.1-1.6c0.5-0.1,1-0.4,1-1c0-0.7-0.4-1.1-1.3-1.1H152v3.7h0.6V68.2z M152.6,66.6h0.8
	c0.4,0,0.8,0.1,0.8,0.5c0,0.6-0.4,0.6-0.9,0.6h-0.7V66.6z"/>
<path d="M153.3,71.2c1.8,0,3.3-1.4,3.3-3.3c0-1.9-1.5-3.2-3.3-3.2c-1.8,0-3.3,1.4-3.3,3.2C150,69.8,151.5,71.2,153.3,71.2z
	 M153.3,65.3c1.5,0,2.6,1.2,2.6,2.7c0,1.6-1.2,2.7-2.6,2.7c-1.5,0-2.6-1.1-2.6-2.7C150.6,66.4,151.8,65.3,153.3,65.3z"/>
<polygon class="st1" points="103,18.1 103.9,18.1 103.2,19 103.9,20.2 105.8,20.2 102.8,22.2 103.8,22.2 107.3,20.4 109.1,19 
	111.6,18.8 113.8,20.2 114.5,23.1 115.8,24.6 115.7,26.9 116.6,29.6 118.6,33.2 119.2,33.2 117.4,29.6 119,29.6 121.5,34.5 
	128,39.3 129.1,39.3 128.2,42 129.1,44.9 131.8,46.9 129.5,57.4 130.4,59.5 132.4,60.3 131.8,57 134.1,54.8 134.1,53.1 135.8,53.1 
	137.1,51.3 140.3,49.1 140.3,46.9 142.1,45.5 142,42.3 140.3,41.5 138.5,41.5 138.5,40.2 135.1,37.4 130.3,37.4 129.8,38.3 
	127.7,38.2 126.3,36.4 126.8,34.7 125.7,34.7 125.7,35.6 124.6,34.7 123.7,31.5 127.7,31.6 128.9,33.6 129.5,33.5 128.6,31.2 
	130,29.6 129.8,28.3 129.8,27.1 130.9,27.1 132.2,24.6 134.5,24.6 133.8,24 131.8,24 131.1,22.7 136.5,22.7 134.7,19 133.3,19 
	133.6,19.9 130.9,19.9 129.8,17.5 127.5,17.5 128.6,19.8 127.4,21.9 126.6,20.7 125.1,20.7 123.9,18.8 124.8,16.1 127.7,16.1 
	126.8,13.9 126.2,13.9 125.5,15 124.2,12.5 123,12.5 120.1,14.1 115.7,13.2 113.4,14.3 104.9,13.7 103,15.2 103.8,17.5 102.6,17.5 
	"/>
<polygon class="st1" points="129.5,9.9 131.1,9.9 132.7,12.5 133.8,12.5 136.8,17.9 137.6,17.9 138.8,14.3 141.1,12 137.6,7.9 
	135.3,6.2 135.3,7.9 128.6,7.9 "/>
<polygon class="st1" points="133.6,35.9 133.6,35.4 131.3,34.7 130,34.7 130,35.4 131.3,35.4 "/>
<polygon class="st1" points="131.8,14.8 130,11.4 128,11.4 127.5,10.8 125.3,10.8 126.3,12.5 129.3,12.5 130.3,14.3 128.2,14.3 
	128.9,15.7 130.4,15.7 131.1,17.5 134.2,17.5 132.9,14.8 "/>
<polygon class="st1" points="142.6,15.7 144.4,15.7 145.2,14.1 144.9,13.2 141.5,13.2 "/>
<polygon class="st1" points="31.2,43.3 32.1,44.4 31.4,45.3 33,48.9 31.9,52.8 34.8,57.4 37.7,57.4 39.2,54 39.5,51.9 41.2,48.9 
	41,46.9 43.8,44.6 45.3,41.7 42.4,41.7 40.4,39.3 38.8,35 40.6,35.2 43.3,40.2 46.5,38.6 45.9,37.9 45.1,37.9 42.9,33.6 44.5,33.6 
	45.9,36.8 47.9,36.8 48.8,39.7 50.9,43.7 53.4,39.1 54.7,39.1 55.2,40.3 55.2,45.5 55.9,46.9 56.8,48.1 56.8,46.4 55.9,45.2 
	55.9,41.5 57,44.1 59,42.9 59,41.1 57.6,38.8 60.2,37.4 61.3,36.4 61.6,34.1 59.7,32.3 60.2,30.5 61.7,30.5 62.8,32.7 63.5,31.6 
	62.6,30.5 63.5,27.5 64.9,27.5 67.1,23.7 66,23.6 68.3,19.3 72.4,16.8 71,18.8 71.3,20.4 74.2,16.6 73.6,15.5 81.8,15.5 80.6,15 
	77.5,14.8 76.3,14.1 68.7,13.7 68.3,12.8 58.7,12.8 57.2,10.8 46.5,10.8 43.9,14.8 41,14.8 39.8,18.1 37.5,16.6 38.8,16.6 38,14.6 
	35.1,14.6 31.4,19.5 31.2,21.3 31.9,22.5 32.5,21.5 33.4,23.3 34.3,21.3 33.6,20.4 35.4,17 35.9,18.1 35.1,20.4 35.7,21.5 
	37.7,21.3 37.7,22.7 34.8,24.5 32.5,24.5 31.6,23.1 31.4,23.6 31.9,24.6 31.2,24.6 30.4,26.6 27.4,26.6 28.4,28.3 28.4,29.8 
	26,29.8 26.3,30.5 26,32.5 27.6,33.5 29.3,31.8 30.1,29.6 32.5,28.7 33.4,30.9 33.4,32.3 34.5,30.9 33.4,28.3 34.3,28.3 35.9,31.2 
	37.7,28.5 40,28.5 41.2,30.5 36.8,30.5 37.1,32.3 39.8,32.3 38.8,34.4 35.7,34.4 35.7,35.2 32.5,34.4 32.3,33.2 27.6,33.5 
	24.5,36.5 24.5,41.5 26.4,43.7 "/>
<polygon class="st1" points="27.6,23.1 26.7,23.1 26.3,24.5 27.2,24.5 "/>
<polygon class="st1" points="45.1,51.3 43.3,49.1 41,53.1 42.4,55.4 "/>
<polygon class="st1" points="66.6,26.5 66,27.8 66,30.3 64.9,32.1 63.7,32.1 64,32.7 65.8,32.7 67.1,30.3 66.3,27.8 67.4,27.8 "/>
<polygon class="st1" points="59,63 63.5,61.8 65.5,62.1 66.9,63.7 68.7,63.7 70.3,61.8 71.2,59.5 69.2,56.3 68.1,53.1 66.6,56.3 
	64.2,55.4 64.2,54.5 62.8,54.8 62.2,55.2 61.3,54.8 60.4,57 57.6,58.6 57.9,62.1 "/>
<polygon class="st1" points="29.8,25.7 29.8,24.6 29.2,23.1 29.3,22.2 28.3,22.2 28.7,24 28.1,24.2 28.1,25.1 28.4,25.4 28.1,25.7 
	"/>
<polygon class="st1" points="73.6,64.2 73,64.2 73.4,63 72.4,63 71,65.6 73,65.6 "/>
<polygon class="st1" points="51.4,44.4 51.8,45.3 52.5,44.1 52.1,43.3 "/>
<polygon class="st1" points="55,48.2 56.7,50.3 57.5,50.3 57.5,50.2 55,46.9 "/>
<polygon class="st1" points="69.2,52.8 72.1,52.8 70.3,51.6 69.6,50.7 66.4,50.7 68.4,51.6 "/>
<polygon class="st1" points="75.3,60.1 73.9,60.1 73,61.8 74.2,61.8 "/>
<polygon class="st1" points="57.5,50.3 56.7,50.3 58.1,52 58.1,51 57.5,50.2 "/>
<polygon class="st1" points="59.7,50.7 59,51.1 59.5,52.3 61.6,52.3 61.9,49.6 61.3,48.9 "/>
<polygon class="st1" points="63.5,50.7 62.6,50.5 62.4,52.3 63.4,52.3 63.5,51.9 64.9,52.3 64,51.3 65.5,50.5 "/>
<path class="st1" d="M67.5,43.9c0-0.8,0.5-1.2,1.1-1.2c0.9,0,0.9,0.6,0.9,1v3.1h1.4v-3.5c0-1.1-0.8-1.7-1.8-1.7
	c-1,0-1.4,0.6-1.5,0.9h0v-0.8h-1.3v5.1h1.4V43.9z"/>
<path class="st1" d="M81.4,44.2c0-0.6,0.2-1.2,1.2-1.2c0.1,0,0.3,0,0.4,0v-1.4c-0.1,0-0.2,0-0.3,0c-0.8,0-1.1,0.5-1.4,1h0v-0.9H80
	v5.1h1.4V44.2z"/>
<path class="st1" d="M77,41.6c-2.2,0-2.5,2-2.5,2.6c0,2.1,1.1,2.8,2.6,2.8c0.9,0,1.9-0.4,2.3-1.6H78c-0.1,0.4-0.5,0.6-0.9,0.6
	c-1.1,0-1.2-0.9-1.2-1.3h3.5v-0.2C79.4,42.1,78,41.6,77,41.6z M75.9,43.8c0.1-0.7,0.4-1.1,1.1-1.1c0.4,0,1,0.3,1,1.1H75.9z"/>
<path class="st1" d="M91.3,43.7l-1.2,0.2c-0.9,0.1-1.5,0.6-1.5,1.6c0,1.1,0.8,1.5,1.6,1.5c0.9,0,1.4-0.4,1.7-0.7
	c0,0.3,0,0.4,0.1,0.6h1.5v-0.2c-0.2-0.1-0.3-0.2-0.3-0.8v-2.8c0-1.3-1.3-1.5-2-1.5c-1.1,0-2.1,0.2-2.3,1.8h1.3
	c0-0.3,0.2-0.7,0.8-0.7c0.3,0,0.9,0,0.9,0.6C91.8,43.6,91.5,43.7,91.3,43.7z M91.8,45c0,0.6-0.6,1-1.2,1c-0.3,0-0.6-0.1-0.6-0.6
	c0-0.6,0.4-0.7,0.9-0.8c0.6-0.1,0.8-0.2,0.9-0.3V45z"/>
<path class="st1" d="M94.1,45.8c0,0.7,0.2,1.1,1.4,1.1h0.2c0.2,0,0.4,0,0.6,0v-1c-0.1,0-0.2,0-0.3,0c-0.6,0-0.6-0.1-0.6-0.4v-2.8
	h0.8v-1h-0.8v-1.4h-1.4v1.4h-0.7v1h0.7V45.8z"/>
<path class="st1" d="M101.9,47c1.4,0,2.6-0.8,2.6-2.7c0-1.9-1.2-2.7-2.6-2.7c-1.4,0-2.6,0.8-2.6,2.7C99.3,46.2,100.5,47,101.9,47z
	 M101.9,42.8c1,0,1.2,0.9,1.2,1.6s-0.2,1.6-1.2,1.6c-1,0-1.2-0.9-1.2-1.6S100.8,42.8,101.9,42.8z"/>
<path class="st1" d="M112.8,43.7l-1.2,0.2c-0.9,0.1-1.5,0.6-1.5,1.6c0,1.1,0.8,1.5,1.6,1.5c0.9,0,1.4-0.4,1.7-0.7
	c0,0.3,0,0.4,0.1,0.6h1.5v-0.2c-0.2-0.1-0.3-0.2-0.3-0.8v-2.8c0-1.3-1.3-1.5-2-1.5c-1.1,0-2.1,0.2-2.3,1.8h1.3
	c0-0.3,0.2-0.7,0.8-0.7c0.3,0,0.9,0,0.9,0.6C113.3,43.6,113.1,43.7,112.8,43.7z M113.3,45c0,0.6-0.6,1-1.2,1c-0.3,0-0.6-0.1-0.6-0.6
	c0-0.6,0.4-0.7,0.9-0.8c0.6-0.1,0.8-0.2,0.9-0.3V45z"/>
<rect x="63.9" y="40" class="st1" width="1.4" height="6.9"/>
<path class="st1" d="M73.4,40.4H72v1.4h-0.7v1H72v3.1c0,0.7,0.2,1.1,1.4,1.1h0.2c0.2,0,0.4,0,0.6,0v-1c-0.1,0-0.2,0-0.3,0
	c-0.5,0-0.6-0.1-0.6-0.4v-2.8h0.8v-1h-0.8V40.4z"/>
<path class="st1" d="M86.4,41.6c-1,0-1.4,0.6-1.5,0.9h0v-0.8h-1.3v5.1h1.4v-2.9c0-0.8,0.5-1.2,1.1-1.2c0.9,0,0.9,0.6,0.9,1v3.1h1.4
	v-3.5C88.1,42.2,87.4,41.6,86.4,41.6z"/>
<rect x="97.2" y="39.9" class="st1" width="1.4" height="1.3"/>
<rect x="97.2" y="41.8" class="st1" width="1.4" height="5.1"/>
<path class="st1" d="M107.9,41.6c-1,0-1.4,0.6-1.5,0.9h0v-0.8H105v5.1h1.4v-2.9c0-0.8,0.5-1.2,1.1-1.2c0.9,0,0.9,0.6,0.9,1v3.1h1.4
	v-3.5C109.7,42.2,108.9,41.6,107.9,41.6z"/>
<rect x="115.5" y="40" class="st1" width="1.4" height="6.9"/>
<path class="st1" d="M77.3,35.8c-0.3,0.2-0.8,0.3-1.4,0.3c-0.6,0-1.2-0.1-1.6-0.3c-0.3-0.2-0.6-0.5-0.7-0.9h-4.4
	c0.1,1.2,0.8,2.2,1.8,2.8c1.2,0.7,2.7,1,4.6,1c2,0,3.6-0.3,4.9-1c1.1-0.7,1.7-1.7,1.7-3c0-0.5-0.2-1.1-0.5-1.5
	c-0.3-0.4-0.7-0.8-1.4-1.1c-0.6-0.3-1.8-0.7-3.4-0.9c-0.2-0.1-0.3-0.1-0.5-0.1c-0.1,0-0.3-0.1-0.4-0.1c0,0-0.1,0-0.2,0
	c-1.3-0.2-2-0.6-2-1.1c0-0.3,0.2-0.6,0.4-0.7c0.2-0.1,0.6-0.2,1.2-0.2c0.5,0,1.1,0,1.4,0.3c0.3,0.1,0.5,0.4,0.6,0.8h4.2
	c-0.1-1.1-0.7-2-1.8-2.6c-1-0.6-2.5-1-4.4-1c-1.9,0-3.4,0.3-4.5,1C70,28,69.6,28.8,69.6,30c0,0.6,0.1,1.1,0.3,1.6
	c0.2,0.3,0.7,0.8,1.3,1.1c0.3,0.2,0.8,0.3,1.4,0.5c0.7,0.2,1.7,0.4,2.6,0.6c0.2,0,0.4,0,0.6,0.2c1.3,0.2,2.1,0.6,2.1,1.1
	C77.8,35.4,77.6,35.7,77.3,35.8z"/>
<polygon class="st1" points="111.5,35.6 104.1,35.6 104.1,33.5 110,33.5 110,31 104.1,31 104.1,29.1 111.1,29.1 111.1,26.5 
	99.6,26.5 99.6,38.3 111.5,38.3 "/>
<path class="st1" d="M88.7,34.9h2.9c3.8,0,5.9-1.5,5.9-4.2c0-1.4-1.2-4.1-5.5-4.1h-7.8v12h4.5V34.9z M88.7,29.5H91
	c1,0,2.4,0,2.4,1.3c0,1.4-1.6,1.4-2.6,1.4h-1.9V29.5z"/>
</svg>
