<svg id="Layer_1" data-name="Layer 1" xmlns="http://www.w3.org/2000/svg" viewBox="0 0 221.37 41.14"><defs><style>.cls-1,.cls-3{fill:none;stroke-miterlimit:10;}.cls-1{stroke:#231f20;stroke-width:0.75px;}.cls-2{fill:#ed1c24;}.cls-3{stroke:#fcee10;stroke-width:2.19px;}.cls-4{fill:#fcee10;}.cls-5{fill:#fff;}</style></defs><title>Untitled-1</title><line class="cls-1" x1="0.78" y1="26.03" x2="219.46" y2="26.03"/><rect class="cls-2" x="0.02" y="25.76" width="221.35" height="5.14"/><line class="cls-3" x1="0.55" y1="7.08" x2="220.74" y2="7.08"/><path class="cls-4" d="M2.61,1.77H5.39q1.95,0,1.95,1V3.36a0.91,0.91,0,0,1-.73.94,8.28,8.28,0,0,1-1.95.15V6.27H2.61V1.77ZM4.67,3.68H5q0.51,0,.51-0.27V2.8q0-.27-0.51-0.27H4.67V3.68Z" transform="translate(-2.01 -1.68)"/><path class="cls-4" d="M10.27,1.77h2.34a5,5,0,0,1,2,.24A1.12,1.12,0,0,1,15,3.09a0.63,0.63,0,0,1-.29.56,2.06,2.06,0,0,1-1,.23,2.46,2.46,0,0,1,1,.23,0.63,0.63,0,0,1,.3.58V6.27h-2V4.56c0-.26-0.18-0.39-0.54-0.39l-0.25,0V6.27H10.27V1.77Zm2.05,1.72h0.16q0.63,0,.63-0.32V2.81q0-.32-0.63-0.31H12.33v1Z" transform="translate(-2.01 -1.68)"/><path class="cls-4" d="M18.15,3.07q0-1.39,2.53-1.39t2.53,1.39V5q0,1.39-2.53,1.39T18.15,5V3.07Zm2.12,2.24q0,0.3.4,0.3t0.4-.3V2.73q0-.3-0.4-0.3t-0.4.3V5.31Z" transform="translate(-2.01 -1.68)"/><path class="cls-4" d="M26.22,5.48h0.37q0.48,0,.48-0.36V1.77h2.12V5.48q0,0.79-1.63.79H26.22V5.48Z" transform="translate(-2.01 -1.68)"/><path class="cls-4" d="M32.21,1.77h3.59V2.68H34.33V3.51H35.7V4.38H34.33v1h1.58V6.27h-3.7V1.77Z" transform="translate(-2.01 -1.68)"/><path class="cls-4" d="M43.75,5.07a1,1,0,0,1-.69,1,4.25,4.25,0,0,1-1.84.33Q38.8,6.37,38.81,5V3.07a1.13,1.13,0,0,1,.64-1,3.91,3.91,0,0,1,1.87-.36q2.44,0,2.43,1.27V3.58H41.63a3.1,3.1,0,0,1,0-.31q0-.21,0-0.31a0.91,0.91,0,0,0-.09-0.45,0.89,0.89,0,0,0-.3-0.08,0.32,0.32,0,0,0-.35.3V5.31a0.35,0.35,0,0,0,.1.23l0.24,0.07c0.27,0,.41-0.22.41-0.67,0-.05,0-0.26,0-0.6h2.12V5.07Z" transform="translate(-2.01 -1.68)"/><path class="cls-4" d="M47.71,2.68H46.45V1.77h4.64V2.68H49.83V6.27H47.71V2.68Z" transform="translate(-2.01 -1.68)"/><path class="cls-4" d="M56.16,2.4a0.3,0.3,0,0,0-.33.18,1.17,1.17,0,0,0,0,.31,0.87,0.87,0,0,0,.72.5,7.51,7.51,0,0,1,1.36.55,1.44,1.44,0,0,1,.72,1.27q0,1.15-2.47,1.15a4.4,4.4,0,0,1-1.75-.25,0.94,0.94,0,0,1-.57-0.92V4.63h2c0,0.29,0,.45,0,0.47q0,0.55.4,0.55a0.36,0.36,0,0,0,.4-0.42,0.93,0.93,0,0,0-.71-0.77l-1.32-.54a1.24,1.24,0,0,1-.71-1.12q0-1.11,2.34-1.12a3.69,3.69,0,0,1,1.9.33,1.23,1.23,0,0,1,.41,1.08h-1.9V2.81A0.35,0.35,0,0,0,56.16,2.4Z" transform="translate(-2.01 -1.68)"/><path class="cls-4" d="M74.44,2.4a0.3,0.3,0,0,0-.33.18,1.17,1.17,0,0,0,0,.31,0.87,0.87,0,0,0,.72.5,7.49,7.49,0,0,1,1.36.55,1.44,1.44,0,0,1,.72,1.27q0,1.15-2.47,1.15a4.4,4.4,0,0,1-1.75-.25,0.94,0.94,0,0,1-.57-0.92V4.63h2c0,0.29,0,.45,0,0.47q0,0.55.4,0.55a0.36,0.36,0,0,0,.4-0.42,0.93,0.93,0,0,0-.71-0.77l-1.32-.54a1.24,1.24,0,0,1-.71-1.12q0-1.11,2.34-1.12a3.69,3.69,0,0,1,1.9.33,1.23,1.23,0,0,1,.41,1.08h-1.9V2.81A0.35,0.35,0,0,0,74.44,2.4Z" transform="translate(-2.01 -1.68)"/><path class="cls-4" d="M79.59,1.77h2l0.61,1.78,0.54-1.78h2a9.57,9.57,0,0,0-1.07,1.87,5.35,5.35,0,0,0-.54,2.07,1.8,1.8,0,0,0,.08.56H81.12a1.67,1.67,0,0,0,.08-0.55,5.18,5.18,0,0,0-.51-2A10,10,0,0,0,79.59,1.77Z" transform="translate(-2.01 -1.68)"/><path class="cls-4" d="M89.76,2.4a0.3,0.3,0,0,0-.33.18,1.17,1.17,0,0,0,0,.31,0.87,0.87,0,0,0,.72.5,7.5,7.5,0,0,1,1.36.55,1.44,1.44,0,0,1,.72,1.27q0,1.15-2.47,1.15A4.4,4.4,0,0,1,88,6.12a0.94,0.94,0,0,1-.57-0.92V4.63h2c0,0.29,0,.45,0,0.47,0,0.37.13,0.55,0.4,0.55a0.36,0.36,0,0,0,.4-0.42,0.92,0.92,0,0,0-.71-0.77l-1.32-.54a1.24,1.24,0,0,1-.71-1.12q0-1.11,2.34-1.12a3.69,3.69,0,0,1,1.9.33,1.23,1.23,0,0,1,.41,1.08h-1.9V2.81A0.35,0.35,0,0,0,89.76,2.4Z" transform="translate(-2.01 -1.68)"/><path class="cls-4" d="M96.19,2.68H94.93V1.77h4.64V2.68H98.31V6.27H96.19V2.68Z" transform="translate(-2.01 -1.68)"/><path class="cls-4" d="M102.39,1.77H106V2.68h-1.47V3.51h1.37V4.38h-1.37v1h1.58V6.27h-3.7V1.77Z" transform="translate(-2.01 -1.68)"/><path class="cls-4" d="M109,1.77h2.83l0.55,2.63,0.52-2.63h2.86v4.5h-1.8V2.93L113,6.27h-1.35l-0.89-3.34V6.27H109V1.77Z" transform="translate(-2.01 -1.68)"/><path class="cls-4" d="M121,2.4a0.3,0.3,0,0,0-.33.18,1.14,1.14,0,0,0,0,.31,0.87,0.87,0,0,0,.72.5,7.49,7.49,0,0,1,1.35.55,1.44,1.44,0,0,1,.72,1.27q0,1.15-2.47,1.15a4.4,4.4,0,0,1-1.75-.25,0.93,0.93,0,0,1-.57-0.92V4.63h2c0,0.29,0,.45,0,0.47q0,0.55.4,0.55a0.36,0.36,0,0,0,.4-0.42,0.92,0.92,0,0,0-.71-0.77l-1.32-.54a1.24,1.24,0,0,1-.71-1.12q0-1.11,2.34-1.12a3.69,3.69,0,0,1,1.9.33,1.23,1.23,0,0,1,.41,1.08h-1.9V2.81A0.35,0.35,0,0,0,121,2.4Z" transform="translate(-2.01 -1.68)"/><path class="cls-4" d="M138.09,2.68h-1.26V1.77h4.64V2.68h-1.26V6.27h-2.12V2.68Z" transform="translate(-2.01 -1.68)"/><path class="cls-4" d="M144.29,1.77h3.59V2.68h-1.47V3.51h1.37V4.38h-1.37v1H148V6.27h-3.7V1.77Z" transform="translate(-2.01 -1.68)"/><path class="cls-4" d="M155.84,5.07a1,1,0,0,1-.69,1,4.25,4.25,0,0,1-1.84.33q-2.42,0-2.42-1.39V3.07a1.13,1.13,0,0,1,.64-1,3.9,3.9,0,0,1,1.87-.36q2.43,0,2.43,1.27V3.58h-2.12c0-.07,0-0.17,0-0.31a3.07,3.07,0,0,0,0-.31,0.93,0.93,0,0,0-.09-0.45,0.9,0.9,0,0,0-.3-0.08,0.32,0.32,0,0,0-.35.3V5.31a0.35,0.35,0,0,0,.1.23l0.24,0.07q0.41,0,.41-0.67,0-.08,0-0.6h2.12V5.07Z" transform="translate(-2.01 -1.68)"/><path class="cls-4" d="M158.77,1.77h2.12V3.41h0.81V1.77h2.12v4.5H161.7V4.39h-0.81V6.27h-2.12V1.77Z" transform="translate(-2.01 -1.68)"/><path class="cls-4" d="M166.87,1.77h1.8L169.88,4V1.77h1.82v4.5h-1.8l-1.2-2.51,0,2.51h-1.8V1.77Z" transform="translate(-2.01 -1.68)"/><path class="cls-4" d="M174.75,3.07q0-1.39,2.53-1.39t2.53,1.39V5q0,1.39-2.53,1.39T174.75,5V3.07Zm2.12,2.24c0,0.2.13,0.3,0.4,0.3s0.4-.1.4-0.3V2.73q0-.3-0.4-0.3c-0.27,0-.4.1-0.4,0.3V5.31Z" transform="translate(-2.01 -1.68)"/><path class="cls-4" d="M182.85,1.77H185V5.4h1.41V6.27h-3.53V1.77Z" transform="translate(-2.01 -1.68)"/><path class="cls-4" d="M189.23,3.07q0-1.39,2.53-1.39t2.53,1.39V5q0,1.39-2.53,1.39T189.23,5V3.07Zm2.12,2.24c0,0.2.13,0.3,0.4,0.3s0.4-.1.4-0.3V2.73c0-.2-0.14-0.3-0.4-0.3s-0.4.1-.4,0.3V5.31Z" transform="translate(-2.01 -1.68)"/><path class="cls-4" d="M202.38,6.27H201L200.83,6a2.82,2.82,0,0,1-1.6.41,2.32,2.32,0,0,1-1.49-.4,1.12,1.12,0,0,1-.42-0.91v-2q0-1.39,2.57-1.39a3.13,3.13,0,0,1,2.09.47,1.82,1.82,0,0,1,.32,1.28h-2.12l0-.48a0.79,0.79,0,0,0-.09-0.44l-0.28-.08a0.32,0.32,0,0,0-.39.33V5.24a0.34,0.34,0,0,0,.42.35,0.33,0.33,0,0,0,.39-0.35V4.49h-0.44V3.85h2.56V6.27Z" transform="translate(-2.01 -1.68)"/><path class="cls-4" d="M205.39,1.77h2.12v4.5h-2.12V1.77Z" transform="translate(-2.01 -1.68)"/><path class="cls-4" d="M210.52,1.77h3.59V2.68h-1.46V3.51H214V4.38h-1.37v1h1.58V6.27h-3.7V1.77Z" transform="translate(-2.01 -1.68)"/><path class="cls-4" d="M219.38,2.4a0.3,0.3,0,0,0-.33.18,1.23,1.23,0,0,0,0,.31,0.87,0.87,0,0,0,.72.5,7.53,7.53,0,0,1,1.36.55,1.45,1.45,0,0,1,.72,1.27q0,1.15-2.47,1.15a4.4,4.4,0,0,1-1.75-.25A0.93,0.93,0,0,1,217,5.19V4.63h2c0,0.29,0,.45,0,0.47,0,0.37.13,0.55,0.4,0.55a0.36,0.36,0,0,0,.4-0.42,0.92,0.92,0,0,0-.71-0.77l-1.32-.54A1.24,1.24,0,0,1,217,2.79q0-1.11,2.34-1.12a3.69,3.69,0,0,1,1.9.33,1.23,1.23,0,0,1,.41,1.08h-1.9V2.81A0.35,0.35,0,0,0,219.38,2.4Z" transform="translate(-2.01 -1.68)"/><path class="cls-5" d="M10,12.46q-8,0-8,9V33.8q0,9,8,9t8-9V21.48Q18.07,12.46,10,12.46ZM11.33,36q0,1.92-1.29,1.92T8.76,36V19.27q0-1.92,1.28-1.92t1.29,1.92V36Z" transform="translate(-2.01 -1.68)"/><path class="cls-5" d="M19.79,13.07v3.67h6.53V13.07H19.79Zm0,5.22V42.21h6.53V18.3H19.79Z" transform="translate(-2.01 -1.68)"/><path class="cls-5" d="M28,13.07V42.21h6.53V13.07H28Z" transform="translate(-2.01 -1.68)"/><path class="cls-5" d="M53.12,26.5v4.17h1.39v4.89q0,2.24-1.24,2.25t-1.32-2.29v-16q0-2.16,1.25-2.16l0.88,0.49a9.55,9.55,0,0,1,.3,2.81l-0.07,3.14H61q0-6.24-1-8.29-1.5-3.06-6.64-3.06-8.18,0-8.17,9V34.33a11.49,11.49,0,0,0,1.32,5.92,5.14,5.14,0,0,0,4.73,2.57,6,6,0,0,0,5.1-2.65l0.52,2h4.4V26.5H53.12Z" transform="translate(-2.01 -1.68)"/><path class="cls-5" d="M75.62,19.16q-1.75-1.47-5.39-1.47t-5.39,1.59Q63,21,63,25v2.53h6c-0.09-1.88-.14-2.88-0.15-3q0-3.18,1.14-3.19a1,1,0,0,1,.77.45,1.63,1.63,0,0,1,.33,1v3q0,1.35-2.13,2.36a39.83,39.83,0,0,0-3.88,2A5.07,5.07,0,0,0,63,34.49v3.23a5.83,5.83,0,0,0,1.1,3.69,3.72,3.72,0,0,0,3.11,1.41,5.71,5.71,0,0,0,4.14-2v1.35h6.31V24.74Q77.64,20.87,75.62,19.16ZM71.12,37.07A1,1,0,0,1,70,38.29q-1,0-1-1.34V34.46a4.4,4.4,0,0,1,2.09-3.63v6.24Z" transform="translate(-2.01 -1.68)"/><path class="cls-5" d="M91.54,29.76a20.88,20.88,0,0,0-4.07-2.65q-2.16-1.19-2.16-2.41a7.4,7.4,0,0,1,.11-1.55,0.89,0.89,0,0,1,.92-0.82c0.75,0,1.1.7,1,2.08V26h6q0-4.49-1.54-6.41t-5.53-1.92q-7.08,0-7.08,7.14a7.37,7.37,0,0,0,2.09,5.47,29.38,29.38,0,0,0,3.93,2.61q2.09,1.22,2.09,2.65a5.73,5.73,0,0,1-.29,2.21l-0.88.41Q85,38.17,85,35.8c0-.27,0-0.66.06-1.16s0.05-.85.05-1h-6v2.61q0,6.61,6.93,6.61,3.81,0,5.65-1.51,2.05-1.76,2.05-5.88A7.58,7.58,0,0,0,91.54,29.76Z" transform="translate(-2.01 -1.68)"/><path class="cls-5" d="M115.37,18.95V13.07H104V42.21h6.75V29.93h4V24.3h-4V18.95h4.62Z" transform="translate(-2.01 -1.68)"/><path class="cls-5" d="M129,19.16q-1.76-1.47-5.39-1.47t-5.39,1.59Q116.32,21,116.32,25v2.53h6c-0.09-1.88-.14-2.88-0.14-3,0-2.12.37-3.19,1.13-3.19a1,1,0,0,1,.77.45,1.61,1.61,0,0,1,.33,1v3q0,1.35-2.13,2.36a40.56,40.56,0,0,0-3.89,2,5.07,5.07,0,0,0-2.13,4.28v3.23a5.83,5.83,0,0,0,1.1,3.69,3.72,3.72,0,0,0,3.11,1.41,5.73,5.73,0,0,0,4.15-2v1.35H131V24.74Q131,20.87,129,19.16Zm-4.51,17.91a1,1,0,0,1-1.1,1.22q-1,0-1-1.34V34.46a4.4,4.4,0,0,1,2.09-3.63v6.24Z" transform="translate(-2.01 -1.68)"/><path class="cls-5" d="M141.62,33.44c0,1,.06,1.61.06,1.71q0,3.26-1.3,3.26c-0.77,0-1.16-.63-1.16-1.87V23.48q0-1.38,1.06-1.38t1.17,2.69c0,0.33,0,.76,0,1.31,0,0.12,0,.24,0,0.34h6.25a12.28,12.28,0,0,0-1.42-6.14q-1.69-2.61-5.9-2.61a7.47,7.47,0,0,0-5.5,2,7.91,7.91,0,0,0-2.13,5.92v9.3a7.94,7.94,0,0,0,2.16,6,7.93,7.93,0,0,0,5.64,1.92q7.37,0,7.37-9.3V33.44h-6.26Z" transform="translate(-2.01 -1.68)"/><path class="cls-5" d="M149.1,13.07v3.67h6.52V13.07H149.1Zm0,5.22V42.21h6.52V18.3H149.1Z" transform="translate(-2.01 -1.68)"/><path class="cls-5" d="M157.34,13.07V42.21h6.52V13.07h-6.52Z" transform="translate(-2.01 -1.68)"/><path class="cls-5" d="M165.59,13.07v3.67h6.52V13.07h-6.52Zm0,5.22V42.21h6.52V18.3h-6.52Z" transform="translate(-2.01 -1.68)"/><path class="cls-5" d="M183,22.22V18.3h-1.72V14.62h-6.75V18.3h-1.36v3.92h1.36V36.58q0,3.23,1,4.43t3.87,1.2H183V38.29a3.8,3.8,0,0,1-1.43-.2,1.22,1.22,0,0,1-.29-0.77V22.22H183Z" transform="translate(-2.01 -1.68)"/><path class="cls-5" d="M184.14,13.07v3.67h6.53V13.07h-6.53Zm0,5.22V42.21h6.53V18.3h-6.53Z" transform="translate(-2.01 -1.68)"/><path class="cls-5" d="M207.35,30.62v-5a8.11,8.11,0,0,0-2-5.81,7.06,7.06,0,0,0-5.37-2.1,7.51,7.51,0,0,0-5.54,2,7.94,7.94,0,0,0-2.05,5.88v9.3a8,8,0,0,0,2.12,6,7.61,7.61,0,0,0,5.53,2,7,7,0,0,0,5.39-2,8.26,8.26,0,0,0,1.91-5.9V32.46H201q0.11,2.24.11,2.65,0,3.31-1.22,3.3c-0.68,0-1-.51-1-1.55V30.62h8.43Zm-8.43-7q0-1.55,1-1.55T201,23.77V26.7h-2.12V23.64Z" transform="translate(-2.01 -1.68)"/><path class="cls-5" d="M220.95,29.76a20.86,20.86,0,0,0-4.07-2.65q-2.16-1.19-2.16-2.41a7.38,7.38,0,0,1,.11-1.55,0.89,0.89,0,0,1,.92-0.82c0.76,0,1.1.7,1,2.08V26h6q0-4.49-1.54-6.41t-5.53-1.92q-7.08,0-7.08,7.14a7.36,7.36,0,0,0,2.09,5.47,29.07,29.07,0,0,0,3.92,2.61q2.09,1.22,2.09,2.65a5.74,5.74,0,0,1-.29,2.21l-0.88.41q-1.17,0-1.17-2.37c0-.27,0-0.66.06-1.16s0.05-.85.05-1h-6v2.61q0,6.61,6.93,6.61,3.81,0,5.64-1.51,2.05-1.76,2.05-5.88A7.58,7.58,0,0,0,220.95,29.76Z" transform="translate(-2.01 -1.68)"/><path class="cls-4" d="M36.33,30.59L36,31.6H35.57l1.1-3.21h0.49l1.09,3.21H37.81l-0.34-1H36.33Zm1.06-.32-0.32-.92C37,29.13,37,28.94,36.9,28.76h0c0,0.19-.09.39-0.16,0.58l-0.31.93h1Z" transform="translate(-2.01 -1.68)"/><path class="cls-4" d="M38.73,31.6V28.39h0.46l1,1.62a9,9,0,0,1,.57,1h0c0-.43,0-0.82,0-1.32V28.39h0.39V31.6H40.72L39.7,30a9.49,9.49,0,0,1-.6-1.07h0c0,0.4,0,.79,0,1.32V31.6H38.73Z" transform="translate(-2.01 -1.68)"/><path class="cls-4" d="M41.86,28.44a5.28,5.28,0,0,1,.88-0.07,1.86,1.86,0,0,1,1.3.4,1.46,1.46,0,0,1,.46,1.15A1.72,1.72,0,0,1,44,31.17a2,2,0,0,1-1.42.46,6.59,6.59,0,0,1-.75,0V28.44Zm0.41,2.84,0.42,0a1.23,1.23,0,0,0,1.37-1.36,1.14,1.14,0,0,0-1.3-1.24,2.3,2.3,0,0,0-.48,0v2.54Z" transform="translate(-2.01 -1.68)"/></svg>