<?xml version="1.0" encoding="utf-8"?>
<!-- Generator: Adobe Illustrator 19.2.1, SVG Export Plug-In . SVG Version: 6.00 Build 0)  -->
<svg version="1.1" id="Layer_1" xmlns="http://www.w3.org/2000/svg" xmlns:xlink="http://www.w3.org/1999/xlink" x="0px" y="0px"
	 viewBox="0 0 486 54" style="enable-background:new 0 0 486 54;" xml:space="preserve">
<style type="text/css">
	.st0{fill:#FFFFFF;}
	.st1{fill:#49C2C6;}
</style>
<polygon class="st0" points="80.4,46.5 80.4,29.4 107.6,29.3 107.6,22.9 80.5,22.9 80.5,7.1 109.5,7.1 109.5,1.1 72.2,1.1 72.2,22 
	46.9,22.1 46.9,1.1 2,1.1 2,7.2 18.8,7.2 18.8,52.7 26,52.7 26,7.3 39.9,7.3 39.9,52.6 46.9,52.6 46.9,28.3 72.1,28.3 72.1,52.6 
	110.8,52.7 110.8,46.5 "/>
<polygon class="st1" points="170.5,1.1 165.1,29.4 157.4,1.2 142.1,1.2 134.1,29.4 128.7,1.4 113.4,1.4 124.9,52.5 140.9,52.5 
	149.6,20.8 158.7,52.5 174.5,52.5 185.7,1.1 "/>
<path class="st1" d="M193.9,52.5l2.6-8.2h17.6l2.6,8.2h17L214.5,1.2h-17.8l-19,51.2H193.9z M205.5,15l5.4,17.9h-11L205.5,15z"/>
<polygon class="st1" points="256.2,1.1 246,18.5 235.9,1.2 217.9,1.2 238,31.8 238,52.2 254,52.2 254,31 273.9,1.1 "/>
<path class="st0" d="M265.7,52.5l5.1-15h21.9l5.8,14.9h8L286,1.1h-8.2l-19.6,51.5L265.7,52.5z M281.5,7l9,24.5h-17L281.5,7z"/>
<path class="st0" d="M306.8,1l0.1,51.6h6.9V28.5H339v24h43.8l5.2-15.1h21.9l5.6,15.2h31.4c0,0,6.6-0.1,13-5.6s6.5-20.6,6.5-20.6
	s0.4-11-5.4-18.2s-13.9-7-13.9-7h-23.2v51.2L402.9,1h-8l-17.2,45.6h-30.2V29.2h27.1l0-6.3h-27.2V7.3l29.1,0l0-6.1l-37.5,0l0,21.1
	l-25.2,0V1H306.8z M430.6,7.5h14.2c0,0,5.4-0.5,9.9,4c1.9,2.8,4.5,5.5,4.5,14.5c0,10.9-2.6,13.8-5,16.5c-3,3.6-8.8,4-8.8,4h-14.9
	V7.5z M398.5,6.9l9,24.5h-17L398.5,6.9z"/>
<path class="st0" d="M466.6,2.3v-1h7.4v1H471v8.2h-1.2V2.3H466.6L466.6,2.3z M476.8,1.2l2.9,7.8l2.9-7.8h1.7v9.3h-1.2V2.8h0
	l-2.9,7.7h-1.1l-2.9-7.7h0v7.7h-1.2V1.2H476.8L476.8,1.2z"/>
</svg>
