<?xml version="1.0" encoding="utf-8"?>
<!-- Generator: Adobe Illustrator 21.1.0, SVG Export Plug-In . SVG Version: 6.00 Build 0)  -->
<svg version="1.1" id="Layer_1" xmlns="http://www.w3.org/2000/svg" xmlns:xlink="http://www.w3.org/1999/xlink" x="0px" y="0px"
	 viewBox="0 0 400 60" style="enable-background:new 0 0 400 60;" xml:space="preserve">
<style type="text/css">
	.st0{fill:#1D427D;}
	.st1{fill:#EC9D2B;}
	.st2{fill-rule:evenodd;clip-rule:evenodd;fill:#1D427D;}
	.st3{fill:#FFFFFF;}
</style>
<path class="st0" d="M163.3,26.4v-0.1c0-6.4-5-9.1-12-11c-3.4-1.1-4.4-1.7-4.4-2.7v-0.1c0-0.8,0.8-1.5,2.4-1.5
	c2.9,0,6.2,1.3,8.7,3.1l5-7.7c-3.9-3-8.3-4.2-13.5-4.2c-8.4,0-13.3,4.7-13.3,11.2v0.2c0,6.6,5.3,9,12.2,11.1c3.2,1,4.2,1.6,4.2,2.6
	v0.1c0,0.9-0.8,1.6-2.7,1.6c-3.2,0-6.9-1.3-10.2-3.8l-5.1,7.6c4.2,3.4,9.5,5.1,15.2,4.9C157.9,37.7,163.3,33.3,163.3,26.4z"/>
<polygon class="st0" points="220.7,37.3 220.7,28.2 205.7,28.2 205.7,24.1 219.4,24.1 219.4,15.8 205.7,15.8 205.7,11.8 220.4,11.8 
	220.4,2.8 195.2,2.8 195.2,37.3 "/>
<path class="st1" d="M276.7,49c-3.2-1.2-3.9-2-3.9-3.5v-0.1c0-1.4,1.3-2.6,3.2-2.6c1.4,0,2.7,0.5,4,1.6l1.1-1.4
	c-1.5-1.3-3.1-1.9-5.1-1.9c-3,0-5.1,2-5.1,4.5c0,2.3,1.4,3.6,4.9,4.9c3,1.1,3.7,2,3.7,3.4c0,1.6-1.4,2.8-3.4,2.8
	c-1.9,0-3.3-0.8-4.7-2.1l-1.1,1.4c1.8,1.7,3.7,2.4,5.9,2.5c3,0,5.2-1.9,5.2-4.6C281.4,51.6,280.1,50.3,276.7,49z"/>
<rect x="284.8" y="41.3" class="st1" width="1.8" height="16.9"/>
<polygon class="st1" points="303.1,41.3 301.3,41.3 301.3,54.6 292.5,41.3 290.8,41.3 290.8,58.2 292.6,58.2 292.6,44.6 301.6,58.2 
	303.1,58.2 "/>
<path class="st1" d="M313.9,56.8c-3.1,0-5.5-2.9-5.5-7v-0.1c0-4.1,2.4-6.9,5.5-6.9c1.7,0,2.9,0.8,4,1.8l1.1-1.4
	c-1.3-1.3-2.8-2.1-5.1-2.1c-4.2,0-7.4,3.5-7.4,8.6v0.1c0,5.2,3.1,8.6,7.3,8.7c2.4,0,4-0.9,5.4-2.3l-1.1-1.3
	C316.9,56.1,315.6,56.8,313.9,56.8z"/>
<polygon class="st1" points="323.8,56.5 323.8,50.5 331.4,50.5 331.4,48.8 323.8,48.8 323.8,43 332.3,43 332.3,41.3 322,41.3 
	322,58.2 332.4,58.2 332.4,56.5 "/>
<polygon class="st0" points="223.4,37.2 239,37.2 253.9,20 239,2.8 223.4,2.8 238.3,20 "/>
<polygon class="st0" points="260.7,20 245.8,37.2 261.5,37.2 276.4,20 261.5,2.8 245.8,2.8 "/>
<path class="st0" d="M135.3,50.3c0,0.9,0.7,1.6,1.6,1.6c0.9,0,1.6-0.7,1.6-1.6c0-0.9-0.7-1.6-1.6-1.6
	C136,48.7,135.3,49.4,135.3,50.3z"/>
<path class="st0" d="M143.2,51.9c0.9,0,1.6-0.7,1.6-1.6c0-0.9-0.7-1.6-1.6-1.6c-0.9,0-1.6,0.7-1.6,1.6S142.3,51.9,143.2,51.9z"/>
<path class="st0" d="M149.6,51.9c0.9,0,1.6-0.7,1.6-1.6c0-0.9-0.7-1.6-1.6-1.6s-1.6,0.7-1.6,1.6S148.7,51.9,149.6,51.9z"/>
<path class="st0" d="M155.9,51.9c0.9,0,1.6-0.7,1.6-1.6c0-0.9-0.7-1.6-1.6-1.6c-0.9,0-1.6,0.7-1.6,1.6S155,51.9,155.9,51.9z"/>
<path class="st0" d="M162.3,51.9c0.9,0,1.6-0.7,1.6-1.6c0-0.9-0.7-1.6-1.6-1.6c-0.9,0-1.6,0.7-1.6,1.6S161.4,51.9,162.3,51.9z"/>
<path class="st0" d="M168.6,51.9c0.9,0,1.6-0.7,1.6-1.6c0-0.9-0.7-1.6-1.6-1.6s-1.6,0.7-1.6,1.6S167.7,51.9,168.6,51.9z"/>
<path class="st0" d="M174.9,51.9c0.9,0,1.6-0.7,1.6-1.6c0-0.9-0.7-1.6-1.6-1.6c-0.9,0-1.6,0.7-1.6,1.6S174,51.9,174.9,51.9z"/>
<path class="st0" d="M181.3,51.9c0.9,0,1.6-0.7,1.6-1.6c0-0.9-0.7-1.6-1.6-1.6s-1.6,0.7-1.6,1.6S180.4,51.9,181.3,51.9z"/>
<path class="st0" d="M187.6,51.9c0.9,0,1.6-0.7,1.6-1.6c0-0.9-0.7-1.6-1.6-1.6s-1.6,0.7-1.6,1.6S186.7,51.9,187.6,51.9z"/>
<path class="st0" d="M194,51.9c0.9,0,1.6-0.7,1.6-1.6c0-0.9-0.7-1.6-1.6-1.6c-0.9,0-1.6,0.7-1.6,1.6S193.1,51.9,194,51.9z"/>
<path class="st0" d="M200.3,51.9c0.9,0,1.6-0.7,1.6-1.6c0-0.9-0.7-1.6-1.6-1.6s-1.6,0.7-1.6,1.6S199.4,51.9,200.3,51.9z"/>
<path class="st0" d="M206.6,51.9c0.9,0,1.6-0.7,1.6-1.6c0-0.9-0.7-1.6-1.6-1.6s-1.6,0.7-1.6,1.6S205.7,51.9,206.6,51.9z"/>
<path class="st0" d="M213,51.9c0.9,0,1.6-0.7,1.6-1.6c0-0.9-0.7-1.6-1.6-1.6c-0.9,0-1.6,0.7-1.6,1.6S212.1,51.9,213,51.9z"/>
<path class="st0" d="M219.3,51.9c0.9,0,1.6-0.7,1.6-1.6c0-0.9-0.7-1.6-1.6-1.6s-1.6,0.7-1.6,1.6S218.4,51.9,219.3,51.9z"/>
<path class="st0" d="M225.7,51.9c0.9,0,1.6-0.7,1.6-1.6c0-0.9-0.7-1.6-1.6-1.6c-0.9,0-1.6,0.7-1.6,1.6S224.8,51.9,225.7,51.9z"/>
<path class="st0" d="M232,51.9c0.9,0,1.6-0.7,1.6-1.6c0-0.9-0.7-1.6-1.6-1.6c-0.9,0-1.6,0.7-1.6,1.6S231.1,51.9,232,51.9z"/>
<path class="st0" d="M238.3,51.9c0.9,0,1.6-0.7,1.6-1.6c0-0.9-0.7-1.6-1.6-1.6s-1.6,0.7-1.6,1.6S237.4,51.9,238.3,51.9z"/>
<path class="st0" d="M244.7,51.9c0.9,0,1.6-0.7,1.6-1.6c0-0.9-0.7-1.6-1.6-1.6c-0.9,0-1.6,0.7-1.6,1.6S243.8,51.9,244.7,51.9z"/>
<path class="st0" d="M251,51.9c0.9,0,1.6-0.7,1.6-1.6c0-0.9-0.7-1.6-1.6-1.6c-0.9,0-1.6,0.7-1.6,1.6S250.1,51.9,251,51.9z"/>
<path class="st0" d="M257.4,51.9c0.9,0,1.6-0.7,1.6-1.6c0-0.9-0.7-1.6-1.6-1.6c-0.9,0-1.6,0.7-1.6,1.6S256.5,51.9,257.4,51.9z"/>
<path class="st0" d="M265.3,50.3c0-0.9-0.7-1.6-1.6-1.6c-0.9,0-1.6,0.7-1.6,1.6s0.7,1.6,1.6,1.6C264.6,51.9,265.3,51.2,265.3,50.3z"
	/>
<path class="st1" d="M391.9,46.5c-0.6,0-1.2-0.3-1.7-0.7l-0.6,0.8c0.6,0.5,1.4,0.8,2.4,0.8c1.1,0,2-0.7,2-1.7c0-0.9-0.7-1.4-1.8-1.8
	c-0.9-0.3-1.2-0.5-1.2-0.9s0.3-0.7,0.9-0.7c0.5,0,1,0.3,1.4,0.6l0.6-0.8c-0.6-0.4-1.3-0.7-2-0.7c-1.2,0-2,0.7-2,1.7s0.7,1.4,1.8,1.8
	c0.9,0.3,1.1,0.5,1.1,0.9C392.8,46.2,392.5,46.5,391.9,46.5z"/>
<polygon class="st1" points="400,47.3 400,41.5 398.9,41.5 397.5,44.1 396.1,41.5 395,41.5 395,47.4 396,47.4 396,43.3 397.5,46 
	397.6,46 398.9,43.2 398.9,47.3 "/>
<path class="st1" d="M370.3,28.1V24h14.4v-8.3h-14.4v-3.9h15.5V2.7h-26.5v5c-2.9-3.5-7-5.7-12.7-5.7c-6.3,0-11.8,3.1-14.8,8.3V2.7
	H303V12h8.8v25.2H323V12h7.9c-1,2.2-1.5,4.8-1.5,7.6v0.8c0,11,7.8,17.5,16.7,17.4c6.4,0,10.5-2.6,13.2-5.9v5.3H386v-9.1H370.3z
	 M352.6,24.5c-1.2,1.8-2.8,3.4-5.7,3.4c-3.4,0-6.1-2.5-6.1-8v-0.2c0-5,2.5-7.9,6-7.9c2.8,0,4.5,1.6,5.6,3.3l6.9-6.1v21.2L352.6,24.5
	z"/>
<path class="st1" d="M272.7,37.2h11.6l1.5-4.9H296l1.6,4.9h11.8L296.9,2.5h-11.7L272.7,37.2z M291,15.4l2.7,9h-5.4L291,15.4z"/>
<polygon class="st1" points="345.3,41.2 344,41.2 340.5,42.5 340.8,44.1 343.6,43.1 343.6,58.2 345.3,58.2 "/>
<path class="st1" d="M357.7,42.6c-0.9-1-2.1-1.5-3.7-1.5c-3,0-5.3,2.4-5.3,5.7c0,3.2,2.2,5.2,5.1,5.2c1.8,0,3.2-0.9,4.1-2.3
	c0,4-1.6,7.1-4.4,7.2c-1.3,0-2.3-0.5-3.4-1.4l-0.9,1.4c1.3,1.1,2.6,1.7,4.3,1.7c3.7,0,6.2-3.5,6.2-9.2v-0.2
	C359.7,45.6,358.9,43.8,357.7,42.6z M354.2,50.5c-2.1,0-3.5-1.5-3.5-3.8c0-2.2,1.3-4,3.4-4c2.2,0,3.6,1.7,3.6,4
	C357.7,48.8,356.2,50.5,354.2,50.5z"/>
<path class="st1" d="M364.2,56.5l4.2-4.8c2.4-2.5,3.4-3.9,3.4-6.1v-0.1c0-2.6-2-4.5-4.7-4.5c-2.4,0-3.9,1.1-5.2,3l1.3,1.1
	c1.1-1.6,2.3-2.4,3.8-2.4c1.7,0,3,1.1,3,3c0,1.6-0.8,2.8-2.8,5l-5.4,6.1h-0.1v1.4h10.2v-1.7H364.2z"/>
<path class="st1" d="M383.3,41.2h-1.5l0,0L373.6,53l0.3,1.3h7.7v3.9h1.7v-3.9h2.2v-1.5h-2.2V41.2z M381.6,52.7h-6l6-8.7V52.7z"/>
<path class="st0" d="M176.3,37.4v-9.6h2.7c7.8,0,14.2-4,14.2-12.5V15c0-8.3-5.8-12.2-14.3-12.2h-13.2v34.6H176.3z M176.3,11.5h2.2
	c2.6,0,4.2,1.3,4.2,4v0.2c0,2.7-1.8,4-4.3,4h-2.1C176.3,19.7,176.3,11.5,176.3,11.5z"/>
<g>
	<path class="st2" d="M80.7,2C68.6,2,58.3,9.7,54.4,20.4C50.4,9.7,40.1,2,28,2C12.5,2,0,14.5,0,30c0,15.5,12.5,28,28,28
		c12.1,0,22.4-7.7,26.3-18.4C58.3,50.3,68.6,58,80.7,58c15.5,0,28-12.5,28-28C108.7,14.5,96.2,2,80.7,2"/>
	<path class="st0" d="M103.9,54.7h0.5l0.8,1.3h0.5l-0.8-1.3c0.4-0.1,0.8-0.3,0.8-0.8c0-0.6-0.3-0.8-1.1-0.8h-1.1v3h0.5V54.7z
		 M103.9,53.4h0.6c0.3,0,0.6,0.1,0.6,0.4c0,0.5-0.3,0.5-0.7,0.5h-0.5V53.4z"/>
	<path class="st0" d="M104.5,57.1c1.4,0,2.6-1.1,2.6-2.6c0-1.5-1.2-2.6-2.6-2.6c-1.4,0-2.6,1.1-2.6,2.6
		C101.8,56,103,57.1,104.5,57.1z M104.5,52.4c1.2,0,2.1,0.9,2.1,2.1c0,1.2-0.9,2.2-2.1,2.2c-1.2,0-2.1-0.9-2.1-2.2
		C102.4,53.3,103.3,52.4,104.5,52.4z"/>
	<polygon class="st3" points="64.4,14.9 65.1,14.9 64.6,15.6 65.1,16.5 66.7,16.5 64.3,18.1 65,18.1 67.9,16.7 69.3,15.6 71.3,15.3 
		73,16.5 73.6,18.8 74.6,20 74.5,21.8 75.2,23.9 76.8,26.9 77.4,26.9 75.9,23.9 77.1,23.9 79.2,27.9 84.3,31.7 85.2,31.7 84.5,33.8 
		85.2,36.2 87.4,37.8 85.5,46.2 86.2,47.8 87.9,48.5 87.4,45.8 89.2,44 89.2,42.7 90.6,42.7 91.6,41.3 94.2,39.5 94.2,37.8 
		95.6,36.7 95.5,34.1 94.2,33.4 92.7,33.4 92.7,32.4 90,30.2 86.2,30.2 85.8,30.9 84.1,30.8 83,29.4 83.4,28.1 82.5,28.1 82.5,28.8 
		81.6,28.1 80.9,25.5 84.1,25.6 85.1,27.2 85.5,27.1 84.8,25.3 85.9,23.9 85.8,22.9 85.8,22 86.7,22 87.7,20 89.5,20 89,19.5 
		87.4,19.5 86.9,18.5 91.1,18.5 89.7,15.6 88.6,15.6 88.8,16.3 86.7,16.3 85.8,14.3 83.9,14.3 84.8,16.2 83.8,17.9 83.2,16.9 
		82,16.9 81.1,15.3 81.8,13.2 84.1,13.2 83.4,11.5 82.9,11.5 82.3,12.3 81.3,10.4 80.4,10.4 78.1,11.6 74.5,10.9 72.7,11.8 
		65.9,11.3 64.4,12.5 65,14.3 64.1,14.3 	"/>
	<polygon class="st3" points="85.5,8.3 86.9,8.3 88.1,10.4 89,10.4 91.3,14.6 92,14.6 92.9,11.8 94.8,10 92,6.7 90.2,5.3 90.2,6.7 
		84.8,6.7 	"/>
	<polygon class="st3" points="88.8,29 88.8,28.6 87,28.1 85.9,28.1 85.9,28.6 87,28.6 	"/>
	<polygon class="st3" points="87.4,12.2 85.9,9.5 84.3,9.5 83.9,9 82.2,9 83,10.4 85.4,10.4 86.2,11.8 84.5,11.8 85.1,12.9 
		86.2,12.9 86.9,14.3 89.3,14.3 88.3,12.2 	"/>
	<polygon class="st3" points="95.9,12.9 97.4,12.9 98.1,11.6 97.8,10.9 95.1,10.9 	"/>
	<polygon class="st3" points="7.3,34.9 8,35.8 7.4,36.5 8.7,39.4 7.8,42.4 10.1,46.2 12.4,46.2 13.6,43.4 13.8,41.7 15.2,39.4 
		15.1,37.8 17.3,36 18.5,33.6 16.2,33.6 14.5,31.7 13.3,28.3 14.8,28.5 16.9,32.4 19.4,31.1 19,30.6 18.3,30.6 16.6,27.2 17.8,27.2 
		19,29.7 20.5,29.7 21.2,32 22.9,35.3 24.9,31.5 26,31.5 26.4,32.5 26.4,36.7 26.9,37.8 27.6,38.7 27.6,37.4 26.9,36.4 26.9,33.4 
		27.8,35.6 29.4,34.6 29.4,33.1 28.3,31.3 30.3,30.2 31.2,29.4 31.4,27.6 29.9,26.2 30.3,24.7 31.5,24.7 32.4,26.5 32.9,25.6 
		32.2,24.7 32.9,22.3 34.1,22.3 35.9,19.3 35,19.2 36.8,15.8 40,13.8 38.9,15.3 39.2,16.7 41.5,13.6 41,12.7 47.5,12.7 46.6,12.3 
		44.1,12.2 43.2,11.6 37.1,11.3 36.8,10.6 29.1,10.6 28,9 19.4,9 17.4,12.2 15.1,12.2 14.1,14.9 12.2,13.6 13.3,13.6 12.6,12 
		10.3,12 7.4,16 7.3,17.4 7.8,18.3 8.3,17.6 9,19 9.7,17.4 9.2,16.7 10.6,13.9 11,14.9 10.3,16.7 10.8,17.6 12.4,17.4 12.4,18.5 
		10.1,19.9 8.3,19.9 7.6,18.8 7.4,19.2 7.8,20 7.3,20 6.6,21.6 4.2,21.6 5,22.9 5,24.1 3.1,24.1 3.3,24.7 3.1,26.3 4.3,27.1 
		5.7,25.8 6.4,23.9 8.3,23.2 9,25 9,26.2 9.9,25 9,22.9 9.7,22.9 11,25.3 12.4,23.1 14.2,23.1 15.2,24.7 11.7,24.7 11.9,26.2 
		14.1,26.2 13.3,27.8 10.8,27.8 10.8,28.5 8.3,27.8 8.1,26.9 4.3,27.1 1.9,29.5 1.9,33.4 3.4,35.3 	"/>
	<polygon class="st3" points="4.3,18.8 3.6,18.8 3.3,19.9 4,19.9 	"/>
	<polygon class="st3" points="18.3,41.3 16.9,39.5 15.1,42.7 16.2,44.6 	"/>
	<polygon class="st3" points="35.5,21.5 35,22.5 35,24.6 34.1,26 33.2,26 33.3,26.5 34.8,26.5 35.9,24.6 35.2,22.5 36.1,22.5 	"/>
	<polygon class="st3" points="29.4,50.6 32.9,49.6 34.6,49.9 35.7,51.1 37.1,51.1 38.4,49.6 39.1,47.8 37.5,45.3 36.6,42.7 
		35.5,45.3 33.6,44.6 33.6,43.8 32.4,44 31.9,44.3 31.2,44 30.5,45.8 28.3,47.1 28.5,49.9 	"/>
	<polygon class="st3" points="6.1,20.9 6.1,20 5.7,18.8 5.7,18.1 5,18.1 5.3,19.5 4.7,19.7 4.7,20.4 5,20.6 4.7,20.9 	"/>
	<polygon class="st3" points="41,51.5 40.5,51.5 40.8,50.6 40,50.6 38.9,52.6 40.5,52.6 	"/>
	<polygon class="st3" points="23.3,35.8 23.6,36.5 24.2,35.6 23.8,34.9 	"/>
	<polygon class="st3" points="26.2,38.8 27.6,40.5 28.2,40.5 28.2,40.4 26.2,37.8 	"/>
	<polygon class="st3" points="37.5,42.4 39.8,42.4 38.4,41.5 37.8,40.8 35.3,40.8 36.9,41.5 	"/>
	<polygon class="st3" points="42.3,48.3 41.2,48.3 40.5,49.6 41.5,49.6 	"/>
	<polygon class="st3" points="28.2,40.5 27.6,40.5 28.7,41.8 28.7,41 28.2,40.4 	"/>
	<polygon class="st3" points="29.9,40.8 29.4,41.1 29.8,42 31.4,42 31.7,39.9 31.2,39.4 	"/>
	<polygon class="st3" points="32.9,40.8 32.2,40.6 32.1,42 32.9,42 32.9,41.7 34.1,42 33.3,41.3 34.6,40.6 	"/>
	<path class="st3" d="M36.2,35.4c0-0.6,0.4-0.9,0.8-0.9c0.7,0,0.7,0.5,0.7,0.8v2.5h1.1v-2.8c0-0.9-0.6-1.4-1.4-1.4
		c-0.8,0-1.1,0.5-1.2,0.7h0v-0.6h-1v4.1h1.1V35.4z"/>
	<path class="st3" d="M47.2,35.6c0-0.5,0.2-1,1-1c0.1,0,0.2,0,0.3,0v-1.1c-0.1,0-0.1,0-0.2,0c-0.7,0-0.9,0.4-1.1,0.8h0v-0.7h-1v4.1
		h1.1V35.6z"/>
	<path class="st3" d="M43.7,33.6c-1.8,0-2,1.6-2,2.1c0,1.7,0.9,2.2,2,2.2c0.7,0,1.5-0.3,1.8-1.3h-1.1c-0.1,0.3-0.4,0.4-0.7,0.4
		c-0.9,0-0.9-0.7-1-1h2.8v-0.2C45.6,33.9,44.5,33.6,43.7,33.6z M42.9,35.3c0.1-0.5,0.3-0.9,0.8-0.9c0.3,0,0.8,0.2,0.8,0.9H42.9z"/>
	<path class="st3" d="M55.1,35.2l-1,0.1c-0.7,0.1-1.2,0.5-1.2,1.3c0,0.8,0.6,1.2,1.2,1.2c0.7,0,1.1-0.3,1.3-0.6c0,0.2,0,0.3,0.1,0.5
		h1.2v-0.2c-0.1,0-0.2-0.2-0.2-0.6v-2.2c0-1-1.1-1.2-1.6-1.2c-0.8,0-1.7,0.2-1.8,1.4h1c0-0.2,0.1-0.6,0.7-0.6c0.3,0,0.7,0,0.7,0.5
		C55.5,35.1,55.3,35.2,55.1,35.2z M55.5,36.3c0,0.5-0.5,0.8-1,0.8c-0.2,0-0.5-0.1-0.5-0.5c0-0.4,0.3-0.5,0.7-0.6
		c0.4-0.1,0.6-0.1,0.7-0.2V36.3z"/>
	<path class="st3" d="M57.4,36.9c0,0.5,0.2,0.9,1.1,0.9h0.1c0.2,0,0.3,0,0.5,0V37c-0.1,0-0.2,0-0.2,0c-0.4,0-0.4-0.1-0.4-0.3v-2.2
		h0.7v-0.8h-0.7v-1.1h-1.1v1.1h-0.6v0.8h0.6V36.9z"/>
	<path class="st3" d="M63.5,37.9c1.1,0,2.1-0.7,2.1-2.2c0-1.5-1-2.2-2.1-2.2c-1.1,0-2.1,0.7-2.1,2.2C61.4,37.2,62.4,37.9,63.5,37.9z
		 M63.5,34.5c0.8,0,1,0.7,1,1.2c0,0.5-0.2,1.2-1,1.2c-0.8,0-1-0.7-1-1.2C62.6,35.2,62.7,34.5,63.5,34.5z"/>
	<path class="st3" d="M72.3,35.2l-1,0.1c-0.7,0.1-1.2,0.5-1.2,1.3c0,0.8,0.6,1.2,1.2,1.2c0.7,0,1.1-0.3,1.3-0.6c0,0.2,0,0.3,0.1,0.5
		h1.2v-0.2c-0.1,0-0.2-0.2-0.2-0.6v-2.2c0-1-1.1-1.2-1.6-1.2c-0.8,0-1.7,0.2-1.8,1.4h1c0-0.2,0.1-0.6,0.7-0.6c0.3,0,0.7,0,0.7,0.5
		C72.6,35.1,72.4,35.2,72.3,35.2z M72.6,36.3c0,0.5-0.5,0.8-1,0.8c-0.2,0-0.5-0.1-0.5-0.5c0-0.4,0.3-0.5,0.7-0.6
		c0.4-0.1,0.6-0.1,0.7-0.2V36.3z"/>
	<rect x="33.3" y="32.2" class="st3" width="1.2" height="5.5"/>
	<path class="st3" d="M40.8,32.6h-1.1v1.1h-0.6v0.8h0.6v2.5c0,0.5,0.2,0.9,1.1,0.9H41c0.2,0,0.3,0,0.5,0V37c-0.1,0-0.2,0-0.2,0
		c-0.4,0-0.4-0.1-0.4-0.3v-2.2h0.7v-0.8h-0.7V32.6z"/>
	<path class="st3" d="M51.2,33.6c-0.8,0-1.1,0.5-1.2,0.7h0v-0.6h-1v4.1H50v-2.3c0-0.6,0.4-0.9,0.8-0.9c0.7,0,0.7,0.5,0.7,0.8v2.5
		h1.1v-2.8C52.6,34,52,33.6,51.2,33.6z"/>
	<rect x="59.8" y="32.2" class="st3" width="1.1" height="1"/>
	<rect x="59.8" y="33.7" class="st3" width="1.1" height="4.1"/>
	<path class="st3" d="M68.3,33.6c-0.8,0-1.1,0.5-1.2,0.7h0v-0.6h-1v4.1h1.1v-2.3c0-0.6,0.4-0.9,0.8-0.9c0.7,0,0.7,0.5,0.7,0.8v2.5
		h1.1v-2.8C69.8,34,69.1,33.6,68.3,33.6z"/>
	<rect x="74.4" y="32.2" class="st3" width="1.1" height="5.5"/>
	<path class="st3" d="M43.9,28.9c-0.3,0.1-0.7,0.2-1.1,0.2c-0.5,0-1-0.1-1.2-0.3c-0.3-0.2-0.4-0.4-0.6-0.7h-3.5
		c0.1,1,0.6,1.7,1.5,2.3c0.9,0.5,2.2,0.8,3.7,0.8c1.6,0,2.9-0.3,3.9-0.8c0.9-0.5,1.3-1.4,1.3-2.4c0-0.4-0.1-0.8-0.4-1.2
		c-0.2-0.3-0.6-0.6-1.1-0.9c-0.5-0.3-1.5-0.5-2.7-0.7c-0.1,0-0.3-0.1-0.4-0.1c-0.1,0-0.2,0-0.3-0.1c0,0-0.1,0-0.2,0
		c-1-0.2-1.6-0.5-1.6-0.9c0-0.2,0.1-0.5,0.4-0.6c0.2-0.1,0.4-0.2,0.9-0.2c0.4,0,0.8,0,1.1,0.2c0.2,0.1,0.4,0.3,0.5,0.6h3.4
		c-0.1-0.9-0.6-1.6-1.4-2.1c-0.8-0.5-2-0.8-3.5-0.8c-1.5,0-2.7,0.3-3.6,0.8c-0.8,0.6-1.2,1.3-1.2,2.2c0,0.5,0.1,0.9,0.3,1.2
		c0.2,0.2,0.5,0.6,1,0.9c0.2,0.1,0.6,0.3,1.1,0.4c0.5,0.2,1.3,0.4,2.1,0.5c0.1,0,0.3,0,0.5,0.1c1.1,0.2,1.7,0.5,1.7,0.9
		C44.4,28.6,44.2,28.8,43.9,28.9z"/>
	<polygon class="st3" points="71.2,28.8 65.3,28.8 65.3,27.1 70,27.1 70,25.1 65.3,25.1 65.3,23.6 70.9,23.6 70.9,21.5 61.7,21.5 
		61.7,30.9 71.2,30.9 	"/>
	<path class="st3" d="M53.1,28.2h2.3c3,0,4.7-1.2,4.7-3.4c0-1.1-0.9-3.2-4.4-3.2h-6.2v9.6h3.6V28.2z M53.1,23.9h1.8
		c0.8,0,1.9,0,1.9,1c0,1.1-1.3,1.1-2.1,1.1h-1.5V23.9z"/>
</g>
</svg>
