<?xml version="1.0" encoding="utf-8"?>
<!-- Generator: Adobe Illustrator 21.1.0, SVG Export Plug-In . SVG Version: 6.00 Build 0)  -->
<svg version="1.1" id="Layer_1" xmlns="http://www.w3.org/2000/svg" xmlns:xlink="http://www.w3.org/1999/xlink" x="0px" y="0px"
	 viewBox="0 0 360 154.1" style="enable-background:new 0 0 360 154.1;" xml:space="preserve">
<style type="text/css">
	.st0{fill:#799900;}
	.st1{fill:#6D3A5D;}
	.st2{fill:#FFFFFF;}
</style>
<g>
	<path d="M175.6,98.5c-1.4,0-3.5-0.2-4.8-0.4c-2.8-0.4-3.5-2.1-3.8-4.6c-0.4-4.1-0.4-11.5-0.4-20.7V56.1c0-14.4,0-17,0.2-20.1
		c0.2-3.3,0.9-4.9,3.5-5.4c1.1-0.2,1.9-0.3,2.8-0.3c0.9,0,1.5-0.2,1.5-0.9c0-0.6-0.8-0.8-2-0.8c-3.6,0-9.2,0.3-11.5,0.3
		c-2.7,0-8.7-0.3-12.3-0.3c-1.5,0-2.3,0.2-2.3,0.8c0,0.8,0.6,0.9,1.5,0.9c1.1,0,2.4,0.1,3.4,0.4c2.1,0.5,3,2.1,3.2,5.3
		c0.2,3,0.2,5.7,0.2,20.1v16.6c0,9.2,0,16.6-0.5,20.6c-0.3,2.7-0.9,4.3-2.7,4.7c-0.9,0.2-2,0.4-3.4,0.4c-1.1,0-1.5,0.3-1.5,0.8
		c0,0.7,0.7,0.9,1.9,0.9c3.8,0,9.7-0.3,11.9-0.3c2.6,0,8.5,0.3,14.8,0.3c1,0,1.8-0.3,1.8-0.9C177.1,98.8,176.7,98.5,175.6,98.5z
		 M211.4,28.7c-4.4,0-9.8,0.3-13.7,0.3c-2.6,0-8.6-0.3-13.6-0.3c-1.4,0-2.1,0.2-2.1,0.9c0,0.7,0.6,0.8,1.6,0.8
		c1.3,0,2.9,0.1,3.7,0.3c3.1,0.7,3.9,2.2,4.1,5.4c0.2,3,0.2,5.7,0.2,20.1v16.6c0,8.7,0,16.2-0.5,20.1c-0.4,2.7-0.9,4.8-2.7,5.2
		c-0.9,0.2-2,0.4-3.4,0.4c-1.1,0-1.5,0.3-1.5,0.8c0,0.7,0.7,0.9,1.9,0.9c3.8,0,9.7-0.3,11.9-0.3c2.5,0,8.4,0.3,14.7,0.3
		c1,0,1.8-0.3,1.8-0.9c0-0.5-0.5-0.8-1.5-0.8c-1.4,0-3.5-0.2-4.8-0.4c-2.8-0.4-3.4-2.5-3.7-5.1c-0.5-4.1-0.5-11.5-0.5-20.2V35
		c0-1,0.3-1.6,0.8-1.8c0.9-0.3,2.3-0.4,3.7-0.4c2.2,0,6.1,0.6,9.5,3.7c5.3,4.7,5.6,11.1,5.6,14.2c0,9.6-7.4,15.6-12.7,15.6
		c-2,0-2.6,0.3-2.6,1c0,0.7,0.7,0.8,1.1,0.9c0.5,0.1,1.5,0.1,2,0.1c13.4,0,23.3-9.5,23.3-22.9c0-5-2.6-9.3-4.7-11.3
		C227.5,32.7,223.2,28.7,211.4,28.7z M285.6,34.3c8.4,0.2,11,2.8,11.2,5.3l0.1,1c0.1,1.4,0.3,1.9,1,1.9c0.6,0,0.8-0.6,0.9-1.5
		c0-2.5,0.3-9,0.3-11c0-1.4-0.1-2-0.8-2c-0.8,0-3,0.9-9.1,0.9h-37.4c-3.1,0-6.7-0.2-9.5-0.5c-2.4-0.2-3.3-1.1-4.1-1.1
		c-0.6,0-0.9,0.6-1.1,1.8c-0.2,0.8-2,9.4-2,10.9c0,1,0.2,1.5,0.9,1.5c0.6,0,0.9-0.4,1-1.1c0.2-0.8,0.7-1.9,1.6-3.3
		c1.4-2.1,3.7-2.6,9.2-2.7l14.1-0.4v38.8c0,8.7,0,16.2-0.5,20.1c-0.3,2.7-0.9,4.8-2.7,5.2c-0.9,0.2-2,0.4-3.4,0.4
		c-1.1,0-1.5,0.3-1.5,0.8c0,0.7,0.7,0.9,1.9,0.9c3.8,0,9.7-0.3,11.9-0.3c2.7,0,8.6,0.3,14.8,0.3c1,0,1.8-0.3,1.8-0.9
		c0-0.5-0.5-0.8-1.5-0.8c-1.4,0-3.5-0.2-4.8-0.4c-2.8-0.4-3.4-2.5-3.7-5.1c-0.5-4.1-0.5-11.5-0.5-20.2V34L285.6,34.3z M358,82.6
		c-0.8,0-0.9,0.4-1.2,1.9c-0.4,1.7-1.6,4.4-3.2,6.2c-3.8,4.4-8.9,5.3-17.3,5.3c-12.7,0-29.8-11.2-29.8-33.7c0-9.2,1.8-18.2,8.7-24.5
		c4.2-3.8,9.5-5.9,17.8-5.9c8.7,0,16.1,2.6,19.2,5.9c2.4,2.5,3.6,5.8,3.7,8.7c0,1.3,0.2,2.1,0.9,2.1c0.9,0,1-0.8,1.1-2.2
		c0.2-1.9,0.1-7.1,0.3-10.2c0.2-3.3,0.5-4.4,0.5-5.2c0-0.6-0.4-1-1.4-1.1c-2.8-0.3-5.9-1.1-9.5-1.6c-4.3-0.6-7.8-0.9-13.7-0.9
		c-14.1,0-23.1,3.8-29.9,10c-9.1,8.3-11.1,19.5-11.1,25.9c0,9.2,2.5,19.8,11.7,27.9c8.6,7.5,19.5,10.3,32.4,10.3
		c6.1,0,13.2-0.7,17-2.2c1.6-0.7,2-1.1,2.5-2.7c0.9-3.2,2.1-11.4,2.1-12.6C358.8,83.3,358.6,82.6,358,82.6z"/>
	<path d="M157,132.7h-9.8v1.5h4v12.6h1.8v-12.6h4V132.7z M161.4,136.1c-3.1,0-4.8,2.6-4.8,5.5c0,2.9,1.6,5.4,4.8,5.4
		c2,0,3.8-1.2,4.4-3.1l-1.5-0.3c-0.5,1.2-1.4,2-2.8,2c-1.1,0-2.2-0.6-2.7-1.6c-0.4-0.8-0.4-1.5-0.4-2.4h7.6
		C166,138.8,164.6,136.1,161.4,136.1z M158.4,140.5c0.1-1.6,1.2-3.2,2.9-3.2c1.9,0,2.8,1.5,2.8,3.2H158.4z M172.1,137.4
		c1.5,0,2.3,1.2,2.5,2.5l1.5-0.3c-0.3-2.2-1.7-3.6-4-3.6c-3.1,0-4.5,2.8-4.5,5.5c0,2.7,1.3,5.4,4.4,5.4c2.2,0,3.7-1.5,4-3.7
		l-1.5-0.3c-0.3,1.4-1,2.6-2.6,2.6c-2.2,0-2.7-2.5-2.7-4.2C169.3,139.7,169.9,137.4,172.1,137.4z M183.1,136.1
		c-1.6,0-2.6,0.8-3.3,2.2h-0.1v-5.6h-1.6v14.1h1.6v-5.4c0-1.1,0.1-2.1,0.8-2.9c0.5-0.6,1.3-1.1,2.1-1.1c0.8,0,1.6,0.5,1.9,1.2
		c0.2,0.6,0.2,1.4,0.2,2.1v6.1h1.6v-6.1c0-1.2,0.1-2.1-0.6-3.2C185.3,136.6,184.2,136.1,183.1,136.1z M194.1,136.1
		c-1.5,0-2.7,0.9-3.3,2.2h0v-1.9h-1.5v10.5h1.6v-5.5c0-1.1,0.1-2,0.8-2.8c0.6-0.7,1.3-1,2.2-1c0.7,0,1.4,0.3,1.8,0.9
		c0.3,0.5,0.3,1.3,0.3,1.9v6.5h1.6V141c0-1,0-2.4-0.5-3.3C196.4,136.6,195.4,136.1,194.1,136.1z M204.6,136.1
		c-3.1,0-4.8,2.5-4.8,5.4c0,2.8,1.4,5.5,4.5,5.5c3.2,0,4.9-2.6,4.9-5.5C209.2,138.8,207.7,136.1,204.6,136.1z M206.9,144.2
		c-0.5,0.9-1.3,1.5-2.4,1.5c-0.9,0-1.8-0.5-2.3-1.3c-0.5-0.8-0.6-1.9-0.6-2.9c0-0.8,0.1-1.9,0.5-2.6c0.5-0.9,1.4-1.5,2.4-1.5
		c0.9,0,1.8,0.5,2.3,1.2c0.5,0.8,0.7,1.9,0.7,2.9C207.4,142.4,207.3,143.3,206.9,144.2z M211.7,146.8h1.6v-14.1h-1.6V146.8z
		 M220.6,136.1c-3.2,0-4.8,2.5-4.8,5.4c0,2.8,1.4,5.5,4.5,5.5c3.2,0,4.9-2.6,4.9-5.5C225.2,138.8,223.7,136.1,220.6,136.1z
		 M222.9,144.2c-0.5,0.9-1.3,1.5-2.4,1.5c-0.9,0-1.8-0.5-2.3-1.3c-0.5-0.8-0.6-1.9-0.6-2.9c0-0.8,0.1-1.9,0.5-2.6
		c0.5-0.9,1.4-1.5,2.4-1.5c0.9,0,1.8,0.5,2.3,1.2c0.5,0.8,0.7,1.9,0.7,2.9C223.4,142.4,223.4,143.3,222.9,144.2z M234.8,145.4
		c-0.8-0.3-2.2-0.3-3.1-0.4c-0.7,0-1.8,0-2.5-0.2c-0.5-0.1-0.8-0.4-0.8-0.9c0-0.5,0.6-1,1.1-1c0.2,0,0.5,0.1,0.7,0.1
		c0.2,0.1,0.5,0.1,0.7,0.1c0.9,0,1.9-0.2,2.7-0.8c0.8-0.6,1.3-1.6,1.3-2.6c0-0.9-0.4-1.9-1-2.6c0.2-1.1,0.9-1.2,1.9-1.2h0.2l0-1.3
		l-0.4,0c-1.4,0-2.1,0.3-2.4,1.8c-0.7-0.3-1.4-0.5-2.1-0.5c-2.1,0-4,1.3-4,3.6c0,1.1,0.5,2.1,1.4,2.8c-0.8,0.4-1.4,0.8-1.4,1.9
		c0,0.8,0.4,1.3,1,1.6c-1,0.4-1.6,1-1.6,2.1c0,1.2,0.8,1.9,1.8,2.3c0.9,0.4,2.1,0.4,3.1,0.4c2,0,5.2-0.4,5.2-3
		C236.4,146.7,235.8,145.8,234.8,145.4z M231.1,137.4c1.3,0,2.3,1,2.3,2.3c0,1.4-0.9,2.3-2.3,2.3c-1.4,0-2.3-0.9-2.3-2.3
		C228.7,138.3,229.7,137.4,231.1,137.4z M234,149.1c-0.7,0.3-1.9,0.5-2.7,0.5c-1.1,0-3.3-0.2-3.3-1.7c0-0.7,0.5-1.1,1.1-1.4l2.5,0.2
		l1,0c0.8,0,2.2,0.2,2.2,1.2C234.9,148.5,234.5,148.8,234,149.1z M241,144.2l-2.8-7.9h-1.7l3.6,10.3c-0.4,1.2-0.7,2.6-2.3,2.6
		c-0.4,0-0.7-0.1-1.1-0.1v1.3c0.4,0.1,0.8,0.2,1.2,0.2c0.9,0,1.5-0.1,2.1-0.8c0.6-0.6,0.8-1.2,1.1-1.9l4.1-11.4h-1.4L241,144.2z
		 M264.7,134c2.1,0,3,1.5,3.5,3.3l1.7-0.3c-0.6-2.6-2.2-4.5-5.1-4.5c-4.1,0-5.9,3.5-5.9,7.1c0,3.5,1.7,7.4,5.7,7.4
		c3,0,4.6-1.9,5.2-4.6l-1.6-0.3c-0.5,1.9-1.5,3.5-3.6,3.5c-1.5,0-2.6-1-3.1-2.3c-0.5-1-0.7-2.4-0.7-3.5
		C260.8,137.3,261.6,134,264.7,134z M276.4,136.1c-3.2,0-4.8,2.5-4.8,5.4c0,2.8,1.4,5.5,4.5,5.5c3.2,0,4.9-2.6,4.9-5.5
		C281,138.8,279.4,136.1,276.4,136.1z M278.7,144.2c-0.5,0.9-1.3,1.5-2.4,1.5c-0.9,0-1.8-0.5-2.3-1.3c-0.5-0.8-0.6-1.9-0.6-2.9
		c0-0.8,0.1-1.9,0.5-2.6c0.5-0.9,1.4-1.5,2.4-1.5c0.9,0,1.8,0.5,2.3,1.2c0.5,0.8,0.7,1.9,0.7,2.9
		C279.2,142.4,279.1,143.3,278.7,144.2z M288.1,136.1c-1.5,0-2.7,0.9-3.3,2.2h0v-1.9h-1.5v10.5h1.6v-5.5c0-1.1,0.1-2,0.8-2.8
		c0.6-0.7,1.3-1,2.2-1c0.7,0,1.4,0.3,1.8,0.9c0.3,0.5,0.3,1.3,0.3,1.9v6.5h1.6V141c0-1,0-2.4-0.5-3.3
		C290.4,136.6,289.4,136.1,288.1,136.1z M295,136.3h-1.9v1.3h1.9v9.2h1.6v-9.2h2.4v-1.3h-2.4c0-1.3,0-2.6,1.7-2.6
		c0.5,0,0.9,0.1,1.3,0.2v-1.3l-1.4-0.1C295.7,132.2,294.9,134.1,295,136.3z M304.7,136.1c-3.1,0-4.8,2.6-4.8,5.5
		c0,2.9,1.6,5.4,4.8,5.4c2,0,3.8-1.2,4.4-3.1l-1.5-0.3c-0.5,1.2-1.4,2-2.8,2c-1.1,0-2.2-0.6-2.7-1.6c-0.4-0.8-0.4-1.5-0.4-2.4h7.6
		C309.4,138.8,308,136.1,304.7,136.1z M301.8,140.5c0.1-1.6,1.2-3.2,2.9-3.2c1.9,0,2.8,1.5,2.8,3.2H301.8z M313.2,138.8L313.2,138.8
		l0-2.5h-1.4v10.5h1.6v-5.3c0-0.8,0.1-1.5,0.5-2.2c0.6-1,1.5-1.6,2.7-1.6h0.3v-1.5l-0.6,0C314.6,136.1,313.7,137.4,313.2,138.8z
		 M322.7,136.1c-3.1,0-4.8,2.6-4.8,5.5c0,2.9,1.6,5.4,4.8,5.4c2,0,3.8-1.2,4.4-3.1l-1.5-0.3c-0.5,1.2-1.4,2-2.8,2
		c-1.1,0-2.2-0.6-2.7-1.6c-0.4-0.8-0.4-1.5-0.4-2.4h7.6C327.4,138.8,326,136.1,322.7,136.1z M319.8,140.5c0.1-1.6,1.2-3.2,2.9-3.2
		c1.9,0,2.8,1.5,2.8,3.2H319.8z M334.5,136.1c-1.5,0-2.7,0.9-3.3,2.2h0v-1.9h-1.5v10.5h1.6v-5.5c0-1.1,0.1-2,0.8-2.8
		c0.6-0.7,1.3-1,2.2-1c0.7,0,1.4,0.3,1.8,0.9c0.3,0.5,0.3,1.3,0.3,1.9v6.5h1.6V141c0-1,0-2.4-0.5-3.3
		C336.8,136.6,335.7,136.1,334.5,136.1z M344.6,137.4c1.5,0,2.3,1.2,2.5,2.5l1.5-0.3c-0.4-2.2-1.7-3.6-4-3.6c-3.1,0-4.5,2.8-4.5,5.5
		c0,2.7,1.3,5.4,4.4,5.4c2.2,0,3.7-1.5,4-3.7l-1.5-0.3c-0.3,1.4-1,2.6-2.6,2.6c-2.2,0-2.7-2.5-2.7-4.2
		C341.8,139.7,342.4,137.4,344.6,137.4z M354.8,136.1c-3.1,0-4.8,2.6-4.8,5.5c0,2.9,1.6,5.4,4.8,5.4c2,0,3.8-1.2,4.4-3.1l-1.5-0.3
		c-0.5,1.2-1.4,2-2.8,2c-1.1,0-2.2-0.6-2.7-1.6c-0.4-0.8-0.4-1.5-0.4-2.4h7.6C359.5,138.8,358.1,136.1,354.8,136.1z M351.9,140.5
		c0.1-1.6,1.2-3.2,2.9-3.2c1.9,0,2.8,1.5,2.8,3.2H351.9z M150.6,112.1h-1.8v14.1h1.8V112.1z M155.4,120.7c0-1,0.1-2,0.8-2.8
		c0.6-0.7,1.3-1,2.2-1c0.7,0,1.4,0.4,1.8,0.9c0.3,0.5,0.3,1.3,0.3,1.9v6.5h1.6v-5.8c0-1,0-2.4-0.5-3.3c-0.7-1.1-1.7-1.6-3-1.6
		c-1.5,0-2.7,0.9-3.3,2.2h0v-1.9h-1.5v10.5h1.6V120.7z M169.9,126.3V125l-1.2,0.1c-1.3,0-1.7-0.6-1.7-1.8v-6.3h2.3v-1.3H167v-2.8
		l-1.6,0.2v2.6h-1.9v1.3h1.9v6.1c0,2.1,0.7,3.4,3,3.4L169.9,126.3z M175.6,126.4c2,0,3.8-1.2,4.4-3.1l-1.5-0.3c-0.5,1.2-1.4,2-2.8,2
		c-1.1,0-2.2-0.6-2.7-1.6c-0.4-0.8-0.4-1.5-0.4-2.4h7.6c0.1-2.9-1.3-5.6-4.6-5.6c-3.1,0-4.8,2.6-4.8,5.5
		C170.8,123.9,172.4,126.4,175.6,126.4z M175.7,116.7c1.9,0,2.8,1.5,2.8,3.2h-5.7C172.8,118.3,173.9,116.7,175.7,116.7z
		 M184.1,118.2L184.1,118.2l0-2.4h-1.4v10.5h1.6v-5.3c0-0.8,0.1-1.5,0.5-2.2c0.6-1.1,1.5-1.6,2.7-1.6h0.3v-1.5l-0.6,0
		C185.5,115.5,184.6,116.8,184.1,118.2z M194.5,115.5c-1.5,0-2.7,0.9-3.3,2.2h0v-1.9h-1.5v10.5h1.6v-5.5c0-1,0.1-2,0.8-2.8
		c0.6-0.7,1.3-1,2.2-1c0.7,0,1.4,0.4,1.8,0.9c0.3,0.5,0.3,1.3,0.3,1.9v6.5h1.6v-5.8c0-1,0-2.4-0.5-3.3
		C196.8,116,195.7,115.5,194.5,115.5z M209.3,119.9c0-1.2,0-2.5-0.9-3.4c-0.8-0.9-2.1-1-3.2-1c-1.9,0-4.2,0.7-4.5,2.9l1.5,0.2
		c0.3-1.4,1.5-1.9,2.9-1.9c1.9,0,2.7,0.7,2.7,2.5v0.5h-1.4c-1.3,0-2.8,0.1-4,0.6c-1.2,0.5-1.9,1.6-1.9,2.9c0,2.1,1.7,3.2,3.6,3.2
		c1.7,0,2.9-0.7,3.7-2.2l0.2,2h1.6c-0.2-0.7-0.2-1.4-0.2-2.2V119.9z M207.8,121.6c0,1.8-1.3,3.5-3.3,3.5c-1.2,0-2.3-0.5-2.3-1.8
		c0-2.2,2.6-2.4,4.2-2.4h1.3V121.6z M216.9,125l-1.2,0.1c-1.3,0-1.7-0.6-1.7-1.8v-6.3h2.3v-1.3H214v-2.8l-1.6,0.2v2.6h-1.9v1.3h1.9
		v6.1c0,2.1,0.7,3.4,3,3.4l1.5-0.1V125z M220.4,112.1h-1.8v1.8h1.8V112.1z M220.3,126.2v-10.5h-1.6v10.5H220.3z M227.3,126.4
		c3.2,0,4.9-2.6,4.9-5.5c0-2.8-1.5-5.4-4.6-5.4c-3.2,0-4.8,2.5-4.8,5.4C222.8,123.7,224.2,126.4,227.3,126.4z M225.1,118.3
		c0.5-0.9,1.4-1.5,2.4-1.5c0.9,0,1.8,0.5,2.3,1.2c0.5,0.9,0.7,1.9,0.7,2.9c0,0.9-0.1,1.9-0.5,2.7c-0.5,0.9-1.3,1.5-2.4,1.5
		c-0.9,0-1.8-0.5-2.3-1.3c-0.5-0.8-0.6-1.9-0.6-2.9C224.6,120.1,224.7,119,225.1,118.3z M236.1,120.7c0-1,0.1-2,0.8-2.8
		c0.6-0.7,1.3-1,2.2-1c0.7,0,1.4,0.4,1.8,0.9c0.3,0.5,0.3,1.3,0.3,1.9v6.5h1.6v-5.8c0-1,0-2.4-0.5-3.3c-0.7-1.1-1.7-1.6-3-1.6
		c-1.5,0-2.7,0.9-3.3,2.2h0v-1.9h-1.5v10.5h1.6V120.7z M254.2,119.9c0-1.2,0-2.5-0.9-3.4c-0.8-0.9-2.1-1-3.2-1
		c-1.9,0-4.2,0.7-4.5,2.9l1.5,0.2c0.3-1.4,1.5-1.9,2.9-1.9c1.8,0,2.7,0.7,2.7,2.5v0.5h-1.4c-1.3,0-2.8,0.1-4,0.6
		c-1.2,0.5-1.9,1.6-1.9,2.9c0,2.1,1.7,3.2,3.6,3.2c1.7,0,2.9-0.7,3.7-2.2l0.2,2h1.6c-0.2-0.7-0.2-1.4-0.2-2.2V119.9z M252.6,121.6
		c0,1.8-1.3,3.5-3.3,3.5c-1.2,0-2.3-0.5-2.3-1.8c0-2.2,2.6-2.4,4.2-2.4h1.3V121.6z M257,126.2h1.6v-14.1H257V126.2z M272.9,120.5
		h3.2c1.3,0,2.4-0.2,3.4-1.2c0.8-0.8,1.2-1.9,1.2-3c0-1.2-0.5-2.5-1.4-3.3c-1-0.8-2.2-0.9-3.4-0.9h-4.7v14.1h1.8V120.5z
		 M272.9,113.6h3.1c0.7,0,1.3,0.1,1.9,0.5c0.7,0.5,1,1.4,1,2.2c0,0.7-0.3,1.4-0.8,2c-0.7,0.6-1.4,0.7-2.2,0.7h-3V113.6z
		 M286.9,126.4c2,0,3.8-1.2,4.4-3.1l-1.5-0.3c-0.5,1.2-1.4,2-2.8,2c-1.1,0-2.2-0.6-2.7-1.6c-0.4-0.8-0.4-1.5-0.4-2.4h7.6
		c0.1-2.9-1.3-5.6-4.6-5.6c-3.1,0-4.8,2.6-4.8,5.5C282.1,123.9,283.7,126.4,286.9,126.4z M286.9,116.7c1.8,0,2.8,1.5,2.8,3.2H284
		C284,118.3,285.2,116.7,286.9,116.7z M294.3,123c0,2.1,0.7,3.4,3,3.4l1.5-0.1V125l-1.2,0.1c-1.3,0-1.7-0.6-1.7-1.8v-6.3h2.3v-1.3
		H296v-2.8l-1.6,0.2v2.6h-1.9v1.3h1.9V123z M302.1,120.9c0-0.8,0.1-1.5,0.5-2.2c0.6-1.1,1.5-1.6,2.7-1.6h0.3v-1.5l-0.6,0
		c-1.7,0-2.6,1.3-3.1,2.7h0v-2.4h-1.4v10.5h1.6V120.9z M316.1,120.9c0-2.8-1.5-5.4-4.6-5.4c-3.2,0-4.8,2.5-4.8,5.4
		c0,2.8,1.4,5.5,4.5,5.5C314.4,126.4,316.1,123.8,316.1,120.9z M313.8,123.6c-0.5,0.9-1.3,1.5-2.4,1.5c-0.9,0-1.8-0.5-2.3-1.3
		c-0.5-0.8-0.6-1.9-0.6-2.9c0-0.8,0.1-1.9,0.5-2.6c0.5-0.9,1.4-1.5,2.4-1.5c0.9,0,1.8,0.5,2.3,1.2c0.5,0.9,0.7,1.9,0.7,2.9
		C314.3,121.8,314.2,122.8,313.8,123.6z M320.3,112.1h-1.6v14.1h1.6V112.1z M332,123.4l-1.5-0.3c-0.5,1.2-1.4,2-2.8,2
		c-1.1,0-2.2-0.6-2.7-1.6c-0.4-0.8-0.4-1.5-0.4-2.4h7.6c0.1-2.9-1.3-5.6-4.6-5.6c-3.1,0-4.8,2.6-4.8,5.5c0,2.9,1.6,5.4,4.8,5.4
		C329.5,126.4,331.3,125.3,332,123.4z M327.6,116.7c1.9,0,2.8,1.5,2.8,3.2h-5.7C324.7,118.3,325.8,116.7,327.6,116.7z M341.2,124.1
		L341.2,124.1l0,2.1h1.5v-10.5h-1.6v5.6c0,1-0.2,1.9-0.8,2.6c-0.6,0.7-1.3,1.1-2.2,1.1c-0.7,0-1.4-0.4-1.7-1
		c-0.3-0.5-0.4-1.3-0.4-1.9v-6.4h-1.6v6.4c0,1.1,0.1,2.3,0.8,3.1c0.7,0.8,1.6,1.2,2.7,1.2C339.4,126.4,340.7,125.4,341.2,124.1z
		 M359.2,117c-0.5-0.9-1.6-1.5-2.6-1.5c-1.6,0-2.8,1-3.4,2.5c-0.3-1.5-1.4-2.5-2.9-2.5c-1.5,0-2.6,1-3.1,2.3h0v-2h-1.5v10.5h1.6v-6
		c0-0.9,0.1-1.7,0.6-2.4c0.4-0.6,1.2-1,1.9-1c0.7,0,1.4,0.4,1.7,1c0.3,0.5,0.3,1.2,0.3,1.8v6.6h1.6v-5.6c0-1,0-1.8,0.6-2.6
		c0.5-0.7,1.2-1.2,2-1.2c0.7,0,1.4,0.4,1.8,1.1c0.3,0.6,0.3,1.4,0.3,2.1v6.2h1.6V120C359.7,119,359.7,117.8,359.2,117z"/>
</g>
<path class="st0" d="M78.8,113.9c2.3,3.6,4.6,5.5,7.4,9.4c3.2,3.7,4.9,8.6,4.3,13.7c-1.1,10.3-10.8,17.7-21.8,16.5
	c-9.6-1-16.9-8.2-17.8-16.8c-0.7-5.6,1.4-15,5.8-24.9c4.2-9.4,9.4-16.8,13.9-20.3C70.1,96.6,73.1,105.2,78.8,113.9 M140.3,83.4
	c0-38.8-31.5-70.3-70.3-70.3c-1.4,0-2.7,0.1-4.1,0.1c8.6,16.3,17.4,46.6-5.8,84.3c-22.2,35.9-12.2,49.7-3.4,54.9
	c4.3,0.8,8.7,1.3,13.3,1.3c5.3,0,10.4-0.6,15.3-1.7c7.2-5,17.6-16.5,0.4-35.7c-26.3-29.2,1.8-55,1.8-55s-10.9,15.5,9.6,44.9
	c16.2,23.2,2.8,38.1-7.8,44.7C118.7,142.6,140.3,115.5,140.3,83.4"/>
<path class="st1" d="M52.4,151.5C52.4,151.5,52.5,151.5,52.4,151.5C52.5,151.5,52.4,151.5,52.4,151.5
	C52.4,151.5,52.4,151.5,52.4,151.5z M38.9,80.6c22.4-29.9,24.2-53.3,22.2-66.9C26.5,18.1-0.3,47.6-0.3,83.4
	c0,32.8,22.4,60.3,52.7,68.1C34.4,143,8.6,121.1,38.9,80.6z M86.2,123.4c-2.8-3.9-5-5.8-7.4-9.4c-5.6-8.7-8.7-17.4-8.2-22.4
	c-4.5,3.5-9.7,11-13.9,20.3c-4.4,9.9-6.5,19.3-5.8,24.9c1,8.6,8.3,15.8,17.8,16.8c10.9,1.1,20.7-6.2,21.8-16.5
	C91,131.9,89.3,127.1,86.2,123.4z"/>
<path class="st2" d="M97.1,106.3c-20.5-29.4-9.6-44.9-9.6-44.9s-28.1,25.7-1.8,55c17.2,19.1,6.9,30.7-0.4,35.7
	c0.7-0.1,1.4-0.3,2-0.5c0.1,0,0.1,0,0.2,0c0.1,0,0.1,0,0.2-0.1c0.5-0.1,1-0.3,1.6-0.4C99.9,144.4,113.2,129.5,97.1,106.3z
	 M65.9,13.2c-4.4-8.3-8.8-12.9-8.8-12.9s2.7,4.8,4,13.4c2,13.7,0.2,37.1-22.2,66.9c-30.4,40.5-4.5,62.4,13.5,70.9c0,0,0,0,0.1,0
	c0.4,0.1,0.9,0.2,1.3,0.3c0.5,0.1,1,0.2,1.5,0.4c0.3,0.1,0.5,0.1,0.7,0.2c0.2,0,0.4,0.1,0.6,0.1c-8.8-5.2-18.8-19,3.4-54.9
	C83.3,59.9,74.5,29.5,65.9,13.2z"/>
</svg>
