<?xml version="1.0" encoding="utf-8"?>
<!-- Generator: Adobe Illustrator 21.1.0, SVG Export Plug-In . SVG Version: 6.00 Build 0)  -->
<svg version="1.1" id="Layer_1" xmlns="http://www.w3.org/2000/svg" xmlns:xlink="http://www.w3.org/1999/xlink" x="0px" y="0px"
	 viewBox="0 0 400 57" style="enable-background:new 0 0 400 57;" xml:space="preserve">
<style type="text/css">
	.st0{fill:#1D427D;}
	.st1{fill:#EC9D2B;}
	.st2{fill-rule:evenodd;clip-rule:evenodd;fill:#1D427D;}
	.st3{fill:#FFFFFF;}
</style>
<path class="st0" d="M163.3,24.9v-0.1c0-6.4-5-9.1-12-11c-3.4-1.1-4.4-1.7-4.4-2.7V11c0-0.8,0.8-1.5,2.4-1.5c2.9,0,6.2,1.3,8.7,3.1
	l5-7.7c-3.9-3-8.3-4.2-13.5-4.2c-8.4,0-13.3,4.7-13.3,11.2v0.2c0,6.6,5.3,9,12.2,11.1c3.2,1,4.2,1.6,4.2,2.6v0.1
	c0,0.9-0.8,1.6-2.7,1.6c-3.2,0-6.9-1.3-10.2-3.8l-5.1,7.6c4.2,3.4,9.5,5.1,15.2,4.9C157.9,36.2,163.3,31.8,163.3,24.9z"/>
<polygon class="st0" points="220.7,35.8 220.7,26.7 205.7,26.7 205.7,22.6 219.4,22.6 219.4,14.3 205.7,14.3 205.7,10.3 220.4,10.3 
	220.4,1.3 195.2,1.3 195.2,35.8 "/>
<path class="st1" d="M276.7,47.5c-3.2-1.2-3.9-2-3.9-3.5v-0.1c0-1.4,1.3-2.6,3.2-2.6c1.4,0,2.7,0.5,4,1.6l1.1-1.4
	c-1.5-1.3-3.1-1.9-5.1-1.9c-3,0-5.1,2-5.1,4.5c0,2.3,1.4,3.6,4.9,4.9c3,1.1,3.7,2,3.7,3.4c0,1.6-1.4,2.8-3.4,2.8
	c-1.9,0-3.3-0.8-4.7-2.1l-1.1,1.4c1.8,1.7,3.7,2.4,5.9,2.5c3,0,5.2-1.9,5.2-4.6C281.4,50.1,280.1,48.8,276.7,47.5z"/>
<rect x="284.8" y="39.8" class="st1" width="1.8" height="16.9"/>
<polygon class="st1" points="303.1,39.8 301.3,39.8 301.3,53.1 292.5,39.8 290.8,39.8 290.8,56.7 292.6,56.7 292.6,43.1 301.6,56.7 
	303.1,56.7 "/>
<path class="st1" d="M313.9,55.3c-3.1,0-5.5-2.9-5.5-7v-0.1c0-4.1,2.4-6.9,5.5-6.9c1.7,0,2.9,0.8,4,1.8l1.1-1.4
	c-1.3-1.3-2.8-2.1-5.1-2.1c-4.2,0-7.4,3.5-7.4,8.6v0.1c0,5.2,3.1,8.6,7.3,8.7c2.4,0,4-0.9,5.4-2.3l-1.1-1.3
	C316.9,54.6,315.6,55.3,313.9,55.3z"/>
<polygon class="st1" points="323.8,55 323.8,49 331.4,49 331.4,47.3 323.8,47.3 323.8,41.5 332.3,41.5 332.3,39.8 322,39.8 
	322,56.7 332.4,56.7 332.4,55 "/>
<polygon class="st0" points="223.4,35.7 239,35.7 253.9,18.5 239,1.3 223.4,1.3 238.3,18.5 "/>
<polygon class="st0" points="260.7,18.5 245.8,35.7 261.5,35.7 276.4,18.5 261.5,1.3 245.8,1.3 "/>
<path class="st0" d="M135.3,48.8c0,0.9,0.7,1.6,1.6,1.6c0.9,0,1.6-0.7,1.6-1.6c0-0.9-0.7-1.6-1.6-1.6
	C136,47.2,135.3,47.9,135.3,48.8z"/>
<path class="st0" d="M143.2,50.4c0.9,0,1.6-0.7,1.6-1.6c0-0.9-0.7-1.6-1.6-1.6c-0.9,0-1.6,0.7-1.6,1.6S142.3,50.4,143.2,50.4z"/>
<path class="st0" d="M149.6,50.4c0.9,0,1.6-0.7,1.6-1.6c0-0.9-0.7-1.6-1.6-1.6s-1.6,0.7-1.6,1.6S148.7,50.4,149.6,50.4z"/>
<path class="st0" d="M155.9,50.4c0.9,0,1.6-0.7,1.6-1.6c0-0.9-0.7-1.6-1.6-1.6c-0.9,0-1.6,0.7-1.6,1.6S155,50.4,155.9,50.4z"/>
<path class="st0" d="M162.3,50.4c0.9,0,1.6-0.7,1.6-1.6c0-0.9-0.7-1.6-1.6-1.6c-0.9,0-1.6,0.7-1.6,1.6S161.4,50.4,162.3,50.4z"/>
<path class="st0" d="M168.6,50.4c0.9,0,1.6-0.7,1.6-1.6c0-0.9-0.7-1.6-1.6-1.6s-1.6,0.7-1.6,1.6S167.7,50.4,168.6,50.4z"/>
<path class="st0" d="M174.9,50.4c0.9,0,1.6-0.7,1.6-1.6c0-0.9-0.7-1.6-1.6-1.6c-0.9,0-1.6,0.7-1.6,1.6S174,50.4,174.9,50.4z"/>
<path class="st0" d="M181.3,50.4c0.9,0,1.6-0.7,1.6-1.6c0-0.9-0.7-1.6-1.6-1.6s-1.6,0.7-1.6,1.6S180.4,50.4,181.3,50.4z"/>
<path class="st0" d="M187.6,50.4c0.9,0,1.6-0.7,1.6-1.6c0-0.9-0.7-1.6-1.6-1.6s-1.6,0.7-1.6,1.6S186.7,50.4,187.6,50.4z"/>
<path class="st0" d="M194,50.4c0.9,0,1.6-0.7,1.6-1.6c0-0.9-0.7-1.6-1.6-1.6c-0.9,0-1.6,0.7-1.6,1.6S193.1,50.4,194,50.4z"/>
<path class="st0" d="M200.3,50.4c0.9,0,1.6-0.7,1.6-1.6c0-0.9-0.7-1.6-1.6-1.6s-1.6,0.7-1.6,1.6S199.4,50.4,200.3,50.4z"/>
<path class="st0" d="M206.6,50.4c0.9,0,1.6-0.7,1.6-1.6c0-0.9-0.7-1.6-1.6-1.6s-1.6,0.7-1.6,1.6S205.7,50.4,206.6,50.4z"/>
<path class="st0" d="M213,50.4c0.9,0,1.6-0.7,1.6-1.6c0-0.9-0.7-1.6-1.6-1.6c-0.9,0-1.6,0.7-1.6,1.6S212.1,50.4,213,50.4z"/>
<path class="st0" d="M219.3,50.4c0.9,0,1.6-0.7,1.6-1.6c0-0.9-0.7-1.6-1.6-1.6s-1.6,0.7-1.6,1.6S218.4,50.4,219.3,50.4z"/>
<path class="st0" d="M225.7,50.4c0.9,0,1.6-0.7,1.6-1.6c0-0.9-0.7-1.6-1.6-1.6c-0.9,0-1.6,0.7-1.6,1.6S224.8,50.4,225.7,50.4z"/>
<path class="st0" d="M232,50.4c0.9,0,1.6-0.7,1.6-1.6c0-0.9-0.7-1.6-1.6-1.6c-0.9,0-1.6,0.7-1.6,1.6S231.1,50.4,232,50.4z"/>
<path class="st0" d="M238.3,50.4c0.9,0,1.6-0.7,1.6-1.6c0-0.9-0.7-1.6-1.6-1.6s-1.6,0.7-1.6,1.6S237.4,50.4,238.3,50.4z"/>
<path class="st0" d="M244.7,50.4c0.9,0,1.6-0.7,1.6-1.6c0-0.9-0.7-1.6-1.6-1.6c-0.9,0-1.6,0.7-1.6,1.6S243.8,50.4,244.7,50.4z"/>
<path class="st0" d="M251,50.4c0.9,0,1.6-0.7,1.6-1.6c0-0.9-0.7-1.6-1.6-1.6c-0.9,0-1.6,0.7-1.6,1.6S250.1,50.4,251,50.4z"/>
<path class="st0" d="M257.4,50.4c0.9,0,1.6-0.7,1.6-1.6c0-0.9-0.7-1.6-1.6-1.6c-0.9,0-1.6,0.7-1.6,1.6S256.5,50.4,257.4,50.4z"/>
<path class="st0" d="M265.3,48.8c0-0.9-0.7-1.6-1.6-1.6c-0.9,0-1.6,0.7-1.6,1.6s0.7,1.6,1.6,1.6C264.6,50.4,265.3,49.7,265.3,48.8z"
	/>
<path class="st1" d="M391.9,45c-0.6,0-1.2-0.3-1.7-0.7l-0.6,0.8c0.6,0.5,1.4,0.8,2.4,0.8c1.1,0,2-0.7,2-1.7c0-0.9-0.7-1.4-1.8-1.8
	c-0.9-0.3-1.2-0.5-1.2-0.9s0.3-0.7,0.9-0.7c0.5,0,1,0.3,1.4,0.6l0.6-0.8c-0.6-0.4-1.3-0.7-2-0.7c-1.2,0-2,0.7-2,1.7s0.7,1.4,1.8,1.8
	c0.9,0.3,1.1,0.5,1.1,0.9C392.8,44.7,392.5,45,391.9,45z"/>
<polygon class="st1" points="400,45.8 400,40 398.9,40 397.5,42.6 396.1,40 395,40 395,45.9 396,45.9 396,41.8 397.5,44.5 
	397.6,44.5 398.9,41.7 398.9,45.8 "/>
<path class="st1" d="M370.3,26.6v-4.1h14.4v-8.3h-14.4v-3.9h15.5V1.2h-26.5v5c-2.9-3.5-7-5.7-12.7-5.7c-6.3,0-11.8,3.1-14.8,8.3V1.2
	H303v9.3h8.8v25.2H323V10.5h7.9c-1,2.2-1.5,4.8-1.5,7.6v0.8c0,11,7.8,17.5,16.7,17.4c6.4,0,10.5-2.6,13.2-5.9v5.3H386v-9.1H370.3z
	 M352.6,23c-1.2,1.8-2.8,3.4-5.7,3.4c-3.4,0-6.1-2.5-6.1-8v-0.2c0-5,2.5-7.9,6-7.9c2.8,0,4.5,1.6,5.6,3.3l6.9-6.1v21.2L352.6,23z"/>
<path class="st1" d="M272.7,35.7h11.6l1.5-4.9H296l1.6,4.9h11.8L296.9,1h-11.7L272.7,35.7z M291,13.9l2.7,9h-5.4L291,13.9z"/>
<polygon class="st1" points="345.3,39.7 344,39.7 340.5,41 340.8,42.6 343.6,41.6 343.6,56.7 345.3,56.7 "/>
<path class="st1" d="M357.7,41.1c-0.9-1-2.1-1.5-3.7-1.5c-3,0-5.3,2.4-5.3,5.7c0,3.2,2.2,5.2,5.1,5.2c1.8,0,3.2-0.9,4.1-2.3
	c0,4-1.6,7.1-4.4,7.2c-1.3,0-2.3-0.5-3.4-1.4l-0.9,1.4c1.3,1.1,2.6,1.7,4.3,1.7c3.7,0,6.2-3.5,6.2-9.2v-0.2
	C359.7,44.1,358.9,42.3,357.7,41.1z M354.2,49c-2.1,0-3.5-1.5-3.5-3.8c0-2.2,1.3-4,3.4-4c2.2,0,3.6,1.7,3.6,4
	C357.7,47.3,356.2,49,354.2,49z"/>
<path class="st1" d="M364.2,55l4.2-4.8c2.4-2.5,3.4-3.9,3.4-6.1V44c0-2.6-2-4.5-4.7-4.5c-2.4,0-3.9,1.1-5.2,3l1.3,1.1
	c1.1-1.6,2.3-2.4,3.8-2.4c1.7,0,3,1.1,3,3c0,1.6-0.8,2.8-2.8,5l-5.4,6.1h-0.1v1.4h10.2V55H364.2z"/>
<path class="st1" d="M383.3,39.7h-1.5l0,0l-8.2,11.8l0.3,1.3h7.7v3.9h1.7v-3.9h2.2v-1.5h-2.2V39.7z M381.6,51.2h-6l6-8.7V51.2z"/>
<path class="st0" d="M176.3,35.9v-9.6h2.7c7.8,0,14.2-4,14.2-12.5v-0.3c0-8.3-5.8-12.2-14.3-12.2h-13.2v34.6H176.3z M176.3,10h2.2
	c2.6,0,4.2,1.3,4.2,4v0.2c0,2.7-1.8,4-4.3,4h-2.1C176.3,18.2,176.3,10,176.3,10z"/>
<g>
	<path class="st2" d="M80.7,0.5c-12.1,0-22.4,7.7-26.3,18.4C50.4,8.2,40.1,0.5,28,0.5C12.5,0.5,0,13,0,28.5c0,15.5,12.5,28,28,28
		c12.1,0,22.4-7.7,26.3-18.4c3.9,10.7,14.2,18.4,26.3,18.4c15.5,0,28-12.5,28-28C108.7,13,96.2,0.5,80.7,0.5"/>
	<path class="st0" d="M103.9,53.2h0.5l0.8,1.3h0.5l-0.8-1.3c0.4-0.1,0.8-0.3,0.8-0.8c0-0.6-0.3-0.8-1.1-0.8h-1.1v3h0.5V53.2z
		 M103.9,51.9h0.6c0.3,0,0.6,0.1,0.6,0.4c0,0.5-0.3,0.5-0.7,0.5h-0.5V51.9z"/>
	<path class="st0" d="M104.5,55.6c1.4,0,2.6-1.1,2.6-2.6c0-1.5-1.2-2.6-2.6-2.6c-1.4,0-2.6,1.1-2.6,2.6
		C101.8,54.5,103,55.6,104.5,55.6z M104.5,50.9c1.2,0,2.1,0.9,2.1,2.1c0,1.2-0.9,2.2-2.1,2.2c-1.2,0-2.1-0.9-2.1-2.2
		C102.4,51.8,103.3,50.9,104.5,50.9z"/>
	<polygon class="st3" points="64.4,13.4 65.1,13.4 64.6,14.1 65.1,15 66.7,15 64.3,16.6 65,16.6 67.9,15.2 69.3,14.1 71.3,13.8 
		73,15 73.6,17.3 74.6,18.5 74.5,20.3 75.2,22.4 76.8,25.4 77.4,25.4 75.9,22.4 77.1,22.4 79.2,26.4 84.3,30.2 85.2,30.2 84.5,32.3 
		85.2,34.7 87.4,36.3 85.5,44.7 86.2,46.3 87.9,47 87.4,44.3 89.2,42.5 89.2,41.2 90.6,41.2 91.6,39.8 94.2,38 94.2,36.3 95.6,35.2 
		95.5,32.6 94.2,31.9 92.7,31.9 92.7,30.9 90,28.7 86.2,28.7 85.8,29.4 84.1,29.3 83,27.9 83.4,26.6 82.5,26.6 82.5,27.3 81.6,26.6 
		80.9,24 84.1,24.1 85.1,25.7 85.5,25.6 84.8,23.8 85.9,22.4 85.8,21.4 85.8,20.5 86.7,20.5 87.7,18.5 89.5,18.5 89,18 87.4,18 
		86.9,17 91.1,17 89.7,14.1 88.6,14.1 88.8,14.8 86.7,14.8 85.8,12.8 83.9,12.8 84.8,14.7 83.8,16.4 83.2,15.4 82,15.4 81.1,13.8 
		81.8,11.7 84.1,11.7 83.4,10 82.9,10 82.3,10.8 81.3,8.9 80.4,8.9 78.1,10.1 74.5,9.4 72.7,10.3 65.9,9.8 64.4,11 65,12.8 
		64.1,12.8 	"/>
	<polygon class="st3" points="85.5,6.8 86.9,6.8 88.1,8.9 89,8.9 91.3,13.1 92,13.1 92.9,10.3 94.8,8.5 92,5.2 90.2,3.8 90.2,5.2 
		84.8,5.2 	"/>
	<polygon class="st3" points="88.8,27.5 88.8,27.1 87,26.6 85.9,26.6 85.9,27.1 87,27.1 	"/>
	<polygon class="st3" points="87.4,10.7 85.9,8 84.3,8 83.9,7.5 82.2,7.5 83,8.9 85.4,8.9 86.2,10.3 84.5,10.3 85.1,11.4 86.2,11.4 
		86.9,12.8 89.3,12.8 88.3,10.7 	"/>
	<polygon class="st3" points="95.9,11.4 97.4,11.4 98.1,10.1 97.8,9.4 95.1,9.4 	"/>
	<polygon class="st3" points="7.3,33.4 8,34.3 7.4,35 8.7,37.9 7.8,40.9 10.1,44.7 12.4,44.7 13.6,41.9 13.8,40.2 15.2,37.9 
		15.1,36.3 17.3,34.5 18.5,32.1 16.2,32.1 14.5,30.2 13.3,26.8 14.8,27 16.9,30.9 19.4,29.6 19,29.1 18.3,29.1 16.6,25.7 17.8,25.7 
		19,28.2 20.5,28.2 21.2,30.5 22.9,33.8 24.9,30 26,30 26.4,31 26.4,35.2 26.9,36.3 27.6,37.2 27.6,35.9 26.9,34.9 26.9,31.9 
		27.8,34.1 29.4,33.1 29.4,31.6 28.3,29.8 30.3,28.7 31.2,27.9 31.4,26.1 29.9,24.7 30.3,23.2 31.5,23.2 32.4,25 32.9,24.1 
		32.2,23.2 32.9,20.8 34.1,20.8 35.9,17.8 35,17.7 36.8,14.3 40,12.3 38.9,13.8 39.2,15.2 41.5,12.1 41,11.2 47.5,11.2 46.6,10.8 
		44.1,10.7 43.2,10.1 37.1,9.8 36.8,9.1 29.1,9.1 28,7.5 19.4,7.5 17.4,10.7 15.1,10.7 14.1,13.4 12.2,12.1 13.3,12.1 12.6,10.5 
		10.3,10.5 7.4,14.5 7.3,15.9 7.8,16.8 8.3,16.1 9,17.5 9.7,15.9 9.2,15.2 10.6,12.4 11,13.4 10.3,15.2 10.8,16.1 12.4,15.9 
		12.4,17 10.1,18.4 8.3,18.4 7.6,17.3 7.4,17.7 7.8,18.5 7.3,18.5 6.6,20.1 4.2,20.1 5,21.4 5,22.6 3.1,22.6 3.3,23.2 3.1,24.8 
		4.3,25.6 5.7,24.3 6.4,22.4 8.3,21.7 9,23.5 9,24.7 9.9,23.5 9,21.4 9.7,21.4 11,23.8 12.4,21.6 14.2,21.6 15.2,23.2 11.7,23.2 
		11.9,24.7 14.1,24.7 13.3,26.3 10.8,26.3 10.8,27 8.3,26.3 8.1,25.4 4.3,25.6 1.9,28 1.9,31.9 3.4,33.8 	"/>
	<polygon class="st3" points="4.3,17.3 3.6,17.3 3.3,18.4 4,18.4 	"/>
	<polygon class="st3" points="18.3,39.8 16.9,38 15.1,41.2 16.2,43.1 	"/>
	<polygon class="st3" points="35.5,20 35,21 35,23.1 34.1,24.5 33.2,24.5 33.3,25 34.8,25 35.9,23.1 35.2,21 36.1,21 	"/>
	<polygon class="st3" points="29.4,49.1 32.9,48.1 34.6,48.4 35.7,49.6 37.1,49.6 38.4,48.1 39.1,46.3 37.5,43.8 36.6,41.2 
		35.5,43.8 33.6,43.1 33.6,42.3 32.4,42.5 31.9,42.8 31.2,42.5 30.5,44.3 28.3,45.6 28.5,48.4 	"/>
	<polygon class="st3" points="6.1,19.4 6.1,18.5 5.7,17.3 5.7,16.6 5,16.6 5.3,18 4.7,18.2 4.7,18.9 5,19.1 4.7,19.4 	"/>
	<polygon class="st3" points="41,50 40.5,50 40.8,49.1 40,49.1 38.9,51.1 40.5,51.1 	"/>
	<polygon class="st3" points="23.3,34.3 23.6,35 24.2,34.1 23.8,33.4 	"/>
	<polygon class="st3" points="26.2,37.3 27.6,39 28.2,39 28.2,38.9 26.2,36.3 	"/>
	<polygon class="st3" points="37.5,40.9 39.8,40.9 38.4,40 37.8,39.3 35.3,39.3 36.9,40 	"/>
	<polygon class="st3" points="42.3,46.8 41.2,46.8 40.5,48.1 41.5,48.1 	"/>
	<polygon class="st3" points="28.2,39 27.6,39 28.7,40.3 28.7,39.5 28.2,38.9 	"/>
	<polygon class="st3" points="29.9,39.3 29.4,39.6 29.8,40.5 31.4,40.5 31.7,38.4 31.2,37.9 	"/>
	<polygon class="st3" points="32.9,39.3 32.2,39.1 32.1,40.5 32.9,40.5 32.9,40.2 34.1,40.5 33.3,39.8 34.6,39.1 	"/>
	<path class="st3" d="M36.2,33.9c0-0.6,0.4-0.9,0.8-0.9c0.7,0,0.7,0.5,0.7,0.8v2.5h1.1v-2.8c0-0.9-0.6-1.4-1.4-1.4
		c-0.8,0-1.1,0.5-1.2,0.7h0v-0.6h-1v4.1h1.1V33.9z"/>
	<path class="st3" d="M47.2,34.1c0-0.5,0.2-1,1-1c0.1,0,0.2,0,0.3,0v-1.1c-0.1,0-0.1,0-0.2,0c-0.7,0-0.9,0.4-1.1,0.8h0v-0.7h-1v4.1
		h1.1V34.1z"/>
	<path class="st3" d="M43.7,32.1c-1.8,0-2,1.6-2,2.1c0,1.7,0.9,2.2,2,2.2c0.7,0,1.5-0.3,1.8-1.3h-1.1c-0.1,0.3-0.4,0.4-0.7,0.4
		c-0.9,0-0.9-0.7-1-1h2.8v-0.2C45.6,32.4,44.5,32.1,43.7,32.1z M42.9,33.8c0.1-0.5,0.3-0.9,0.8-0.9c0.3,0,0.8,0.2,0.8,0.9H42.9z"/>
	<path class="st3" d="M55.1,33.7l-1,0.1C53.5,34,53,34.4,53,35.2c0,0.8,0.6,1.2,1.2,1.2c0.7,0,1.1-0.3,1.3-0.6c0,0.2,0,0.3,0.1,0.5
		h1.2v-0.2c-0.1,0-0.2-0.2-0.2-0.6v-2.2c0-1-1.1-1.2-1.6-1.2c-0.8,0-1.7,0.2-1.8,1.4h1c0-0.2,0.1-0.6,0.7-0.6c0.3,0,0.7,0,0.7,0.5
		C55.5,33.6,55.3,33.7,55.1,33.7z M55.5,34.8c0,0.5-0.5,0.8-1,0.8c-0.2,0-0.5-0.1-0.5-0.5c0-0.4,0.3-0.5,0.7-0.6
		c0.4-0.1,0.6-0.1,0.7-0.2V34.8z"/>
	<path class="st3" d="M57.4,35.4c0,0.5,0.2,0.9,1.1,0.9h0.1c0.2,0,0.3,0,0.5,0v-0.8c-0.1,0-0.2,0-0.2,0c-0.4,0-0.4-0.1-0.4-0.3v-2.2
		h0.7v-0.8h-0.7v-1.1h-1.1v1.1h-0.6v0.8h0.6V35.4z"/>
	<path class="st3" d="M63.5,36.4c1.1,0,2.1-0.7,2.1-2.2c0-1.5-1-2.2-2.1-2.2c-1.1,0-2.1,0.7-2.1,2.2C61.4,35.7,62.4,36.4,63.5,36.4z
		 M63.5,33c0.8,0,1,0.7,1,1.2c0,0.5-0.2,1.2-1,1.2c-0.8,0-1-0.7-1-1.2C62.6,33.7,62.7,33,63.5,33z"/>
	<path class="st3" d="M72.3,33.7l-1,0.1c-0.7,0.1-1.2,0.5-1.2,1.3c0,0.8,0.6,1.2,1.2,1.2c0.7,0,1.1-0.3,1.3-0.6c0,0.2,0,0.3,0.1,0.5
		h1.2v-0.2c-0.1,0-0.2-0.2-0.2-0.6v-2.2c0-1-1.1-1.2-1.6-1.2c-0.8,0-1.7,0.2-1.8,1.4h1c0-0.2,0.1-0.6,0.7-0.6c0.3,0,0.7,0,0.7,0.5
		C72.6,33.6,72.4,33.7,72.3,33.7z M72.6,34.8c0,0.5-0.5,0.8-1,0.8c-0.2,0-0.5-0.1-0.5-0.5c0-0.4,0.3-0.5,0.7-0.6
		c0.4-0.1,0.6-0.1,0.7-0.2V34.8z"/>
	<rect x="33.3" y="30.7" class="st3" width="1.2" height="5.5"/>
	<path class="st3" d="M40.8,31.1h-1.1v1.1h-0.6v0.8h0.6v2.5c0,0.5,0.2,0.9,1.1,0.9H41c0.2,0,0.3,0,0.5,0v-0.8c-0.1,0-0.2,0-0.2,0
		c-0.4,0-0.4-0.1-0.4-0.3v-2.2h0.7v-0.8h-0.7V31.1z"/>
	<path class="st3" d="M51.2,32.1c-0.8,0-1.1,0.5-1.2,0.7h0v-0.6h-1v4.1H50v-2.3c0-0.6,0.4-0.9,0.8-0.9c0.7,0,0.7,0.5,0.7,0.8v2.5
		h1.1v-2.8C52.6,32.5,52,32.1,51.2,32.1z"/>
	<rect x="59.8" y="30.7" class="st3" width="1.1" height="1"/>
	<rect x="59.8" y="32.2" class="st3" width="1.1" height="4.1"/>
	<path class="st3" d="M68.3,32.1c-0.8,0-1.1,0.5-1.2,0.7h0v-0.6h-1v4.1h1.1v-2.3c0-0.6,0.4-0.9,0.8-0.9c0.7,0,0.7,0.5,0.7,0.8v2.5
		h1.1v-2.8C69.8,32.5,69.1,32.1,68.3,32.1z"/>
	<rect x="74.4" y="30.7" class="st3" width="1.1" height="5.5"/>
	<path class="st3" d="M43.9,27.4c-0.3,0.1-0.7,0.2-1.1,0.2c-0.5,0-1-0.1-1.2-0.3c-0.3-0.2-0.4-0.4-0.6-0.7h-3.5
		c0.1,1,0.6,1.7,1.5,2.3c0.9,0.5,2.2,0.8,3.7,0.8c1.6,0,2.9-0.3,3.9-0.8c0.9-0.5,1.3-1.4,1.3-2.4c0-0.4-0.1-0.8-0.4-1.2
		c-0.2-0.3-0.6-0.6-1.1-0.9c-0.5-0.3-1.5-0.5-2.7-0.7c-0.1,0-0.3-0.1-0.4-0.1c-0.1,0-0.2,0-0.3-0.1c0,0-0.1,0-0.2,0
		c-1-0.2-1.6-0.5-1.6-0.9c0-0.2,0.1-0.5,0.4-0.6c0.2-0.1,0.4-0.2,0.9-0.2c0.4,0,0.8,0,1.1,0.2c0.2,0.1,0.4,0.3,0.5,0.6h3.4
		c-0.1-0.9-0.6-1.6-1.4-2.1c-0.8-0.5-2-0.8-3.5-0.8c-1.5,0-2.7,0.3-3.6,0.8c-0.8,0.6-1.2,1.3-1.2,2.2c0,0.5,0.1,0.9,0.3,1.2
		c0.2,0.2,0.5,0.6,1,0.9c0.2,0.1,0.6,0.3,1.1,0.4c0.5,0.2,1.3,0.4,2.1,0.5c0.1,0,0.3,0,0.5,0.1c1.1,0.2,1.7,0.5,1.7,0.9
		C44.4,27.1,44.2,27.3,43.9,27.4z"/>
	<polygon class="st3" points="71.2,27.3 65.3,27.3 65.3,25.6 70,25.6 70,23.6 65.3,23.6 65.3,22.1 70.9,22.1 70.9,20 61.7,20 
		61.7,29.4 71.2,29.4 	"/>
	<path class="st3" d="M53.1,26.7h2.3c3,0,4.7-1.2,4.7-3.4c0-1.1-0.9-3.2-4.4-3.2h-6.2v9.6h3.6V26.7z M53.1,22.4h1.8
		c0.8,0,1.9,0,1.9,1c0,1.1-1.3,1.1-2.1,1.1h-1.5V22.4z"/>
</g>
</svg>
